G04 #@! TF.FileFunction,Copper,L2,Bot,Signal*
%FSLAX46Y46*%
G04 Gerber Fmt 4.6, Leading zero omitted, Abs format (unit mm)*
G04 Created by KiCad (PCBNEW 4.0.7) date 06/27/18 01:28:05*
%MOMM*%
%LPD*%
G01*
G04 APERTURE LIST*
%ADD10C,0.100000*%
%ADD11R,1.700000X1.700000*%
%ADD12O,1.700000X1.700000*%
%ADD13R,1.600000X0.800000*%
%ADD14R,1.600000X0.300000*%
%ADD15C,0.650000*%
%ADD16C,0.600000*%
%ADD17C,0.400000*%
%ADD18C,0.250000*%
%ADD19C,0.254000*%
G04 APERTURE END LIST*
D10*
D11*
X106490000Y-75933300D03*
D12*
X106490000Y-78473300D03*
X106490000Y-81013300D03*
X106490000Y-83553300D03*
X106490000Y-86093300D03*
X106490000Y-88633300D03*
X106490000Y-91173300D03*
X106490000Y-93713300D03*
X106490000Y-96253300D03*
X106490000Y-98793300D03*
X106490000Y-101333300D03*
X106490000Y-103873300D03*
X106490000Y-106413300D03*
X106490000Y-108953300D03*
X106490000Y-111493300D03*
D11*
X121272000Y-75895200D03*
D12*
X121272000Y-78435200D03*
X121272000Y-80975200D03*
X121272000Y-83515200D03*
X121272000Y-86055200D03*
X121272000Y-88595200D03*
X121272000Y-91135200D03*
X121272000Y-93675200D03*
X121272000Y-96215200D03*
X121272000Y-98755200D03*
X121272000Y-101295200D03*
X121272000Y-103835200D03*
X121272000Y-106375200D03*
X121272000Y-108915200D03*
X121272000Y-111455200D03*
D11*
X97561400Y-92494100D03*
D12*
X97561400Y-95034100D03*
D13*
X113919000Y-88476000D03*
D14*
X115719000Y-90226000D03*
X112119000Y-90226000D03*
X115719000Y-90726000D03*
X112119000Y-90726000D03*
X115719000Y-91226000D03*
X112119000Y-91226000D03*
X115719000Y-91726000D03*
X112119000Y-91726000D03*
X115719000Y-92226000D03*
X112119000Y-92226000D03*
X115719000Y-92726000D03*
X112119000Y-92726000D03*
X115719000Y-93226000D03*
X112119000Y-93226000D03*
X115719000Y-93726000D03*
X112119000Y-93726000D03*
X115719000Y-94226000D03*
X112119000Y-94226000D03*
X115719000Y-94726000D03*
X112119000Y-94726000D03*
X115719000Y-95226000D03*
X112119000Y-95226000D03*
X115719000Y-95726000D03*
X112119000Y-95726000D03*
X115719000Y-96226000D03*
X112119000Y-96226000D03*
X115719000Y-96726000D03*
X112119000Y-96726000D03*
X115719000Y-97226000D03*
X112119000Y-97226000D03*
D13*
X113919000Y-98976000D03*
D15*
X115469000Y-98276000D03*
X115419000Y-89176000D03*
D16*
X111522500Y-97876100D03*
X114418900Y-90209000D03*
D17*
X105840000Y-76583300D02*
X106490000Y-75933300D01*
X105840000Y-76783300D02*
X105840000Y-76583300D01*
X105840000Y-76866100D02*
X105840000Y-76783300D01*
X105153600Y-77900400D02*
X105840000Y-76866100D01*
X98211400Y-91561300D02*
X105153600Y-77900400D01*
X98211400Y-91644100D02*
X98211400Y-91561300D01*
X98211400Y-91844100D02*
X98211400Y-91644100D01*
X97561400Y-92494100D02*
X98211400Y-91844100D01*
X112618900Y-89083100D02*
X112959600Y-89675900D01*
X107826400Y-77900400D02*
X112618900Y-89083100D01*
X107140000Y-76866100D02*
X107826400Y-77900400D01*
X107140000Y-76783300D02*
X107140000Y-76866100D01*
X107140000Y-76583300D02*
X107140000Y-76783300D01*
X106490000Y-75933300D02*
X107140000Y-76583300D01*
X113419100Y-89993900D02*
X114420000Y-97034900D01*
X113126100Y-89700900D02*
X113419100Y-89993900D01*
X113084700Y-89675900D02*
X113126100Y-89700900D01*
X112959600Y-89675900D02*
X113084700Y-89675900D01*
D18*
X114784400Y-97201000D02*
X114420000Y-97034900D01*
X114919000Y-97201000D02*
X114784400Y-97201000D01*
X115044000Y-97201000D02*
X114919000Y-97201000D01*
X115719000Y-97226000D02*
X115044000Y-97201000D01*
D17*
X112911900Y-98075900D02*
X114420000Y-97034900D01*
X112618900Y-98368900D02*
X112911900Y-98075900D01*
X112618900Y-99168900D02*
X112618900Y-98368900D01*
X112618900Y-99583100D02*
X112618900Y-99168900D01*
X121272000Y-111455200D02*
X112618900Y-99583100D01*
D18*
X112794000Y-90024200D02*
X112959600Y-89675900D01*
X112794000Y-90076000D02*
X112794000Y-90024200D01*
X112794000Y-90201000D02*
X112794000Y-90076000D01*
X112119000Y-90226000D02*
X112794000Y-90201000D01*
X114583800Y-97109600D02*
X114420100Y-97109900D01*
X114583800Y-97109600D02*
X114476700Y-96985900D01*
X112882300Y-89838500D02*
X112884600Y-89674800D01*
X112882300Y-89838500D02*
X113007800Y-89733400D01*
X114919000Y-90209000D02*
X114418900Y-90209000D01*
X115044000Y-90209000D02*
X114919000Y-90209000D01*
X115719000Y-90226000D02*
X115044000Y-90209000D01*
X111522500Y-97251000D02*
X112119000Y-97226000D01*
X111522500Y-97376000D02*
X111522500Y-97251000D01*
X111522500Y-97876100D02*
X111522500Y-97376000D01*
X107762800Y-80482800D02*
X106490000Y-78473300D01*
X107765100Y-80488400D02*
X107762800Y-80482800D01*
X110893900Y-90427100D02*
X107765100Y-80488400D01*
X111142900Y-90676100D02*
X110893900Y-90427100D01*
X111184400Y-90701000D02*
X111142900Y-90676100D01*
X111319000Y-90701000D02*
X111184400Y-90701000D01*
X111444000Y-90701000D02*
X111319000Y-90701000D01*
X112119000Y-90726000D02*
X111444000Y-90701000D01*
X107762800Y-83022800D02*
X106490000Y-81013300D01*
X107765100Y-83028400D02*
X107762800Y-83022800D01*
X110343800Y-90604900D02*
X107765100Y-83028400D01*
X110369000Y-90644500D02*
X110343800Y-90604900D01*
X110925500Y-91201000D02*
X110369000Y-90644500D01*
X111319000Y-91201000D02*
X110925500Y-91201000D01*
X111444000Y-91201000D02*
X111319000Y-91201000D01*
X112119000Y-91226000D02*
X111444000Y-91201000D01*
X107762800Y-85562800D02*
X106490000Y-83553300D01*
X107765100Y-85568400D02*
X107762800Y-85562800D01*
X109819000Y-90770600D02*
X107765100Y-85568400D01*
X109855500Y-90858900D02*
X109819000Y-90770600D01*
X110661100Y-91664500D02*
X109855500Y-90858900D01*
X110749400Y-91701000D02*
X110661100Y-91664500D01*
X111319000Y-91701000D02*
X110749400Y-91701000D01*
X111444000Y-91701000D02*
X111319000Y-91701000D01*
X112119000Y-91726000D02*
X111444000Y-91701000D01*
X107762800Y-88102800D02*
X106490000Y-86093300D01*
X109367700Y-91059800D02*
X107762800Y-88102800D01*
X109431700Y-91142100D02*
X109367700Y-91059800D01*
X110377900Y-92088300D02*
X109431700Y-91142100D01*
X110649900Y-92201000D02*
X110377900Y-92088300D01*
X111319000Y-92201000D02*
X110649900Y-92201000D01*
X111444000Y-92201000D02*
X111319000Y-92201000D01*
X112119000Y-92226000D02*
X111444000Y-92201000D01*
X108901800Y-91371100D02*
X106490000Y-88633300D01*
X110023900Y-92493200D02*
X108901800Y-91371100D01*
X110525600Y-92701000D02*
X110023900Y-92493200D01*
X111319000Y-92701000D02*
X110525600Y-92701000D01*
X111444000Y-92701000D02*
X111319000Y-92701000D01*
X112119000Y-92726000D02*
X111444000Y-92701000D01*
X109740700Y-92917100D02*
X106490000Y-91173300D01*
X110426100Y-93201000D02*
X109740700Y-92917100D01*
X111319000Y-93201000D02*
X110426100Y-93201000D01*
X111444000Y-93201000D02*
X111319000Y-93201000D01*
X112119000Y-93226000D02*
X111444000Y-93201000D01*
X111319000Y-93713300D02*
X106490000Y-93713300D01*
X111444000Y-93713300D02*
X111319000Y-93713300D01*
X112119000Y-93726000D02*
X111444000Y-93713300D01*
X109740700Y-94534900D02*
X106490000Y-96253300D01*
X110426100Y-94251000D02*
X109740700Y-94534900D01*
X111319000Y-94251000D02*
X110426100Y-94251000D01*
X111444000Y-94251000D02*
X111319000Y-94251000D01*
X112119000Y-94226000D02*
X111444000Y-94251000D01*
X108901800Y-96080900D02*
X106490000Y-98793300D01*
X110023900Y-94958800D02*
X108901800Y-96080900D01*
X110525600Y-94751000D02*
X110023900Y-94958800D01*
X111319000Y-94751000D02*
X110525600Y-94751000D01*
X111444000Y-94751000D02*
X111319000Y-94751000D01*
X112119000Y-94726000D02*
X111444000Y-94751000D01*
X107762800Y-99323800D02*
X106490000Y-101333300D01*
X109367700Y-96392200D02*
X107762800Y-99323800D01*
X109431700Y-96309900D02*
X109367700Y-96392200D01*
X110377900Y-95363700D02*
X109431700Y-96309900D01*
X110649900Y-95251000D02*
X110377900Y-95363700D01*
X111319000Y-95251000D02*
X110649900Y-95251000D01*
X111444000Y-95251000D02*
X111319000Y-95251000D01*
X112119000Y-95226000D02*
X111444000Y-95251000D01*
X107762800Y-101863800D02*
X106490000Y-103873300D01*
X107765100Y-101858200D02*
X107762800Y-101863800D01*
X109819000Y-96681400D02*
X107765100Y-101858200D01*
X109855500Y-96593100D02*
X109819000Y-96681400D01*
X110661100Y-95787500D02*
X109855500Y-96593100D01*
X110749400Y-95751000D02*
X110661100Y-95787500D01*
X111319000Y-95751000D02*
X110749400Y-95751000D01*
X111444000Y-95751000D02*
X111319000Y-95751000D01*
X112119000Y-95726000D02*
X111444000Y-95751000D01*
X107762800Y-104403800D02*
X106490000Y-106413300D01*
X107765100Y-104398200D02*
X107762800Y-104403800D01*
X110343800Y-96847100D02*
X107765100Y-104398200D01*
X110369000Y-96807500D02*
X110343800Y-96847100D01*
X110925500Y-96251000D02*
X110369000Y-96807500D01*
X111319000Y-96251000D02*
X110925500Y-96251000D01*
X111444000Y-96251000D02*
X111319000Y-96251000D01*
X112119000Y-96226000D02*
X111444000Y-96251000D01*
X107762800Y-106943800D02*
X106490000Y-108953300D01*
X107765100Y-106938200D02*
X107762800Y-106943800D01*
X110893900Y-97024900D02*
X107765100Y-106938200D01*
X111142900Y-96775900D02*
X110893900Y-97024900D01*
X111184400Y-96751000D02*
X111142900Y-96775900D01*
X111319000Y-96751000D02*
X111184400Y-96751000D01*
X111444000Y-96751000D02*
X111319000Y-96751000D01*
X112119000Y-96726000D02*
X111444000Y-96751000D01*
X119999200Y-80444700D02*
X121272000Y-78435200D01*
X119996900Y-80450300D02*
X119999200Y-80444700D01*
X116944100Y-90427100D02*
X119996900Y-80450300D01*
X116695100Y-90676100D02*
X116944100Y-90427100D01*
X116653600Y-90701000D02*
X116695100Y-90676100D01*
X116519000Y-90701000D02*
X116653600Y-90701000D01*
X116394000Y-90701000D02*
X116519000Y-90701000D01*
X115719000Y-90726000D02*
X116394000Y-90701000D01*
X119999200Y-82984700D02*
X121272000Y-80975200D01*
X119996900Y-82990300D02*
X119999200Y-82984700D01*
X117494200Y-90604900D02*
X119996900Y-82990300D01*
X117469000Y-90644500D02*
X117494200Y-90604900D01*
X116912500Y-91201000D02*
X117469000Y-90644500D01*
X116519000Y-91201000D02*
X116912500Y-91201000D01*
X116394000Y-91201000D02*
X116519000Y-91201000D01*
X115719000Y-91226000D02*
X116394000Y-91201000D01*
X119999200Y-85524700D02*
X121272000Y-83515200D01*
X119996900Y-85530300D02*
X119999200Y-85524700D01*
X118019000Y-90770600D02*
X119996900Y-85530300D01*
X117982500Y-90858900D02*
X118019000Y-90770600D01*
X117176900Y-91664500D02*
X117982500Y-90858900D01*
X117088600Y-91701000D02*
X117176900Y-91664500D01*
X116519000Y-91701000D02*
X117088600Y-91701000D01*
X116394000Y-91701000D02*
X116519000Y-91701000D01*
X115719000Y-91726000D02*
X116394000Y-91701000D01*
X119999200Y-88064700D02*
X121272000Y-86055200D01*
X118470300Y-91059800D02*
X119999200Y-88064700D01*
X118406300Y-91142100D02*
X118470300Y-91059800D01*
X117460100Y-92088300D02*
X118406300Y-91142100D01*
X117188100Y-92201000D02*
X117460100Y-92088300D01*
X116519000Y-92201000D02*
X117188100Y-92201000D01*
X116394000Y-92201000D02*
X116519000Y-92201000D01*
X115719000Y-92226000D02*
X116394000Y-92201000D01*
X118936200Y-91371100D02*
X121272000Y-88595200D01*
X117814100Y-92493200D02*
X118936200Y-91371100D01*
X117312400Y-92701000D02*
X117814100Y-92493200D01*
X116519000Y-92701000D02*
X117312400Y-92701000D01*
X116394000Y-92701000D02*
X116519000Y-92701000D01*
X115719000Y-92726000D02*
X116394000Y-92701000D01*
X118097300Y-92917100D02*
X121272000Y-91135200D01*
X117411900Y-93201000D02*
X118097300Y-92917100D01*
X116519000Y-93201000D02*
X117411900Y-93201000D01*
X116394000Y-93201000D02*
X116519000Y-93201000D01*
X115719000Y-93226000D02*
X116394000Y-93201000D01*
X117153300Y-93701000D02*
X121272000Y-93675200D01*
X116519000Y-93701000D02*
X117153300Y-93701000D01*
X116394000Y-93701000D02*
X116519000Y-93701000D01*
X115719000Y-93726000D02*
X116394000Y-93701000D01*
X118097300Y-94534900D02*
X121272000Y-96215200D01*
X117411900Y-94251000D02*
X118097300Y-94534900D01*
X116519000Y-94251000D02*
X117411900Y-94251000D01*
X116394000Y-94251000D02*
X116519000Y-94251000D01*
X115719000Y-94226000D02*
X116394000Y-94251000D01*
X118936200Y-96080900D02*
X121272000Y-98755200D01*
X117814100Y-94958800D02*
X118936200Y-96080900D01*
X117312400Y-94751000D02*
X117814100Y-94958800D01*
X116519000Y-94751000D02*
X117312400Y-94751000D01*
X116394000Y-94751000D02*
X116519000Y-94751000D01*
X115719000Y-94726000D02*
X116394000Y-94751000D01*
X119999200Y-99285700D02*
X121272000Y-101295200D01*
X118470300Y-96392200D02*
X119999200Y-99285700D01*
X118406300Y-96309900D02*
X118470300Y-96392200D01*
X117460100Y-95363700D02*
X118406300Y-96309900D01*
X117188100Y-95251000D02*
X117460100Y-95363700D01*
X116519000Y-95251000D02*
X117188100Y-95251000D01*
X116394000Y-95251000D02*
X116519000Y-95251000D01*
X115719000Y-95226000D02*
X116394000Y-95251000D01*
X119999200Y-101825700D02*
X121272000Y-103835200D01*
X119996900Y-101820100D02*
X119999200Y-101825700D01*
X118019000Y-96681400D02*
X119996900Y-101820100D01*
X117982500Y-96593100D02*
X118019000Y-96681400D01*
X117176900Y-95787500D02*
X117982500Y-96593100D01*
X117088600Y-95751000D02*
X117176900Y-95787500D01*
X116519000Y-95751000D02*
X117088600Y-95751000D01*
X116394000Y-95751000D02*
X116519000Y-95751000D01*
X115719000Y-95726000D02*
X116394000Y-95751000D01*
X119999200Y-104365700D02*
X121272000Y-106375200D01*
X119996900Y-104360100D02*
X119999200Y-104365700D01*
X117494200Y-96847100D02*
X119996900Y-104360100D01*
X117469000Y-96807500D02*
X117494200Y-96847100D01*
X116912500Y-96251000D02*
X117469000Y-96807500D01*
X116519000Y-96251000D02*
X116912500Y-96251000D01*
X116394000Y-96251000D02*
X116519000Y-96251000D01*
X115719000Y-96226000D02*
X116394000Y-96251000D01*
X119999200Y-106905700D02*
X121272000Y-108915200D01*
X119996900Y-106900100D02*
X119999200Y-106905700D01*
X116944100Y-97024900D02*
X119996900Y-106900100D01*
X116695100Y-96775900D02*
X116944100Y-97024900D01*
X116653600Y-96751000D02*
X116695100Y-96775900D01*
X116519000Y-96751000D02*
X116653600Y-96751000D01*
X116394000Y-96751000D02*
X116519000Y-96751000D01*
X115719000Y-96726000D02*
X116394000Y-96751000D01*
D19*
G36*
X122866364Y-72152849D02*
X130430295Y-77206905D01*
X135484351Y-84770836D01*
X137259100Y-93693100D01*
X135484351Y-102615364D01*
X130430295Y-110179295D01*
X122866364Y-115233351D01*
X113944100Y-117008100D01*
X105021836Y-115233351D01*
X97457905Y-110179295D01*
X96464862Y-108693100D01*
X97159100Y-108693100D01*
X97294975Y-109376190D01*
X97681914Y-109955286D01*
X98261010Y-110342225D01*
X98944100Y-110478100D01*
X99627190Y-110342225D01*
X100206286Y-109955286D01*
X100593225Y-109376190D01*
X100729100Y-108693100D01*
X100593225Y-108010010D01*
X100206286Y-107430914D01*
X99627190Y-107043975D01*
X98944100Y-106908100D01*
X98261010Y-107043975D01*
X97681914Y-107430914D01*
X97294975Y-108010010D01*
X97159100Y-108693100D01*
X96464862Y-108693100D01*
X92403849Y-102615364D01*
X90895842Y-95034100D01*
X96047307Y-95034100D01*
X96160346Y-95602385D01*
X96482253Y-96084154D01*
X96964022Y-96406061D01*
X97532307Y-96519100D01*
X97590493Y-96519100D01*
X98158778Y-96406061D01*
X98640547Y-96084154D01*
X98962454Y-95602385D01*
X99075493Y-95034100D01*
X98962454Y-94465815D01*
X98640547Y-93984046D01*
X98596623Y-93954697D01*
X98771098Y-93882427D01*
X98949727Y-93703799D01*
X99046400Y-93470410D01*
X99046400Y-92779850D01*
X98887650Y-92621100D01*
X97688400Y-92621100D01*
X97688400Y-92641100D01*
X97434400Y-92641100D01*
X97434400Y-92621100D01*
X96235150Y-92621100D01*
X96076400Y-92779850D01*
X96076400Y-93470410D01*
X96173073Y-93703799D01*
X96351702Y-93882427D01*
X96526177Y-93954697D01*
X96482253Y-93984046D01*
X96160346Y-94465815D01*
X96047307Y-95034100D01*
X90895842Y-95034100D01*
X90629100Y-93693100D01*
X91061796Y-91517790D01*
X96076400Y-91517790D01*
X96076400Y-92208350D01*
X96235150Y-92367100D01*
X97434400Y-92367100D01*
X97434400Y-91167850D01*
X97688400Y-91167850D01*
X97688400Y-92367100D01*
X98887650Y-92367100D01*
X99046400Y-92208350D01*
X99046400Y-91517790D01*
X98949727Y-91284401D01*
X98771098Y-91105773D01*
X98537709Y-91009100D01*
X97847150Y-91009100D01*
X97688400Y-91167850D01*
X97434400Y-91167850D01*
X97275650Y-91009100D01*
X96585091Y-91009100D01*
X96351702Y-91105773D01*
X96173073Y-91284401D01*
X96076400Y-91517790D01*
X91061796Y-91517790D01*
X92403849Y-84770836D01*
X96464861Y-78693100D01*
X97159100Y-78693100D01*
X97294975Y-79376190D01*
X97681914Y-79955286D01*
X98261010Y-80342225D01*
X98944100Y-80478100D01*
X99627190Y-80342225D01*
X100206286Y-79955286D01*
X100593225Y-79376190D01*
X100729100Y-78693100D01*
X100685380Y-78473300D01*
X104975907Y-78473300D01*
X105088946Y-79041585D01*
X105410853Y-79523354D01*
X105740026Y-79743300D01*
X105410853Y-79963246D01*
X105088946Y-80445015D01*
X104975907Y-81013300D01*
X105088946Y-81581585D01*
X105410853Y-82063354D01*
X105740026Y-82283300D01*
X105410853Y-82503246D01*
X105088946Y-82985015D01*
X104975907Y-83553300D01*
X105088946Y-84121585D01*
X105410853Y-84603354D01*
X105740026Y-84823300D01*
X105410853Y-85043246D01*
X105088946Y-85525015D01*
X104975907Y-86093300D01*
X105088946Y-86661585D01*
X105410853Y-87143354D01*
X105740026Y-87363300D01*
X105410853Y-87583246D01*
X105088946Y-88065015D01*
X104975907Y-88633300D01*
X105088946Y-89201585D01*
X105410853Y-89683354D01*
X105740026Y-89903300D01*
X105410853Y-90123246D01*
X105088946Y-90605015D01*
X104975907Y-91173300D01*
X105088946Y-91741585D01*
X105410853Y-92223354D01*
X105740026Y-92443300D01*
X105410853Y-92663246D01*
X105088946Y-93145015D01*
X104975907Y-93713300D01*
X105088946Y-94281585D01*
X105410853Y-94763354D01*
X105740026Y-94983300D01*
X105410853Y-95203246D01*
X105088946Y-95685015D01*
X104975907Y-96253300D01*
X105088946Y-96821585D01*
X105410853Y-97303354D01*
X105740026Y-97523300D01*
X105410853Y-97743246D01*
X105088946Y-98225015D01*
X104975907Y-98793300D01*
X105088946Y-99361585D01*
X105410853Y-99843354D01*
X105740026Y-100063300D01*
X105410853Y-100283246D01*
X105088946Y-100765015D01*
X104975907Y-101333300D01*
X105088946Y-101901585D01*
X105410853Y-102383354D01*
X105740026Y-102603300D01*
X105410853Y-102823246D01*
X105088946Y-103305015D01*
X104975907Y-103873300D01*
X105088946Y-104441585D01*
X105410853Y-104923354D01*
X105740026Y-105143300D01*
X105410853Y-105363246D01*
X105088946Y-105845015D01*
X104975907Y-106413300D01*
X105088946Y-106981585D01*
X105410853Y-107463354D01*
X105740026Y-107683300D01*
X105410853Y-107903246D01*
X105088946Y-108385015D01*
X104975907Y-108953300D01*
X105088946Y-109521585D01*
X105410853Y-110003354D01*
X105740026Y-110223300D01*
X105410853Y-110443246D01*
X105088946Y-110925015D01*
X104975907Y-111493300D01*
X105088946Y-112061585D01*
X105410853Y-112543354D01*
X105892622Y-112865261D01*
X106460907Y-112978300D01*
X106519093Y-112978300D01*
X107087378Y-112865261D01*
X107569147Y-112543354D01*
X107891054Y-112061585D01*
X107940681Y-111812090D01*
X119830524Y-111812090D01*
X120000355Y-112222124D01*
X120390642Y-112650383D01*
X120915108Y-112896686D01*
X121145000Y-112776019D01*
X121145000Y-111582200D01*
X121399000Y-111582200D01*
X121399000Y-112776019D01*
X121628892Y-112896686D01*
X122153358Y-112650383D01*
X122543645Y-112222124D01*
X122713476Y-111812090D01*
X122592155Y-111582200D01*
X121399000Y-111582200D01*
X121145000Y-111582200D01*
X119951845Y-111582200D01*
X119830524Y-111812090D01*
X107940681Y-111812090D01*
X108004093Y-111493300D01*
X107891054Y-110925015D01*
X107569147Y-110443246D01*
X107239974Y-110223300D01*
X107569147Y-110003354D01*
X107891054Y-109521585D01*
X108004093Y-108953300D01*
X107891054Y-108385015D01*
X107818422Y-108276314D01*
X108404846Y-107350466D01*
X108428885Y-107288168D01*
X108465815Y-107232538D01*
X108468115Y-107226938D01*
X108474319Y-107195251D01*
X108489859Y-107166946D01*
X111151317Y-98734375D01*
X111335701Y-98810938D01*
X111707667Y-98811262D01*
X112051443Y-98669217D01*
X112314692Y-98406427D01*
X112457338Y-98062899D01*
X112457372Y-98023440D01*
X112805045Y-98023440D01*
X112667559Y-98111910D01*
X112522569Y-98324110D01*
X112471560Y-98576000D01*
X112471560Y-99376000D01*
X112515838Y-99611317D01*
X112654910Y-99827441D01*
X112867110Y-99972431D01*
X113119000Y-100023440D01*
X114719000Y-100023440D01*
X114954317Y-99979162D01*
X115170441Y-99840090D01*
X115315431Y-99627890D01*
X115366440Y-99376000D01*
X115366440Y-99235911D01*
X115659118Y-99236167D01*
X116012086Y-99090323D01*
X116282374Y-98820507D01*
X116428833Y-98467794D01*
X116429167Y-98085882D01*
X116398226Y-98011000D01*
X116453455Y-98011000D01*
X119270804Y-107124564D01*
X119287248Y-107154940D01*
X119293885Y-107188838D01*
X119296185Y-107194438D01*
X119333116Y-107250068D01*
X119357154Y-107312366D01*
X119943578Y-108238214D01*
X119870946Y-108346915D01*
X119757907Y-108915200D01*
X119870946Y-109483485D01*
X120192853Y-109965254D01*
X120533553Y-110192902D01*
X120390642Y-110260017D01*
X120000355Y-110688276D01*
X119830524Y-111098310D01*
X119951845Y-111328200D01*
X121145000Y-111328200D01*
X121145000Y-111308200D01*
X121399000Y-111308200D01*
X121399000Y-111328200D01*
X122592155Y-111328200D01*
X122713476Y-111098310D01*
X122543645Y-110688276D01*
X122153358Y-110260017D01*
X122010447Y-110192902D01*
X122351147Y-109965254D01*
X122673054Y-109483485D01*
X122786093Y-108915200D01*
X122741915Y-108693100D01*
X127159100Y-108693100D01*
X127294975Y-109376190D01*
X127681914Y-109955286D01*
X128261010Y-110342225D01*
X128944100Y-110478100D01*
X129627190Y-110342225D01*
X130206286Y-109955286D01*
X130593225Y-109376190D01*
X130729100Y-108693100D01*
X130593225Y-108010010D01*
X130206286Y-107430914D01*
X129627190Y-107043975D01*
X128944100Y-106908100D01*
X128261010Y-107043975D01*
X127681914Y-107430914D01*
X127294975Y-108010010D01*
X127159100Y-108693100D01*
X122741915Y-108693100D01*
X122673054Y-108346915D01*
X122351147Y-107865146D01*
X122021974Y-107645200D01*
X122351147Y-107425254D01*
X122673054Y-106943485D01*
X122786093Y-106375200D01*
X122673054Y-105806915D01*
X122351147Y-105325146D01*
X122021974Y-105105200D01*
X122351147Y-104885254D01*
X122673054Y-104403485D01*
X122786093Y-103835200D01*
X122673054Y-103266915D01*
X122351147Y-102785146D01*
X122021974Y-102565200D01*
X122351147Y-102345254D01*
X122673054Y-101863485D01*
X122786093Y-101295200D01*
X122673054Y-100726915D01*
X122351147Y-100245146D01*
X122021974Y-100025200D01*
X122351147Y-99805254D01*
X122673054Y-99323485D01*
X122786093Y-98755200D01*
X122673054Y-98186915D01*
X122351147Y-97705146D01*
X122021974Y-97485200D01*
X122351147Y-97265254D01*
X122673054Y-96783485D01*
X122786093Y-96215200D01*
X122673054Y-95646915D01*
X122351147Y-95165146D01*
X122021974Y-94945200D01*
X122351147Y-94725254D01*
X122673054Y-94243485D01*
X122786093Y-93675200D01*
X122673054Y-93106915D01*
X122351147Y-92625146D01*
X122021974Y-92405200D01*
X122351147Y-92185254D01*
X122673054Y-91703485D01*
X122786093Y-91135200D01*
X122673054Y-90566915D01*
X122351147Y-90085146D01*
X122021974Y-89865200D01*
X122351147Y-89645254D01*
X122673054Y-89163485D01*
X122786093Y-88595200D01*
X122673054Y-88026915D01*
X122351147Y-87545146D01*
X122021974Y-87325200D01*
X122351147Y-87105254D01*
X122673054Y-86623485D01*
X122786093Y-86055200D01*
X122673054Y-85486915D01*
X122351147Y-85005146D01*
X122021974Y-84785200D01*
X122351147Y-84565254D01*
X122673054Y-84083485D01*
X122786093Y-83515200D01*
X122673054Y-82946915D01*
X122351147Y-82465146D01*
X122021974Y-82245200D01*
X122351147Y-82025254D01*
X122673054Y-81543485D01*
X122786093Y-80975200D01*
X122673054Y-80406915D01*
X122351147Y-79925146D01*
X122021974Y-79705200D01*
X122351147Y-79485254D01*
X122673054Y-79003485D01*
X122734793Y-78693100D01*
X127159100Y-78693100D01*
X127294975Y-79376190D01*
X127681914Y-79955286D01*
X128261010Y-80342225D01*
X128944100Y-80478100D01*
X129627190Y-80342225D01*
X130206286Y-79955286D01*
X130593225Y-79376190D01*
X130729100Y-78693100D01*
X130593225Y-78010010D01*
X130206286Y-77430914D01*
X129627190Y-77043975D01*
X128944100Y-76908100D01*
X128261010Y-77043975D01*
X127681914Y-77430914D01*
X127294975Y-78010010D01*
X127159100Y-78693100D01*
X122734793Y-78693100D01*
X122786093Y-78435200D01*
X122673054Y-77866915D01*
X122351147Y-77385146D01*
X122309548Y-77357350D01*
X122357317Y-77348362D01*
X122573441Y-77209290D01*
X122718431Y-76997090D01*
X122769440Y-76745200D01*
X122769440Y-75045200D01*
X122725162Y-74809883D01*
X122586090Y-74593759D01*
X122373890Y-74448769D01*
X122122000Y-74397760D01*
X120422000Y-74397760D01*
X120186683Y-74442038D01*
X119970559Y-74581110D01*
X119825569Y-74793310D01*
X119774560Y-75045200D01*
X119774560Y-76745200D01*
X119818838Y-76980517D01*
X119957910Y-77196641D01*
X120170110Y-77341631D01*
X120237541Y-77355286D01*
X120192853Y-77385146D01*
X119870946Y-77866915D01*
X119757907Y-78435200D01*
X119870946Y-79003485D01*
X119943578Y-79112186D01*
X119357154Y-80038034D01*
X119333116Y-80100332D01*
X119296185Y-80155962D01*
X119293885Y-80161562D01*
X119287037Y-80196535D01*
X119270161Y-80227925D01*
X116454860Y-89428560D01*
X116353601Y-89428560D01*
X116378833Y-89367794D01*
X116379167Y-88985882D01*
X116233323Y-88632914D01*
X115963507Y-88362626D01*
X115610794Y-88216167D01*
X115366440Y-88215953D01*
X115366440Y-88076000D01*
X115322162Y-87840683D01*
X115183090Y-87624559D01*
X114970890Y-87479569D01*
X114719000Y-87428560D01*
X113119000Y-87428560D01*
X112883683Y-87472838D01*
X112667559Y-87611910D01*
X112522569Y-87824110D01*
X112471560Y-88076000D01*
X112471560Y-88876000D01*
X112515838Y-89111317D01*
X112654910Y-89327441D01*
X112821109Y-89441000D01*
X112404750Y-89441000D01*
X112246000Y-89599750D01*
X112246000Y-89928560D01*
X111992000Y-89928560D01*
X111992000Y-89599750D01*
X111833250Y-89441000D01*
X111380236Y-89441000D01*
X108490026Y-80260186D01*
X108474373Y-80231625D01*
X108468115Y-80199662D01*
X108465815Y-80194062D01*
X108428885Y-80138432D01*
X108404846Y-80076134D01*
X107818422Y-79150286D01*
X107891054Y-79041585D01*
X108004093Y-78473300D01*
X107891054Y-77905015D01*
X107569147Y-77423246D01*
X107525223Y-77393897D01*
X107699698Y-77321627D01*
X107878327Y-77142999D01*
X107975000Y-76909610D01*
X107975000Y-76219050D01*
X107816250Y-76060300D01*
X106617000Y-76060300D01*
X106617000Y-76080300D01*
X106363000Y-76080300D01*
X106363000Y-76060300D01*
X105163750Y-76060300D01*
X105005000Y-76219050D01*
X105005000Y-76909610D01*
X105101673Y-77142999D01*
X105280302Y-77321627D01*
X105454777Y-77393897D01*
X105410853Y-77423246D01*
X105088946Y-77905015D01*
X104975907Y-78473300D01*
X100685380Y-78473300D01*
X100593225Y-78010010D01*
X100206286Y-77430914D01*
X99627190Y-77043975D01*
X98944100Y-76908100D01*
X98261010Y-77043975D01*
X97681914Y-77430914D01*
X97294975Y-78010010D01*
X97159100Y-78693100D01*
X96464861Y-78693100D01*
X97457905Y-77206905D01*
X100825141Y-74956990D01*
X105005000Y-74956990D01*
X105005000Y-75647550D01*
X105163750Y-75806300D01*
X106363000Y-75806300D01*
X106363000Y-74607050D01*
X106617000Y-74607050D01*
X106617000Y-75806300D01*
X107816250Y-75806300D01*
X107975000Y-75647550D01*
X107975000Y-74956990D01*
X107878327Y-74723601D01*
X107699698Y-74544973D01*
X107466309Y-74448300D01*
X106775750Y-74448300D01*
X106617000Y-74607050D01*
X106363000Y-74607050D01*
X106204250Y-74448300D01*
X105513691Y-74448300D01*
X105280302Y-74544973D01*
X105101673Y-74723601D01*
X105005000Y-74956990D01*
X100825141Y-74956990D01*
X105021836Y-72152849D01*
X113944100Y-70378100D01*
X122866364Y-72152849D01*
X122866364Y-72152849D01*
G37*
X122866364Y-72152849D02*
X130430295Y-77206905D01*
X135484351Y-84770836D01*
X137259100Y-93693100D01*
X135484351Y-102615364D01*
X130430295Y-110179295D01*
X122866364Y-115233351D01*
X113944100Y-117008100D01*
X105021836Y-115233351D01*
X97457905Y-110179295D01*
X96464862Y-108693100D01*
X97159100Y-108693100D01*
X97294975Y-109376190D01*
X97681914Y-109955286D01*
X98261010Y-110342225D01*
X98944100Y-110478100D01*
X99627190Y-110342225D01*
X100206286Y-109955286D01*
X100593225Y-109376190D01*
X100729100Y-108693100D01*
X100593225Y-108010010D01*
X100206286Y-107430914D01*
X99627190Y-107043975D01*
X98944100Y-106908100D01*
X98261010Y-107043975D01*
X97681914Y-107430914D01*
X97294975Y-108010010D01*
X97159100Y-108693100D01*
X96464862Y-108693100D01*
X92403849Y-102615364D01*
X90895842Y-95034100D01*
X96047307Y-95034100D01*
X96160346Y-95602385D01*
X96482253Y-96084154D01*
X96964022Y-96406061D01*
X97532307Y-96519100D01*
X97590493Y-96519100D01*
X98158778Y-96406061D01*
X98640547Y-96084154D01*
X98962454Y-95602385D01*
X99075493Y-95034100D01*
X98962454Y-94465815D01*
X98640547Y-93984046D01*
X98596623Y-93954697D01*
X98771098Y-93882427D01*
X98949727Y-93703799D01*
X99046400Y-93470410D01*
X99046400Y-92779850D01*
X98887650Y-92621100D01*
X97688400Y-92621100D01*
X97688400Y-92641100D01*
X97434400Y-92641100D01*
X97434400Y-92621100D01*
X96235150Y-92621100D01*
X96076400Y-92779850D01*
X96076400Y-93470410D01*
X96173073Y-93703799D01*
X96351702Y-93882427D01*
X96526177Y-93954697D01*
X96482253Y-93984046D01*
X96160346Y-94465815D01*
X96047307Y-95034100D01*
X90895842Y-95034100D01*
X90629100Y-93693100D01*
X91061796Y-91517790D01*
X96076400Y-91517790D01*
X96076400Y-92208350D01*
X96235150Y-92367100D01*
X97434400Y-92367100D01*
X97434400Y-91167850D01*
X97688400Y-91167850D01*
X97688400Y-92367100D01*
X98887650Y-92367100D01*
X99046400Y-92208350D01*
X99046400Y-91517790D01*
X98949727Y-91284401D01*
X98771098Y-91105773D01*
X98537709Y-91009100D01*
X97847150Y-91009100D01*
X97688400Y-91167850D01*
X97434400Y-91167850D01*
X97275650Y-91009100D01*
X96585091Y-91009100D01*
X96351702Y-91105773D01*
X96173073Y-91284401D01*
X96076400Y-91517790D01*
X91061796Y-91517790D01*
X92403849Y-84770836D01*
X96464861Y-78693100D01*
X97159100Y-78693100D01*
X97294975Y-79376190D01*
X97681914Y-79955286D01*
X98261010Y-80342225D01*
X98944100Y-80478100D01*
X99627190Y-80342225D01*
X100206286Y-79955286D01*
X100593225Y-79376190D01*
X100729100Y-78693100D01*
X100685380Y-78473300D01*
X104975907Y-78473300D01*
X105088946Y-79041585D01*
X105410853Y-79523354D01*
X105740026Y-79743300D01*
X105410853Y-79963246D01*
X105088946Y-80445015D01*
X104975907Y-81013300D01*
X105088946Y-81581585D01*
X105410853Y-82063354D01*
X105740026Y-82283300D01*
X105410853Y-82503246D01*
X105088946Y-82985015D01*
X104975907Y-83553300D01*
X105088946Y-84121585D01*
X105410853Y-84603354D01*
X105740026Y-84823300D01*
X105410853Y-85043246D01*
X105088946Y-85525015D01*
X104975907Y-86093300D01*
X105088946Y-86661585D01*
X105410853Y-87143354D01*
X105740026Y-87363300D01*
X105410853Y-87583246D01*
X105088946Y-88065015D01*
X104975907Y-88633300D01*
X105088946Y-89201585D01*
X105410853Y-89683354D01*
X105740026Y-89903300D01*
X105410853Y-90123246D01*
X105088946Y-90605015D01*
X104975907Y-91173300D01*
X105088946Y-91741585D01*
X105410853Y-92223354D01*
X105740026Y-92443300D01*
X105410853Y-92663246D01*
X105088946Y-93145015D01*
X104975907Y-93713300D01*
X105088946Y-94281585D01*
X105410853Y-94763354D01*
X105740026Y-94983300D01*
X105410853Y-95203246D01*
X105088946Y-95685015D01*
X104975907Y-96253300D01*
X105088946Y-96821585D01*
X105410853Y-97303354D01*
X105740026Y-97523300D01*
X105410853Y-97743246D01*
X105088946Y-98225015D01*
X104975907Y-98793300D01*
X105088946Y-99361585D01*
X105410853Y-99843354D01*
X105740026Y-100063300D01*
X105410853Y-100283246D01*
X105088946Y-100765015D01*
X104975907Y-101333300D01*
X105088946Y-101901585D01*
X105410853Y-102383354D01*
X105740026Y-102603300D01*
X105410853Y-102823246D01*
X105088946Y-103305015D01*
X104975907Y-103873300D01*
X105088946Y-104441585D01*
X105410853Y-104923354D01*
X105740026Y-105143300D01*
X105410853Y-105363246D01*
X105088946Y-105845015D01*
X104975907Y-106413300D01*
X105088946Y-106981585D01*
X105410853Y-107463354D01*
X105740026Y-107683300D01*
X105410853Y-107903246D01*
X105088946Y-108385015D01*
X104975907Y-108953300D01*
X105088946Y-109521585D01*
X105410853Y-110003354D01*
X105740026Y-110223300D01*
X105410853Y-110443246D01*
X105088946Y-110925015D01*
X104975907Y-111493300D01*
X105088946Y-112061585D01*
X105410853Y-112543354D01*
X105892622Y-112865261D01*
X106460907Y-112978300D01*
X106519093Y-112978300D01*
X107087378Y-112865261D01*
X107569147Y-112543354D01*
X107891054Y-112061585D01*
X107940681Y-111812090D01*
X119830524Y-111812090D01*
X120000355Y-112222124D01*
X120390642Y-112650383D01*
X120915108Y-112896686D01*
X121145000Y-112776019D01*
X121145000Y-111582200D01*
X121399000Y-111582200D01*
X121399000Y-112776019D01*
X121628892Y-112896686D01*
X122153358Y-112650383D01*
X122543645Y-112222124D01*
X122713476Y-111812090D01*
X122592155Y-111582200D01*
X121399000Y-111582200D01*
X121145000Y-111582200D01*
X119951845Y-111582200D01*
X119830524Y-111812090D01*
X107940681Y-111812090D01*
X108004093Y-111493300D01*
X107891054Y-110925015D01*
X107569147Y-110443246D01*
X107239974Y-110223300D01*
X107569147Y-110003354D01*
X107891054Y-109521585D01*
X108004093Y-108953300D01*
X107891054Y-108385015D01*
X107818422Y-108276314D01*
X108404846Y-107350466D01*
X108428885Y-107288168D01*
X108465815Y-107232538D01*
X108468115Y-107226938D01*
X108474319Y-107195251D01*
X108489859Y-107166946D01*
X111151317Y-98734375D01*
X111335701Y-98810938D01*
X111707667Y-98811262D01*
X112051443Y-98669217D01*
X112314692Y-98406427D01*
X112457338Y-98062899D01*
X112457372Y-98023440D01*
X112805045Y-98023440D01*
X112667559Y-98111910D01*
X112522569Y-98324110D01*
X112471560Y-98576000D01*
X112471560Y-99376000D01*
X112515838Y-99611317D01*
X112654910Y-99827441D01*
X112867110Y-99972431D01*
X113119000Y-100023440D01*
X114719000Y-100023440D01*
X114954317Y-99979162D01*
X115170441Y-99840090D01*
X115315431Y-99627890D01*
X115366440Y-99376000D01*
X115366440Y-99235911D01*
X115659118Y-99236167D01*
X116012086Y-99090323D01*
X116282374Y-98820507D01*
X116428833Y-98467794D01*
X116429167Y-98085882D01*
X116398226Y-98011000D01*
X116453455Y-98011000D01*
X119270804Y-107124564D01*
X119287248Y-107154940D01*
X119293885Y-107188838D01*
X119296185Y-107194438D01*
X119333116Y-107250068D01*
X119357154Y-107312366D01*
X119943578Y-108238214D01*
X119870946Y-108346915D01*
X119757907Y-108915200D01*
X119870946Y-109483485D01*
X120192853Y-109965254D01*
X120533553Y-110192902D01*
X120390642Y-110260017D01*
X120000355Y-110688276D01*
X119830524Y-111098310D01*
X119951845Y-111328200D01*
X121145000Y-111328200D01*
X121145000Y-111308200D01*
X121399000Y-111308200D01*
X121399000Y-111328200D01*
X122592155Y-111328200D01*
X122713476Y-111098310D01*
X122543645Y-110688276D01*
X122153358Y-110260017D01*
X122010447Y-110192902D01*
X122351147Y-109965254D01*
X122673054Y-109483485D01*
X122786093Y-108915200D01*
X122741915Y-108693100D01*
X127159100Y-108693100D01*
X127294975Y-109376190D01*
X127681914Y-109955286D01*
X128261010Y-110342225D01*
X128944100Y-110478100D01*
X129627190Y-110342225D01*
X130206286Y-109955286D01*
X130593225Y-109376190D01*
X130729100Y-108693100D01*
X130593225Y-108010010D01*
X130206286Y-107430914D01*
X129627190Y-107043975D01*
X128944100Y-106908100D01*
X128261010Y-107043975D01*
X127681914Y-107430914D01*
X127294975Y-108010010D01*
X127159100Y-108693100D01*
X122741915Y-108693100D01*
X122673054Y-108346915D01*
X122351147Y-107865146D01*
X122021974Y-107645200D01*
X122351147Y-107425254D01*
X122673054Y-106943485D01*
X122786093Y-106375200D01*
X122673054Y-105806915D01*
X122351147Y-105325146D01*
X122021974Y-105105200D01*
X122351147Y-104885254D01*
X122673054Y-104403485D01*
X122786093Y-103835200D01*
X122673054Y-103266915D01*
X122351147Y-102785146D01*
X122021974Y-102565200D01*
X122351147Y-102345254D01*
X122673054Y-101863485D01*
X122786093Y-101295200D01*
X122673054Y-100726915D01*
X122351147Y-100245146D01*
X122021974Y-100025200D01*
X122351147Y-99805254D01*
X122673054Y-99323485D01*
X122786093Y-98755200D01*
X122673054Y-98186915D01*
X122351147Y-97705146D01*
X122021974Y-97485200D01*
X122351147Y-97265254D01*
X122673054Y-96783485D01*
X122786093Y-96215200D01*
X122673054Y-95646915D01*
X122351147Y-95165146D01*
X122021974Y-94945200D01*
X122351147Y-94725254D01*
X122673054Y-94243485D01*
X122786093Y-93675200D01*
X122673054Y-93106915D01*
X122351147Y-92625146D01*
X122021974Y-92405200D01*
X122351147Y-92185254D01*
X122673054Y-91703485D01*
X122786093Y-91135200D01*
X122673054Y-90566915D01*
X122351147Y-90085146D01*
X122021974Y-89865200D01*
X122351147Y-89645254D01*
X122673054Y-89163485D01*
X122786093Y-88595200D01*
X122673054Y-88026915D01*
X122351147Y-87545146D01*
X122021974Y-87325200D01*
X122351147Y-87105254D01*
X122673054Y-86623485D01*
X122786093Y-86055200D01*
X122673054Y-85486915D01*
X122351147Y-85005146D01*
X122021974Y-84785200D01*
X122351147Y-84565254D01*
X122673054Y-84083485D01*
X122786093Y-83515200D01*
X122673054Y-82946915D01*
X122351147Y-82465146D01*
X122021974Y-82245200D01*
X122351147Y-82025254D01*
X122673054Y-81543485D01*
X122786093Y-80975200D01*
X122673054Y-80406915D01*
X122351147Y-79925146D01*
X122021974Y-79705200D01*
X122351147Y-79485254D01*
X122673054Y-79003485D01*
X122734793Y-78693100D01*
X127159100Y-78693100D01*
X127294975Y-79376190D01*
X127681914Y-79955286D01*
X128261010Y-80342225D01*
X128944100Y-80478100D01*
X129627190Y-80342225D01*
X130206286Y-79955286D01*
X130593225Y-79376190D01*
X130729100Y-78693100D01*
X130593225Y-78010010D01*
X130206286Y-77430914D01*
X129627190Y-77043975D01*
X128944100Y-76908100D01*
X128261010Y-77043975D01*
X127681914Y-77430914D01*
X127294975Y-78010010D01*
X127159100Y-78693100D01*
X122734793Y-78693100D01*
X122786093Y-78435200D01*
X122673054Y-77866915D01*
X122351147Y-77385146D01*
X122309548Y-77357350D01*
X122357317Y-77348362D01*
X122573441Y-77209290D01*
X122718431Y-76997090D01*
X122769440Y-76745200D01*
X122769440Y-75045200D01*
X122725162Y-74809883D01*
X122586090Y-74593759D01*
X122373890Y-74448769D01*
X122122000Y-74397760D01*
X120422000Y-74397760D01*
X120186683Y-74442038D01*
X119970559Y-74581110D01*
X119825569Y-74793310D01*
X119774560Y-75045200D01*
X119774560Y-76745200D01*
X119818838Y-76980517D01*
X119957910Y-77196641D01*
X120170110Y-77341631D01*
X120237541Y-77355286D01*
X120192853Y-77385146D01*
X119870946Y-77866915D01*
X119757907Y-78435200D01*
X119870946Y-79003485D01*
X119943578Y-79112186D01*
X119357154Y-80038034D01*
X119333116Y-80100332D01*
X119296185Y-80155962D01*
X119293885Y-80161562D01*
X119287037Y-80196535D01*
X119270161Y-80227925D01*
X116454860Y-89428560D01*
X116353601Y-89428560D01*
X116378833Y-89367794D01*
X116379167Y-88985882D01*
X116233323Y-88632914D01*
X115963507Y-88362626D01*
X115610794Y-88216167D01*
X115366440Y-88215953D01*
X115366440Y-88076000D01*
X115322162Y-87840683D01*
X115183090Y-87624559D01*
X114970890Y-87479569D01*
X114719000Y-87428560D01*
X113119000Y-87428560D01*
X112883683Y-87472838D01*
X112667559Y-87611910D01*
X112522569Y-87824110D01*
X112471560Y-88076000D01*
X112471560Y-88876000D01*
X112515838Y-89111317D01*
X112654910Y-89327441D01*
X112821109Y-89441000D01*
X112404750Y-89441000D01*
X112246000Y-89599750D01*
X112246000Y-89928560D01*
X111992000Y-89928560D01*
X111992000Y-89599750D01*
X111833250Y-89441000D01*
X111380236Y-89441000D01*
X108490026Y-80260186D01*
X108474373Y-80231625D01*
X108468115Y-80199662D01*
X108465815Y-80194062D01*
X108428885Y-80138432D01*
X108404846Y-80076134D01*
X107818422Y-79150286D01*
X107891054Y-79041585D01*
X108004093Y-78473300D01*
X107891054Y-77905015D01*
X107569147Y-77423246D01*
X107525223Y-77393897D01*
X107699698Y-77321627D01*
X107878327Y-77142999D01*
X107975000Y-76909610D01*
X107975000Y-76219050D01*
X107816250Y-76060300D01*
X106617000Y-76060300D01*
X106617000Y-76080300D01*
X106363000Y-76080300D01*
X106363000Y-76060300D01*
X105163750Y-76060300D01*
X105005000Y-76219050D01*
X105005000Y-76909610D01*
X105101673Y-77142999D01*
X105280302Y-77321627D01*
X105454777Y-77393897D01*
X105410853Y-77423246D01*
X105088946Y-77905015D01*
X104975907Y-78473300D01*
X100685380Y-78473300D01*
X100593225Y-78010010D01*
X100206286Y-77430914D01*
X99627190Y-77043975D01*
X98944100Y-76908100D01*
X98261010Y-77043975D01*
X97681914Y-77430914D01*
X97294975Y-78010010D01*
X97159100Y-78693100D01*
X96464861Y-78693100D01*
X97457905Y-77206905D01*
X100825141Y-74956990D01*
X105005000Y-74956990D01*
X105005000Y-75647550D01*
X105163750Y-75806300D01*
X106363000Y-75806300D01*
X106363000Y-74607050D01*
X106617000Y-74607050D01*
X106617000Y-75806300D01*
X107816250Y-75806300D01*
X107975000Y-75647550D01*
X107975000Y-74956990D01*
X107878327Y-74723601D01*
X107699698Y-74544973D01*
X107466309Y-74448300D01*
X106775750Y-74448300D01*
X106617000Y-74607050D01*
X106363000Y-74607050D01*
X106204250Y-74448300D01*
X105513691Y-74448300D01*
X105280302Y-74544973D01*
X105101673Y-74723601D01*
X105005000Y-74956990D01*
X100825141Y-74956990D01*
X105021836Y-72152849D01*
X113944100Y-70378100D01*
X122866364Y-72152849D01*
M02*
