G04 #@! TF.FileFunction,Legend,Bot*
%FSLAX46Y46*%
G04 Gerber Fmt 4.6, Leading zero omitted, Abs format (unit mm)*
G04 Created by KiCad (PCBNEW 4.0.7) date 06/27/18 01:28:05*
%MOMM*%
%LPD*%
G01*
G04 APERTURE LIST*
%ADD10C,0.100000*%
%ADD11C,0.010000*%
%ADD12C,0.254000*%
%ADD13R,2.100000X2.100000*%
%ADD14O,2.100000X2.100000*%
%ADD15R,2.000000X1.200000*%
%ADD16R,2.000000X0.700000*%
%ADD17C,1.050000*%
G04 APERTURE END LIST*
D10*
X112119000Y-89726000D02*
X112119000Y-88926000D01*
X112119000Y-88926000D02*
X115719000Y-88926000D01*
X115719000Y-88926000D02*
X115719000Y-89726000D01*
X112119000Y-97726000D02*
X112119000Y-98526000D01*
X112119000Y-98526000D02*
X115719000Y-98526000D01*
X115719000Y-98526000D02*
X115719000Y-97726000D01*
D11*
G36*
X113622272Y-69599323D02*
X113347559Y-69601747D01*
X113091775Y-69605628D01*
X112863640Y-69610965D01*
X112671873Y-69617760D01*
X112571427Y-69622924D01*
X111447376Y-69715258D01*
X110341241Y-69855067D01*
X109252212Y-70042552D01*
X108179475Y-70277912D01*
X107122221Y-70561346D01*
X106079637Y-70893055D01*
X105050912Y-71273238D01*
X104035235Y-71702094D01*
X103939495Y-71745328D01*
X102957799Y-72218968D01*
X101998897Y-72737415D01*
X101064419Y-73299237D01*
X100155997Y-73903003D01*
X99275260Y-74547281D01*
X98423841Y-75230640D01*
X97603371Y-75951648D01*
X96815479Y-76708875D01*
X96061797Y-77500889D01*
X95343955Y-78326257D01*
X94663586Y-79183550D01*
X94022319Y-80071336D01*
X93437838Y-80962436D01*
X93097709Y-81528040D01*
X92759973Y-82129924D01*
X92430787Y-82755731D01*
X92116305Y-83393102D01*
X91822682Y-84029677D01*
X91556075Y-84653099D01*
X91386410Y-85081355D01*
X91015729Y-86122830D01*
X90693477Y-87178785D01*
X90419905Y-88247437D01*
X90195263Y-89327004D01*
X90019799Y-90415701D01*
X89893764Y-91511747D01*
X89817406Y-92613358D01*
X89790977Y-93718752D01*
X89814725Y-94826145D01*
X89880342Y-95836310D01*
X89999577Y-96932151D01*
X90167719Y-98015942D01*
X90383959Y-99086315D01*
X90647490Y-100141904D01*
X90957501Y-101181340D01*
X91313185Y-102203258D01*
X91713732Y-103206289D01*
X92158334Y-104189068D01*
X92646183Y-105150226D01*
X93176468Y-106088397D01*
X93748383Y-107002213D01*
X94361118Y-107890308D01*
X95013864Y-108751314D01*
X95705813Y-109583865D01*
X96436155Y-110386593D01*
X97204083Y-111158131D01*
X98008788Y-111897111D01*
X98849460Y-112602168D01*
X99725291Y-113271933D01*
X100525728Y-113831896D01*
X101459214Y-114427397D01*
X102414213Y-114976937D01*
X103389888Y-115480229D01*
X104385402Y-115936988D01*
X105399917Y-116346930D01*
X106432598Y-116709767D01*
X107482607Y-117025215D01*
X108549106Y-117292988D01*
X109631260Y-117512800D01*
X110728231Y-117684365D01*
X111839182Y-117807399D01*
X112279035Y-117842377D01*
X112436968Y-117851836D01*
X112632616Y-117860813D01*
X112857423Y-117869140D01*
X113102832Y-117876647D01*
X113360287Y-117883166D01*
X113621231Y-117888528D01*
X113877106Y-117892564D01*
X114119358Y-117895105D01*
X114339428Y-117895982D01*
X114528760Y-117895026D01*
X114678798Y-117892068D01*
X114719876Y-117890554D01*
X115564998Y-117843582D01*
X116369901Y-117777036D01*
X117141639Y-117690068D01*
X117887272Y-117581830D01*
X118613854Y-117451472D01*
X118953209Y-117381803D01*
X120044145Y-117123232D01*
X121114540Y-116818171D01*
X122163995Y-116466817D01*
X123192114Y-116069371D01*
X124198498Y-115626032D01*
X125182750Y-115137000D01*
X126144470Y-114602475D01*
X127083263Y-114022656D01*
X127998729Y-113397742D01*
X128890470Y-112727933D01*
X129758090Y-112013429D01*
X129898855Y-111891295D01*
X130210871Y-111610825D01*
X130544012Y-111297204D01*
X130890095Y-110958836D01*
X131240937Y-110604126D01*
X131588353Y-110241477D01*
X131924161Y-109879294D01*
X132240178Y-109525980D01*
X132522004Y-109197371D01*
X133196577Y-108351928D01*
X133832343Y-107474720D01*
X134428229Y-106568071D01*
X134983165Y-105634305D01*
X135110946Y-105395500D01*
X130229817Y-105395500D01*
X130201947Y-105593121D01*
X130148496Y-105794674D01*
X130088852Y-105948520D01*
X129993323Y-106113793D01*
X129866144Y-106267467D01*
X129718449Y-106399129D01*
X129561369Y-106498370D01*
X129453910Y-106542322D01*
X129418340Y-106545547D01*
X129336195Y-106548483D01*
X129211750Y-106551093D01*
X129049282Y-106553342D01*
X128853066Y-106555194D01*
X128627376Y-106556614D01*
X128376489Y-106557566D01*
X128104680Y-106558016D01*
X127816225Y-106557927D01*
X127618961Y-106557556D01*
X125847577Y-106553127D01*
X125781547Y-106491086D01*
X125707633Y-106391578D01*
X125677748Y-106279058D01*
X125694620Y-106164695D01*
X125699050Y-106153432D01*
X125713116Y-106118111D01*
X125726085Y-106087599D01*
X125741560Y-106061519D01*
X125763142Y-106039492D01*
X125794434Y-106021141D01*
X125839035Y-106006089D01*
X125900550Y-105993957D01*
X125982579Y-105984369D01*
X126088724Y-105976946D01*
X126222587Y-105971312D01*
X126387770Y-105967087D01*
X126587875Y-105963896D01*
X126826504Y-105961360D01*
X127107258Y-105959102D01*
X127433739Y-105956744D01*
X127585879Y-105955629D01*
X129292416Y-105942917D01*
X129400516Y-105871360D01*
X129511383Y-105769606D01*
X129586006Y-105634407D01*
X129625035Y-105464284D01*
X129631639Y-105342857D01*
X129631218Y-105333671D01*
X125201353Y-105333671D01*
X125197822Y-105422949D01*
X125154895Y-105672338D01*
X125074390Y-105901965D01*
X124960114Y-106106465D01*
X124815876Y-106280476D01*
X124645482Y-106418633D01*
X124452739Y-106515575D01*
X124412403Y-106529369D01*
X124378366Y-106536970D01*
X124325903Y-106543329D01*
X124251313Y-106548518D01*
X124150901Y-106552604D01*
X124020966Y-106555659D01*
X123857810Y-106557752D01*
X123657736Y-106558952D01*
X123417045Y-106559329D01*
X123132037Y-106558952D01*
X122881437Y-106558198D01*
X121457614Y-106553127D01*
X121311547Y-106479145D01*
X121132777Y-106361725D01*
X121062996Y-106292778D01*
X120173753Y-106292778D01*
X120169711Y-106331608D01*
X120156609Y-106367612D01*
X120136586Y-106404582D01*
X120135363Y-106406657D01*
X120055479Y-106502067D01*
X119955011Y-106551186D01*
X119849469Y-106557058D01*
X119771518Y-106542617D01*
X119710688Y-106519483D01*
X119699944Y-106512237D01*
X119676402Y-106485279D01*
X119625638Y-106421915D01*
X119550944Y-106326421D01*
X119455614Y-106203070D01*
X119342938Y-106056135D01*
X119216209Y-105889889D01*
X119078720Y-105708608D01*
X118970863Y-105565802D01*
X118827032Y-105376151D01*
X118690795Y-105198656D01*
X118565529Y-105037564D01*
X118454609Y-104897120D01*
X118361412Y-104781569D01*
X118289314Y-104695158D01*
X118241692Y-104642131D01*
X118224142Y-104626857D01*
X118151376Y-104613779D01*
X118100921Y-104629125D01*
X118070741Y-104656321D01*
X118013303Y-104721435D01*
X117931189Y-104821210D01*
X117826976Y-104952387D01*
X117703247Y-105111708D01*
X117562579Y-105295914D01*
X117407554Y-105501747D01*
X117365749Y-105557686D01*
X117223499Y-105747473D01*
X117088402Y-105926089D01*
X116963925Y-106089067D01*
X116853536Y-106231938D01*
X116760701Y-106350236D01*
X116688887Y-106439494D01*
X116641562Y-106495243D01*
X116625519Y-106511440D01*
X116531089Y-106556605D01*
X116458973Y-106565839D01*
X116356151Y-106543334D01*
X116266435Y-106483577D01*
X116198767Y-106398206D01*
X116162091Y-106298859D01*
X116165348Y-106197176D01*
X116168192Y-106187399D01*
X116186707Y-106156304D01*
X116232390Y-106089668D01*
X116301581Y-105992391D01*
X116390620Y-105869369D01*
X116495845Y-105725504D01*
X116613596Y-105565692D01*
X116740213Y-105394834D01*
X116777013Y-105345419D01*
X115679684Y-105345419D01*
X115654263Y-105609526D01*
X115582803Y-105855848D01*
X115467033Y-106080399D01*
X115308676Y-106279192D01*
X115251182Y-106334988D01*
X115205217Y-106377585D01*
X115164459Y-106414558D01*
X115125143Y-106446295D01*
X115083504Y-106473182D01*
X115035776Y-106495607D01*
X114978195Y-106513955D01*
X114906994Y-106528613D01*
X114818409Y-106539968D01*
X114708673Y-106548407D01*
X114574022Y-106554316D01*
X114410691Y-106558082D01*
X114214914Y-106560091D01*
X113982925Y-106560731D01*
X113710959Y-106560387D01*
X113395251Y-106559447D01*
X113075239Y-106558424D01*
X111303476Y-106553127D01*
X111225856Y-106478753D01*
X111156203Y-106381048D01*
X111130298Y-106271807D01*
X111147122Y-106162766D01*
X111205653Y-106065660D01*
X111266222Y-106014081D01*
X111282680Y-106005017D01*
X111304895Y-105997166D01*
X111336582Y-105990408D01*
X111381452Y-105984620D01*
X111443220Y-105979680D01*
X111525598Y-105975465D01*
X111632300Y-105971853D01*
X111767039Y-105968723D01*
X111933528Y-105965952D01*
X112135481Y-105963418D01*
X112376610Y-105960998D01*
X112660628Y-105958571D01*
X112991250Y-105956015D01*
X113042851Y-105955629D01*
X114749703Y-105942917D01*
X114851075Y-105872647D01*
X114928927Y-105804037D01*
X114998723Y-105719146D01*
X115014139Y-105694669D01*
X115043299Y-105637572D01*
X115061616Y-105580394D01*
X115071507Y-105508964D01*
X115075385Y-105409110D01*
X115075832Y-105332706D01*
X115068564Y-105162524D01*
X115057319Y-105102759D01*
X110661220Y-105102759D01*
X110659644Y-105388084D01*
X110657551Y-105636111D01*
X110655473Y-105838401D01*
X110653111Y-106000067D01*
X110650165Y-106126223D01*
X110646334Y-106221982D01*
X110641319Y-106292457D01*
X110634820Y-106342761D01*
X110626538Y-106378008D01*
X110616171Y-106403310D01*
X110603421Y-106423781D01*
X110598506Y-106430527D01*
X110505853Y-106518825D01*
X110397255Y-106561127D01*
X110280055Y-106555622D01*
X110206031Y-106527271D01*
X110150859Y-106492070D01*
X110110585Y-106446709D01*
X110083001Y-106383264D01*
X110065903Y-106293812D01*
X110057083Y-106170429D01*
X110054337Y-106005192D01*
X110054310Y-105982317D01*
X110054310Y-105625099D01*
X106876132Y-105625099D01*
X106876132Y-106368419D01*
X106774147Y-106470404D01*
X106712468Y-106528547D01*
X106665535Y-106557104D01*
X106613766Y-106564005D01*
X106554938Y-106559176D01*
X106451715Y-106533774D01*
X106368694Y-106476667D01*
X106358174Y-106466447D01*
X106278635Y-106386930D01*
X106274353Y-105781481D01*
X103084763Y-105781481D01*
X103084094Y-105965155D01*
X103081460Y-106112127D01*
X103076356Y-106227113D01*
X103068275Y-106314830D01*
X103056714Y-106379994D01*
X103041166Y-106427319D01*
X103021125Y-106461522D01*
X102996086Y-106487319D01*
X102965544Y-106509426D01*
X102949930Y-106519389D01*
X102850115Y-106555488D01*
X102738557Y-106555296D01*
X102635463Y-106520593D01*
X102589937Y-106487674D01*
X102561886Y-106458681D01*
X102538786Y-106426074D01*
X102520209Y-106384975D01*
X102505728Y-106330507D01*
X102494913Y-106257793D01*
X102487337Y-106161954D01*
X102482573Y-106038113D01*
X102480191Y-105881393D01*
X102479764Y-105686915D01*
X102480864Y-105449803D01*
X102482273Y-105260807D01*
X102484617Y-104970568D01*
X102016620Y-104970568D01*
X102016605Y-105150159D01*
X102015394Y-105372472D01*
X102014469Y-105492660D01*
X102007163Y-106383826D01*
X101943600Y-106452188D01*
X101841550Y-106531510D01*
X101730200Y-106564422D01*
X101617081Y-106549497D01*
X101563231Y-106524255D01*
X101520194Y-106497025D01*
X101486039Y-106467901D01*
X101459717Y-106430974D01*
X101440175Y-106380336D01*
X101426364Y-106310079D01*
X101417231Y-106214292D01*
X101411727Y-106087067D01*
X101408799Y-105922496D01*
X101407398Y-105714669D01*
X101407131Y-105646601D01*
X101405831Y-105460466D01*
X101403449Y-105288455D01*
X101400182Y-105137892D01*
X101396224Y-105016102D01*
X101391770Y-104930412D01*
X101387015Y-104888144D01*
X101386947Y-104887895D01*
X101358699Y-104836895D01*
X101326936Y-104816307D01*
X101316582Y-104814460D01*
X101305262Y-104814344D01*
X101289836Y-104817791D01*
X101267168Y-104826633D01*
X101234121Y-104842700D01*
X101187555Y-104867824D01*
X101124335Y-104903837D01*
X101041321Y-104952569D01*
X100935378Y-105015853D01*
X100803366Y-105095520D01*
X100642149Y-105193401D01*
X100448588Y-105311328D01*
X100219547Y-105451131D01*
X99951887Y-105614643D01*
X99795151Y-105710411D01*
X99563490Y-105851689D01*
X99342287Y-105986074D01*
X99135797Y-106111016D01*
X98948272Y-106223964D01*
X98783967Y-106322370D01*
X98647134Y-106403684D01*
X98542027Y-106465356D01*
X98472900Y-106504836D01*
X98447604Y-106518177D01*
X98297224Y-106560772D01*
X98143312Y-106558035D01*
X97995883Y-106513647D01*
X97864955Y-106431288D01*
X97760543Y-106314639D01*
X97725262Y-106252738D01*
X97711440Y-106222225D01*
X97700245Y-106189979D01*
X97691403Y-106150562D01*
X97684635Y-106098540D01*
X97679666Y-106028476D01*
X97676219Y-105934935D01*
X97674018Y-105812482D01*
X97672787Y-105655679D01*
X97672249Y-105459092D01*
X97672128Y-105217284D01*
X97672128Y-104272466D01*
X97758575Y-104186020D01*
X97823283Y-104130148D01*
X97884702Y-104105020D01*
X97960027Y-104099573D01*
X98081042Y-104122707D01*
X98178573Y-104187830D01*
X98244140Y-104288520D01*
X98256027Y-104323680D01*
X98263329Y-104375473D01*
X98269769Y-104471000D01*
X98275110Y-104603148D01*
X98279115Y-104764803D01*
X98281545Y-104948853D01*
X98282196Y-105107121D01*
X98282347Y-105328604D01*
X98283622Y-105503790D01*
X98287407Y-105637233D01*
X98295090Y-105733485D01*
X98308056Y-105797101D01*
X98327693Y-105832633D01*
X98355387Y-105844634D01*
X98392524Y-105837659D01*
X98440491Y-105816261D01*
X98490268Y-105790417D01*
X98536262Y-105764446D01*
X98621203Y-105714502D01*
X98740707Y-105643230D01*
X98890395Y-105553276D01*
X99065882Y-105447284D01*
X99262789Y-105327900D01*
X99476732Y-105197768D01*
X99703330Y-105059533D01*
X99869929Y-104957651D01*
X100101669Y-104816055D01*
X100322956Y-104681360D01*
X100529543Y-104556116D01*
X100717182Y-104442875D01*
X100881626Y-104344187D01*
X101018628Y-104262604D01*
X101123941Y-104200677D01*
X101193318Y-104160956D01*
X101218975Y-104147381D01*
X101336099Y-104112873D01*
X101471946Y-104101442D01*
X101602675Y-104113757D01*
X101673269Y-104134667D01*
X101779371Y-104200813D01*
X101878210Y-104300584D01*
X101954930Y-104417322D01*
X101981550Y-104480391D01*
X101992481Y-104519824D01*
X102001138Y-104568786D01*
X102007700Y-104632809D01*
X102012348Y-104717426D01*
X102015261Y-104828168D01*
X102016620Y-104970568D01*
X102484617Y-104970568D01*
X102490246Y-104273591D01*
X102585218Y-104186582D01*
X102692712Y-104116335D01*
X102804725Y-104094564D01*
X102914727Y-104121474D01*
X102991997Y-104173743D01*
X103075031Y-104247913D01*
X103082228Y-105285167D01*
X103083972Y-105556391D01*
X103084763Y-105781481D01*
X106274353Y-105781481D01*
X106271440Y-105369631D01*
X106270802Y-105269196D01*
X105791748Y-105269196D01*
X105789158Y-105375091D01*
X105746310Y-105480685D01*
X105670612Y-105567962D01*
X105668077Y-105569979D01*
X105648570Y-105584356D01*
X105626844Y-105595988D01*
X105597653Y-105605164D01*
X105555750Y-105612177D01*
X105495888Y-105617316D01*
X105412822Y-105620873D01*
X105301305Y-105623139D01*
X105156089Y-105624404D01*
X104971930Y-105624960D01*
X104743581Y-105625096D01*
X104673805Y-105625099D01*
X103749607Y-105625099D01*
X103669663Y-105553669D01*
X103603692Y-105465141D01*
X103572964Y-105358606D01*
X103579370Y-105250261D01*
X103623446Y-105158004D01*
X103655018Y-105120555D01*
X103688225Y-105090271D01*
X103728564Y-105066393D01*
X103781529Y-105048162D01*
X103852618Y-105034821D01*
X103947326Y-105025609D01*
X104071149Y-105019769D01*
X104229583Y-105016541D01*
X104428124Y-105015168D01*
X104660125Y-105014889D01*
X104862052Y-105015387D01*
X105050760Y-105016799D01*
X105219393Y-105019001D01*
X105361097Y-105021867D01*
X105469019Y-105025274D01*
X105536303Y-105029098D01*
X105552360Y-105031085D01*
X105644821Y-105071670D01*
X105726950Y-105145403D01*
X105781813Y-105235441D01*
X105791748Y-105269196D01*
X106270802Y-105269196D01*
X106269801Y-105111845D01*
X106268983Y-104899901D01*
X106269146Y-104728793D01*
X106270449Y-104593515D01*
X106273051Y-104489062D01*
X106277112Y-104410430D01*
X106282790Y-104352612D01*
X106290246Y-104310603D01*
X106299638Y-104279399D01*
X106306651Y-104262971D01*
X106375637Y-104171534D01*
X106472132Y-104116177D01*
X106584660Y-104100329D01*
X106701745Y-104127418D01*
X106724412Y-104138142D01*
X106780409Y-104174138D01*
X106821066Y-104220849D01*
X106848675Y-104286315D01*
X106865527Y-104378577D01*
X106873915Y-104505675D01*
X106876132Y-104670383D01*
X106876132Y-105014889D01*
X110050647Y-105014889D01*
X110067023Y-104247829D01*
X110150057Y-104173701D01*
X110250493Y-104113932D01*
X110359043Y-104097901D01*
X110464687Y-104122230D01*
X110556409Y-104183542D01*
X110623192Y-104278460D01*
X110640116Y-104323919D01*
X110648257Y-104380358D01*
X110654448Y-104487035D01*
X110658680Y-104643378D01*
X110660941Y-104848811D01*
X110661220Y-105102759D01*
X115057319Y-105102759D01*
X115043909Y-105031498D01*
X114997589Y-104929652D01*
X114925324Y-104847009D01*
X114840839Y-104784747D01*
X114722633Y-104709783D01*
X113081314Y-104709642D01*
X112717081Y-104709191D01*
X112391815Y-104707921D01*
X112107168Y-104705858D01*
X111864790Y-104703026D01*
X111666334Y-104699450D01*
X111513452Y-104695155D01*
X111407793Y-104690167D01*
X111351010Y-104684510D01*
X111345807Y-104683340D01*
X111241880Y-104630773D01*
X111169587Y-104546198D01*
X111133929Y-104440931D01*
X111139907Y-104326283D01*
X111161379Y-104266190D01*
X111175943Y-104234477D01*
X111189791Y-104207024D01*
X111206471Y-104183539D01*
X111229535Y-104163729D01*
X111262533Y-104147301D01*
X111309015Y-104133962D01*
X111372530Y-104123421D01*
X111456630Y-104115384D01*
X111564864Y-104109558D01*
X111700783Y-104105651D01*
X111867936Y-104103370D01*
X112069873Y-104102423D01*
X112310146Y-104102517D01*
X112592304Y-104103359D01*
X112919897Y-104104656D01*
X113111438Y-104105421D01*
X114872428Y-104112286D01*
X115019089Y-104181012D01*
X115200121Y-104293001D01*
X115358181Y-104445035D01*
X115489207Y-104629956D01*
X115589139Y-104840604D01*
X115653914Y-105069820D01*
X115679471Y-105310446D01*
X115679684Y-105345419D01*
X116777013Y-105345419D01*
X116872035Y-105217827D01*
X117005402Y-105039572D01*
X117136653Y-104864966D01*
X117262127Y-104698908D01*
X117378164Y-104546298D01*
X117481103Y-104412034D01*
X117567285Y-104301015D01*
X117633047Y-104218140D01*
X117674730Y-104168307D01*
X117684597Y-104158022D01*
X117822222Y-104065385D01*
X117984996Y-104008297D01*
X118160128Y-103988452D01*
X118334827Y-104007541D01*
X118470126Y-104054069D01*
X118559241Y-104100937D01*
X118639543Y-104150940D01*
X118677724Y-104179866D01*
X118706445Y-104212124D01*
X118761942Y-104280990D01*
X118840876Y-104382095D01*
X118939912Y-104511070D01*
X119055711Y-104663548D01*
X119184937Y-104835159D01*
X119324253Y-105021535D01*
X119449810Y-105190594D01*
X119623481Y-105425463D01*
X119768856Y-105623385D01*
X119888074Y-105788150D01*
X119983270Y-105923551D01*
X120056584Y-106033378D01*
X120110152Y-106121423D01*
X120146111Y-106191477D01*
X120166599Y-106247332D01*
X120173753Y-106292778D01*
X121062996Y-106292778D01*
X120972697Y-106203560D01*
X120837904Y-106013299D01*
X120734993Y-105799589D01*
X120692256Y-105667339D01*
X120667957Y-105527227D01*
X120658562Y-105359940D01*
X120663968Y-105186886D01*
X120684068Y-105029476D01*
X120695644Y-104977807D01*
X120767592Y-104777189D01*
X120873040Y-104585806D01*
X121004027Y-104414146D01*
X121152595Y-104272697D01*
X121305061Y-104174725D01*
X121432188Y-104112286D01*
X124406963Y-104112286D01*
X124534090Y-104174604D01*
X124661720Y-104255501D01*
X124793497Y-104370219D01*
X124915999Y-104504862D01*
X125015801Y-104645530D01*
X125051053Y-104709783D01*
X125131331Y-104912484D01*
X125182680Y-105126517D01*
X125201353Y-105333671D01*
X129631218Y-105333671D01*
X129624363Y-105184358D01*
X129599435Y-105059932D01*
X129552905Y-104954678D01*
X129512648Y-104894091D01*
X129488870Y-104861295D01*
X129467259Y-104832972D01*
X129444109Y-104808767D01*
X129415717Y-104788327D01*
X129378379Y-104771296D01*
X129328389Y-104757321D01*
X129262044Y-104746048D01*
X129175639Y-104737123D01*
X129065470Y-104730190D01*
X128927832Y-104724897D01*
X128759022Y-104720888D01*
X128555334Y-104717810D01*
X128313065Y-104715308D01*
X128028510Y-104713028D01*
X127697965Y-104710617D01*
X127585141Y-104709783D01*
X127239768Y-104707284D01*
X126941612Y-104705062D01*
X126687042Y-104702741D01*
X126472428Y-104699945D01*
X126294140Y-104696300D01*
X126148549Y-104691429D01*
X126032023Y-104684957D01*
X125940933Y-104676509D01*
X125871649Y-104665709D01*
X125820540Y-104652182D01*
X125783976Y-104635551D01*
X125758328Y-104615442D01*
X125739965Y-104591478D01*
X125725256Y-104563286D01*
X125710573Y-104530488D01*
X125703484Y-104515132D01*
X125672817Y-104400995D01*
X125692366Y-104294418D01*
X125761956Y-104196156D01*
X125782360Y-104177132D01*
X125872197Y-104098254D01*
X129441197Y-104112286D01*
X129568324Y-104179947D01*
X129768552Y-104314630D01*
X129937254Y-104486670D01*
X130071409Y-104691312D01*
X130167999Y-104923805D01*
X130224003Y-105179396D01*
X130228719Y-105219460D01*
X130229817Y-105395500D01*
X135110946Y-105395500D01*
X135496077Y-104675744D01*
X135965892Y-103694712D01*
X136391538Y-102693532D01*
X136771944Y-101674528D01*
X137106035Y-100640021D01*
X137392741Y-99592337D01*
X137630987Y-98533797D01*
X137756440Y-97858163D01*
X137858431Y-97215151D01*
X137940906Y-96593134D01*
X138004731Y-95980505D01*
X138050775Y-95365656D01*
X138079904Y-94736978D01*
X138092985Y-94082864D01*
X138090886Y-93391706D01*
X138090767Y-93382756D01*
X138080039Y-92854568D01*
X138061993Y-92364633D01*
X138035639Y-91900750D01*
X137999991Y-91450716D01*
X137954062Y-91002329D01*
X137896864Y-90543389D01*
X137827410Y-90061693D01*
X137816144Y-89988462D01*
X137623735Y-88911122D01*
X137383241Y-87848431D01*
X137095659Y-86801755D01*
X136761988Y-85772460D01*
X136383228Y-84761911D01*
X135960377Y-83771474D01*
X135821614Y-83482905D01*
X124619517Y-83482905D01*
X124616759Y-83691925D01*
X124599617Y-83872795D01*
X124598488Y-83879995D01*
X124516805Y-84235416D01*
X124390640Y-84569842D01*
X124222967Y-84879985D01*
X124016760Y-85162558D01*
X123774994Y-85414271D01*
X123500643Y-85631836D01*
X123196682Y-85811966D01*
X122866086Y-85951371D01*
X122671623Y-86010111D01*
X122332759Y-86072848D01*
X121987778Y-86087375D01*
X121642745Y-86054851D01*
X121303728Y-85976436D01*
X120976791Y-85853289D01*
X120668000Y-85686571D01*
X120544820Y-85603577D01*
X120457886Y-85542642D01*
X120386079Y-85494980D01*
X120339521Y-85467177D01*
X120328301Y-85462736D01*
X120302013Y-85473440D01*
X120234467Y-85504124D01*
X120130195Y-85552647D01*
X119993726Y-85616870D01*
X119829591Y-85694652D01*
X119642320Y-85783852D01*
X119436444Y-85882331D01*
X119216493Y-85987947D01*
X119207881Y-85992090D01*
X118946431Y-86118221D01*
X118727417Y-86224718D01*
X118547213Y-86313491D01*
X118402194Y-86386451D01*
X118288736Y-86445509D01*
X118203213Y-86492574D01*
X118142000Y-86529558D01*
X118101471Y-86558371D01*
X118078001Y-86580924D01*
X118071146Y-86591167D01*
X118054497Y-86632592D01*
X118047254Y-86683290D01*
X118049179Y-86755611D01*
X118060034Y-86861904D01*
X118065126Y-86903286D01*
X118079987Y-87079933D01*
X118085819Y-87289016D01*
X118083194Y-87515592D01*
X118072682Y-87744719D01*
X118054856Y-87961455D01*
X118030287Y-88150857D01*
X118014069Y-88238139D01*
X117902871Y-88649955D01*
X117748815Y-89054703D01*
X117557248Y-89439952D01*
X117363709Y-89750339D01*
X117298014Y-89847413D01*
X117244746Y-89930293D01*
X117209791Y-89989538D01*
X117198855Y-90014725D01*
X117214512Y-90037809D01*
X117259299Y-90096074D01*
X117329936Y-90185511D01*
X117423147Y-90302115D01*
X117535654Y-90441879D01*
X117664178Y-90600796D01*
X117805441Y-90774859D01*
X117956166Y-90960062D01*
X118113074Y-91152398D01*
X118272888Y-91347860D01*
X118432330Y-91542441D01*
X118588121Y-91732136D01*
X118736984Y-91912936D01*
X118875641Y-92080836D01*
X119000814Y-92231829D01*
X119109224Y-92361908D01*
X119197595Y-92467066D01*
X119262647Y-92543297D01*
X119301104Y-92586594D01*
X119309787Y-92594953D01*
X119344121Y-92595706D01*
X119414784Y-92584612D01*
X119509235Y-92563863D01*
X119557230Y-92551677D01*
X119651555Y-92528601D01*
X119739493Y-92512408D01*
X119833415Y-92501985D01*
X119945693Y-92496219D01*
X120088697Y-92493996D01*
X120199055Y-92493911D01*
X120369216Y-92495407D01*
X120500839Y-92499692D01*
X120606209Y-92507905D01*
X120697611Y-92521189D01*
X120787333Y-92540683D01*
X120834691Y-92552924D01*
X121000217Y-92605720D01*
X121183859Y-92678013D01*
X121367704Y-92761762D01*
X121533843Y-92848929D01*
X121640123Y-92914462D01*
X121743454Y-92993523D01*
X121866014Y-93100896D01*
X121995803Y-93224760D01*
X122120821Y-93353296D01*
X122229069Y-93474682D01*
X122299020Y-93563532D01*
X122483591Y-93862931D01*
X122622769Y-94179616D01*
X122716929Y-94508706D01*
X122766442Y-94845324D01*
X122771684Y-95184591D01*
X122733028Y-95521628D01*
X122650848Y-95851557D01*
X122525516Y-96169498D01*
X122357408Y-96470572D01*
X122146896Y-96749902D01*
X122046616Y-96858857D01*
X121773814Y-97103800D01*
X121478272Y-97303502D01*
X121161791Y-97457259D01*
X120826173Y-97564364D01*
X120473218Y-97624114D01*
X120104729Y-97635805D01*
X120064541Y-97634184D01*
X119701828Y-97593054D01*
X119358543Y-97504953D01*
X119035299Y-97370153D01*
X118732704Y-97188925D01*
X118451372Y-96961537D01*
X118370711Y-96883862D01*
X118131832Y-96610234D01*
X117936835Y-96314031D01*
X117786397Y-95999459D01*
X117681197Y-95670723D01*
X117621913Y-95332030D01*
X117609222Y-94987584D01*
X117643802Y-94641591D01*
X117726332Y-94298257D01*
X117857490Y-93961788D01*
X117889129Y-93896659D01*
X117937079Y-93797676D01*
X117962981Y-93732369D01*
X117969764Y-93690117D01*
X117960351Y-93660301D01*
X117956029Y-93653846D01*
X117934541Y-93626782D01*
X117883582Y-93563891D01*
X117805976Y-93468623D01*
X117704546Y-93344430D01*
X117582117Y-93194764D01*
X117441512Y-93023075D01*
X117285554Y-92832815D01*
X117117068Y-92627437D01*
X116938878Y-92410390D01*
X116894671Y-92356567D01*
X116661668Y-92073642D01*
X116459319Y-91829535D01*
X116286715Y-91623191D01*
X116142951Y-91453558D01*
X116027117Y-91319581D01*
X115938308Y-91220206D01*
X115875616Y-91154381D01*
X115838133Y-91121050D01*
X115826803Y-91116328D01*
X115788760Y-91130383D01*
X115714587Y-91159430D01*
X115615196Y-91199147D01*
X115508064Y-91242539D01*
X115359650Y-91298610D01*
X115190932Y-91355522D01*
X115027925Y-91404750D01*
X114948705Y-91425815D01*
X114835287Y-91455923D01*
X114740468Y-91484855D01*
X114675027Y-91509079D01*
X114650345Y-91523621D01*
X114647573Y-91552791D01*
X114645030Y-91628851D01*
X114642714Y-91747842D01*
X114640627Y-91905803D01*
X114638767Y-92098774D01*
X114637134Y-92322796D01*
X114635728Y-92573908D01*
X114634549Y-92848151D01*
X114633596Y-93141565D01*
X114632870Y-93450189D01*
X114632369Y-93770063D01*
X114632093Y-94097228D01*
X114632043Y-94427724D01*
X114632217Y-94757591D01*
X114632616Y-95082868D01*
X114633239Y-95399596D01*
X114634086Y-95703814D01*
X114635156Y-95991564D01*
X114636449Y-96258884D01*
X114637966Y-96501815D01*
X114639705Y-96716397D01*
X114641667Y-96898670D01*
X114643850Y-97044673D01*
X114646255Y-97150448D01*
X114648881Y-97212033D01*
X114650792Y-97226647D01*
X114684457Y-97251334D01*
X114749584Y-97281500D01*
X114796599Y-97298680D01*
X115107992Y-97427983D01*
X115401562Y-97601558D01*
X115671957Y-97814382D01*
X115913825Y-98061429D01*
X116121817Y-98337675D01*
X116290580Y-98638094D01*
X116338923Y-98746900D01*
X116409147Y-98927633D01*
X116459755Y-99089666D01*
X116493572Y-99248215D01*
X116513424Y-99418493D01*
X116522138Y-99615716D01*
X116523207Y-99739113D01*
X116522017Y-99908211D01*
X116517698Y-100038868D01*
X116509132Y-100143453D01*
X116495195Y-100234337D01*
X116474769Y-100323889D01*
X116467860Y-100349944D01*
X116347851Y-100701787D01*
X116187092Y-101027469D01*
X115988330Y-101323925D01*
X115754311Y-101588090D01*
X115487784Y-101816898D01*
X115191494Y-102007285D01*
X114868189Y-102156185D01*
X114839547Y-102166831D01*
X114670139Y-102225030D01*
X114521263Y-102266339D01*
X114377918Y-102293021D01*
X114225101Y-102307340D01*
X114047813Y-102311559D01*
X113893549Y-102309543D01*
X113713364Y-102303543D01*
X113571133Y-102293941D01*
X113454008Y-102279344D01*
X113349142Y-102258358D01*
X113296052Y-102244693D01*
X112954991Y-102125029D01*
X112635382Y-101959639D01*
X112339998Y-101750090D01*
X112193088Y-101620594D01*
X111946688Y-101358187D01*
X111746650Y-101080213D01*
X111589650Y-100780662D01*
X111472364Y-100453524D01*
X111413296Y-100210755D01*
X111393780Y-100097196D01*
X111382509Y-99982392D01*
X111378690Y-99851239D01*
X111381530Y-99688632D01*
X111383286Y-99638683D01*
X111403632Y-99365951D01*
X111445174Y-99123569D01*
X111512022Y-98893989D01*
X111608286Y-98659668D01*
X111617020Y-98640961D01*
X111785235Y-98341298D01*
X111994997Y-98064303D01*
X112240190Y-97815728D01*
X112514699Y-97601328D01*
X112812409Y-97426853D01*
X112993311Y-97346215D01*
X113232488Y-97251551D01*
X113232488Y-94383664D01*
X113232456Y-93939955D01*
X113232331Y-93544325D01*
X113232070Y-93194001D01*
X113231630Y-92886211D01*
X113230970Y-92618183D01*
X113230046Y-92387144D01*
X113228815Y-92190323D01*
X113227236Y-92024947D01*
X113225265Y-91888243D01*
X113222859Y-91777440D01*
X113219976Y-91689765D01*
X113216574Y-91622446D01*
X113212609Y-91572710D01*
X113208039Y-91537786D01*
X113202821Y-91514901D01*
X113196913Y-91501283D01*
X113190272Y-91494160D01*
X113187994Y-91492803D01*
X113134427Y-91473427D01*
X113058616Y-91454747D01*
X113041798Y-91451528D01*
X112932229Y-91426128D01*
X112791211Y-91385258D01*
X112633824Y-91333967D01*
X112475147Y-91277303D01*
X112330260Y-91220312D01*
X112260296Y-91189922D01*
X112161527Y-91146618D01*
X112097184Y-91123890D01*
X112056382Y-91119230D01*
X112028238Y-91130131D01*
X112021904Y-91134994D01*
X112000233Y-91159249D01*
X111949940Y-91218907D01*
X111874388Y-91309840D01*
X111776941Y-91427919D01*
X111660960Y-91569014D01*
X111529810Y-91728999D01*
X111386854Y-91903744D01*
X111235455Y-92089121D01*
X111078975Y-92281001D01*
X110920779Y-92475255D01*
X110764228Y-92667755D01*
X110612688Y-92854373D01*
X110469519Y-93030980D01*
X110338087Y-93193447D01*
X110221754Y-93337646D01*
X110123882Y-93459448D01*
X110047836Y-93554725D01*
X109996978Y-93619348D01*
X109980237Y-93641306D01*
X109925080Y-93715910D01*
X110026162Y-93918002D01*
X110162294Y-94244517D01*
X110250456Y-94579153D01*
X110291978Y-94917556D01*
X110288186Y-95255373D01*
X110240408Y-95588251D01*
X110149974Y-95911837D01*
X110018210Y-96221778D01*
X109846444Y-96513721D01*
X109636006Y-96783312D01*
X109388223Y-97026200D01*
X109104422Y-97238029D01*
X108992382Y-97306606D01*
X108678555Y-97459484D01*
X108348386Y-97566523D01*
X108007443Y-97627774D01*
X107661297Y-97643285D01*
X107315516Y-97613106D01*
X106975670Y-97537285D01*
X106647329Y-97415873D01*
X106392702Y-97283591D01*
X106108639Y-97086475D01*
X105855439Y-96853438D01*
X105635690Y-96589703D01*
X105451976Y-96300491D01*
X105306882Y-95991024D01*
X105202993Y-95666525D01*
X105142896Y-95332216D01*
X105129174Y-94993317D01*
X105147059Y-94767474D01*
X105217780Y-94410018D01*
X105333690Y-94072708D01*
X105492086Y-93758603D01*
X105690262Y-93470762D01*
X105925515Y-93212243D01*
X106195139Y-92986105D01*
X106496432Y-92795407D01*
X106826688Y-92643207D01*
X107105522Y-92552409D01*
X107295094Y-92515080D01*
X107516251Y-92493988D01*
X107752389Y-92489132D01*
X107986905Y-92500514D01*
X108203193Y-92528133D01*
X108316794Y-92552368D01*
X108422572Y-92577505D01*
X108512377Y-92595398D01*
X108573053Y-92603588D01*
X108588620Y-92603219D01*
X108612211Y-92582109D01*
X108664078Y-92525206D01*
X108740933Y-92436571D01*
X108839488Y-92320263D01*
X108956457Y-92180344D01*
X109088553Y-92020872D01*
X109232486Y-91845909D01*
X109384971Y-91659514D01*
X109542720Y-91465748D01*
X109702446Y-91268671D01*
X109860861Y-91072343D01*
X110014678Y-90880825D01*
X110160609Y-90698176D01*
X110295368Y-90528458D01*
X110415667Y-90375729D01*
X110518218Y-90244051D01*
X110599734Y-90137484D01*
X110656928Y-90060088D01*
X110686513Y-90015923D01*
X110689946Y-90007851D01*
X110675530Y-89966504D01*
X110637517Y-89898969D01*
X110583759Y-89819017D01*
X110576925Y-89809651D01*
X110342557Y-89449014D01*
X110148734Y-89061101D01*
X109996830Y-88651061D01*
X109888217Y-88224043D01*
X109824270Y-87785197D01*
X109806360Y-87339670D01*
X109825211Y-86991074D01*
X109838123Y-86845044D01*
X109844237Y-86740566D01*
X109843566Y-86668801D01*
X109836122Y-86620906D01*
X109825779Y-86594723D01*
X109803842Y-86573136D01*
X109753548Y-86539619D01*
X109672393Y-86492865D01*
X109557872Y-86431570D01*
X109407480Y-86354429D01*
X109218714Y-86260136D01*
X108989068Y-86147385D01*
X108716038Y-86014871D01*
X108678262Y-85996625D01*
X107562558Y-85457968D01*
X107388485Y-85587014D01*
X107092391Y-85775926D01*
X106776642Y-85920737D01*
X106446526Y-86021288D01*
X106107329Y-86077420D01*
X105764339Y-86088975D01*
X105422844Y-86055796D01*
X105088132Y-85977724D01*
X104765489Y-85854601D01*
X104460204Y-85686270D01*
X104443111Y-85675096D01*
X104313918Y-85578882D01*
X104168941Y-85453042D01*
X104020856Y-85310092D01*
X103882341Y-85162546D01*
X103766072Y-85022918D01*
X103723465Y-84964672D01*
X103544922Y-84663437D01*
X103411547Y-84345311D01*
X103322983Y-84015313D01*
X103278869Y-83678464D01*
X103278846Y-83339786D01*
X103322556Y-83004299D01*
X103409638Y-82677025D01*
X103539734Y-82362983D01*
X103712484Y-82067194D01*
X103927529Y-81794681D01*
X103952208Y-81767983D01*
X104152833Y-81570516D01*
X104353728Y-81409000D01*
X104571325Y-81271174D01*
X104727684Y-81189373D01*
X105057349Y-81055093D01*
X105393871Y-80968979D01*
X105733006Y-80929577D01*
X106070511Y-80935427D01*
X106402144Y-80985073D01*
X106723662Y-81077058D01*
X107030821Y-81209924D01*
X107319379Y-81382214D01*
X107585093Y-81592471D01*
X107823721Y-81839238D01*
X108031019Y-82121057D01*
X108172271Y-82372440D01*
X108269708Y-82591699D01*
X108341907Y-82807419D01*
X108393393Y-83036416D01*
X108428692Y-83295503D01*
X108433251Y-83342060D01*
X108461961Y-83649512D01*
X109553366Y-84174743D01*
X109807830Y-84296442D01*
X110037908Y-84404953D01*
X110240314Y-84498797D01*
X110411765Y-84576494D01*
X110548975Y-84636565D01*
X110648659Y-84677529D01*
X110707533Y-84697908D01*
X110719458Y-84699974D01*
X110756970Y-84693194D01*
X110803001Y-84669597D01*
X110864080Y-84624297D01*
X110946732Y-84552408D01*
X111057488Y-84449044D01*
X111067659Y-84439363D01*
X111339261Y-84197123D01*
X111607703Y-83993083D01*
X111886584Y-83817432D01*
X112057256Y-83725320D01*
X112479029Y-83537282D01*
X112909463Y-83398218D01*
X113345391Y-83307645D01*
X113783648Y-83265081D01*
X114221068Y-83270043D01*
X114654484Y-83322047D01*
X115080731Y-83420612D01*
X115496642Y-83565254D01*
X115899052Y-83755492D01*
X116284794Y-83990842D01*
X116650703Y-84270822D01*
X116856200Y-84456936D01*
X116948771Y-84542865D01*
X117033317Y-84615549D01*
X117100641Y-84667456D01*
X117141546Y-84691050D01*
X117142198Y-84691224D01*
X117200676Y-84689833D01*
X117281727Y-84668694D01*
X117320176Y-84653766D01*
X117380156Y-84626631D01*
X117476555Y-84581563D01*
X117603562Y-84521378D01*
X117755371Y-84448892D01*
X117926174Y-84366921D01*
X118110163Y-84278282D01*
X118301529Y-84185790D01*
X118494466Y-84092262D01*
X118683165Y-84000513D01*
X118861818Y-83913361D01*
X119024617Y-83833620D01*
X119165755Y-83764108D01*
X119279424Y-83707639D01*
X119359815Y-83667031D01*
X119401122Y-83645100D01*
X119403803Y-83643455D01*
X119433434Y-83618875D01*
X119450885Y-83584819D01*
X119459330Y-83528514D01*
X119461941Y-83437190D01*
X119462052Y-83409047D01*
X119467982Y-83287379D01*
X119483369Y-83143981D01*
X119505130Y-83006404D01*
X119509729Y-82983206D01*
X119605654Y-82640914D01*
X119746141Y-82319155D01*
X119927838Y-82021439D01*
X120147387Y-81751280D01*
X120401436Y-81512189D01*
X120686630Y-81307677D01*
X120999613Y-81141256D01*
X121337031Y-81016438D01*
X121407360Y-80996720D01*
X121517719Y-80969119D01*
X121614458Y-80950141D01*
X121712133Y-80938240D01*
X121825301Y-80931873D01*
X121968518Y-80929492D01*
X122042398Y-80929310D01*
X122203582Y-80930494D01*
X122328374Y-80935051D01*
X122431203Y-80944489D01*
X122526492Y-80960316D01*
X122628670Y-80984040D01*
X122670554Y-80994974D01*
X123021218Y-81113429D01*
X123344841Y-81273684D01*
X123638788Y-81473096D01*
X123900423Y-81709021D01*
X124127110Y-81978814D01*
X124316215Y-82279831D01*
X124465101Y-82609428D01*
X124550784Y-82881435D01*
X124585601Y-83058212D01*
X124608822Y-83265185D01*
X124619517Y-83482905D01*
X135821614Y-83482905D01*
X135494435Y-82802513D01*
X134986399Y-81856396D01*
X134437268Y-80934486D01*
X133848043Y-80038149D01*
X133219720Y-79168751D01*
X132553300Y-78327657D01*
X131849781Y-77516234D01*
X131110161Y-76735845D01*
X130335441Y-75987857D01*
X129526618Y-75273635D01*
X128684691Y-74594545D01*
X127810660Y-73951952D01*
X126905522Y-73347221D01*
X125970278Y-72781718D01*
X125005925Y-72256809D01*
X124750521Y-72127136D01*
X123751087Y-71654876D01*
X122737822Y-71231256D01*
X121710168Y-70856129D01*
X120667564Y-70529345D01*
X119609453Y-70250755D01*
X118535276Y-70020211D01*
X117444473Y-69837565D01*
X116336486Y-69702667D01*
X115342799Y-69623092D01*
X115179741Y-69615335D01*
X114974572Y-69609031D01*
X114736014Y-69604181D01*
X114472784Y-69600784D01*
X114193604Y-69598842D01*
X113907194Y-69598355D01*
X113622272Y-69599323D01*
X113622272Y-69599323D01*
G37*
X113622272Y-69599323D02*
X113347559Y-69601747D01*
X113091775Y-69605628D01*
X112863640Y-69610965D01*
X112671873Y-69617760D01*
X112571427Y-69622924D01*
X111447376Y-69715258D01*
X110341241Y-69855067D01*
X109252212Y-70042552D01*
X108179475Y-70277912D01*
X107122221Y-70561346D01*
X106079637Y-70893055D01*
X105050912Y-71273238D01*
X104035235Y-71702094D01*
X103939495Y-71745328D01*
X102957799Y-72218968D01*
X101998897Y-72737415D01*
X101064419Y-73299237D01*
X100155997Y-73903003D01*
X99275260Y-74547281D01*
X98423841Y-75230640D01*
X97603371Y-75951648D01*
X96815479Y-76708875D01*
X96061797Y-77500889D01*
X95343955Y-78326257D01*
X94663586Y-79183550D01*
X94022319Y-80071336D01*
X93437838Y-80962436D01*
X93097709Y-81528040D01*
X92759973Y-82129924D01*
X92430787Y-82755731D01*
X92116305Y-83393102D01*
X91822682Y-84029677D01*
X91556075Y-84653099D01*
X91386410Y-85081355D01*
X91015729Y-86122830D01*
X90693477Y-87178785D01*
X90419905Y-88247437D01*
X90195263Y-89327004D01*
X90019799Y-90415701D01*
X89893764Y-91511747D01*
X89817406Y-92613358D01*
X89790977Y-93718752D01*
X89814725Y-94826145D01*
X89880342Y-95836310D01*
X89999577Y-96932151D01*
X90167719Y-98015942D01*
X90383959Y-99086315D01*
X90647490Y-100141904D01*
X90957501Y-101181340D01*
X91313185Y-102203258D01*
X91713732Y-103206289D01*
X92158334Y-104189068D01*
X92646183Y-105150226D01*
X93176468Y-106088397D01*
X93748383Y-107002213D01*
X94361118Y-107890308D01*
X95013864Y-108751314D01*
X95705813Y-109583865D01*
X96436155Y-110386593D01*
X97204083Y-111158131D01*
X98008788Y-111897111D01*
X98849460Y-112602168D01*
X99725291Y-113271933D01*
X100525728Y-113831896D01*
X101459214Y-114427397D01*
X102414213Y-114976937D01*
X103389888Y-115480229D01*
X104385402Y-115936988D01*
X105399917Y-116346930D01*
X106432598Y-116709767D01*
X107482607Y-117025215D01*
X108549106Y-117292988D01*
X109631260Y-117512800D01*
X110728231Y-117684365D01*
X111839182Y-117807399D01*
X112279035Y-117842377D01*
X112436968Y-117851836D01*
X112632616Y-117860813D01*
X112857423Y-117869140D01*
X113102832Y-117876647D01*
X113360287Y-117883166D01*
X113621231Y-117888528D01*
X113877106Y-117892564D01*
X114119358Y-117895105D01*
X114339428Y-117895982D01*
X114528760Y-117895026D01*
X114678798Y-117892068D01*
X114719876Y-117890554D01*
X115564998Y-117843582D01*
X116369901Y-117777036D01*
X117141639Y-117690068D01*
X117887272Y-117581830D01*
X118613854Y-117451472D01*
X118953209Y-117381803D01*
X120044145Y-117123232D01*
X121114540Y-116818171D01*
X122163995Y-116466817D01*
X123192114Y-116069371D01*
X124198498Y-115626032D01*
X125182750Y-115137000D01*
X126144470Y-114602475D01*
X127083263Y-114022656D01*
X127998729Y-113397742D01*
X128890470Y-112727933D01*
X129758090Y-112013429D01*
X129898855Y-111891295D01*
X130210871Y-111610825D01*
X130544012Y-111297204D01*
X130890095Y-110958836D01*
X131240937Y-110604126D01*
X131588353Y-110241477D01*
X131924161Y-109879294D01*
X132240178Y-109525980D01*
X132522004Y-109197371D01*
X133196577Y-108351928D01*
X133832343Y-107474720D01*
X134428229Y-106568071D01*
X134983165Y-105634305D01*
X135110946Y-105395500D01*
X130229817Y-105395500D01*
X130201947Y-105593121D01*
X130148496Y-105794674D01*
X130088852Y-105948520D01*
X129993323Y-106113793D01*
X129866144Y-106267467D01*
X129718449Y-106399129D01*
X129561369Y-106498370D01*
X129453910Y-106542322D01*
X129418340Y-106545547D01*
X129336195Y-106548483D01*
X129211750Y-106551093D01*
X129049282Y-106553342D01*
X128853066Y-106555194D01*
X128627376Y-106556614D01*
X128376489Y-106557566D01*
X128104680Y-106558016D01*
X127816225Y-106557927D01*
X127618961Y-106557556D01*
X125847577Y-106553127D01*
X125781547Y-106491086D01*
X125707633Y-106391578D01*
X125677748Y-106279058D01*
X125694620Y-106164695D01*
X125699050Y-106153432D01*
X125713116Y-106118111D01*
X125726085Y-106087599D01*
X125741560Y-106061519D01*
X125763142Y-106039492D01*
X125794434Y-106021141D01*
X125839035Y-106006089D01*
X125900550Y-105993957D01*
X125982579Y-105984369D01*
X126088724Y-105976946D01*
X126222587Y-105971312D01*
X126387770Y-105967087D01*
X126587875Y-105963896D01*
X126826504Y-105961360D01*
X127107258Y-105959102D01*
X127433739Y-105956744D01*
X127585879Y-105955629D01*
X129292416Y-105942917D01*
X129400516Y-105871360D01*
X129511383Y-105769606D01*
X129586006Y-105634407D01*
X129625035Y-105464284D01*
X129631639Y-105342857D01*
X129631218Y-105333671D01*
X125201353Y-105333671D01*
X125197822Y-105422949D01*
X125154895Y-105672338D01*
X125074390Y-105901965D01*
X124960114Y-106106465D01*
X124815876Y-106280476D01*
X124645482Y-106418633D01*
X124452739Y-106515575D01*
X124412403Y-106529369D01*
X124378366Y-106536970D01*
X124325903Y-106543329D01*
X124251313Y-106548518D01*
X124150901Y-106552604D01*
X124020966Y-106555659D01*
X123857810Y-106557752D01*
X123657736Y-106558952D01*
X123417045Y-106559329D01*
X123132037Y-106558952D01*
X122881437Y-106558198D01*
X121457614Y-106553127D01*
X121311547Y-106479145D01*
X121132777Y-106361725D01*
X121062996Y-106292778D01*
X120173753Y-106292778D01*
X120169711Y-106331608D01*
X120156609Y-106367612D01*
X120136586Y-106404582D01*
X120135363Y-106406657D01*
X120055479Y-106502067D01*
X119955011Y-106551186D01*
X119849469Y-106557058D01*
X119771518Y-106542617D01*
X119710688Y-106519483D01*
X119699944Y-106512237D01*
X119676402Y-106485279D01*
X119625638Y-106421915D01*
X119550944Y-106326421D01*
X119455614Y-106203070D01*
X119342938Y-106056135D01*
X119216209Y-105889889D01*
X119078720Y-105708608D01*
X118970863Y-105565802D01*
X118827032Y-105376151D01*
X118690795Y-105198656D01*
X118565529Y-105037564D01*
X118454609Y-104897120D01*
X118361412Y-104781569D01*
X118289314Y-104695158D01*
X118241692Y-104642131D01*
X118224142Y-104626857D01*
X118151376Y-104613779D01*
X118100921Y-104629125D01*
X118070741Y-104656321D01*
X118013303Y-104721435D01*
X117931189Y-104821210D01*
X117826976Y-104952387D01*
X117703247Y-105111708D01*
X117562579Y-105295914D01*
X117407554Y-105501747D01*
X117365749Y-105557686D01*
X117223499Y-105747473D01*
X117088402Y-105926089D01*
X116963925Y-106089067D01*
X116853536Y-106231938D01*
X116760701Y-106350236D01*
X116688887Y-106439494D01*
X116641562Y-106495243D01*
X116625519Y-106511440D01*
X116531089Y-106556605D01*
X116458973Y-106565839D01*
X116356151Y-106543334D01*
X116266435Y-106483577D01*
X116198767Y-106398206D01*
X116162091Y-106298859D01*
X116165348Y-106197176D01*
X116168192Y-106187399D01*
X116186707Y-106156304D01*
X116232390Y-106089668D01*
X116301581Y-105992391D01*
X116390620Y-105869369D01*
X116495845Y-105725504D01*
X116613596Y-105565692D01*
X116740213Y-105394834D01*
X116777013Y-105345419D01*
X115679684Y-105345419D01*
X115654263Y-105609526D01*
X115582803Y-105855848D01*
X115467033Y-106080399D01*
X115308676Y-106279192D01*
X115251182Y-106334988D01*
X115205217Y-106377585D01*
X115164459Y-106414558D01*
X115125143Y-106446295D01*
X115083504Y-106473182D01*
X115035776Y-106495607D01*
X114978195Y-106513955D01*
X114906994Y-106528613D01*
X114818409Y-106539968D01*
X114708673Y-106548407D01*
X114574022Y-106554316D01*
X114410691Y-106558082D01*
X114214914Y-106560091D01*
X113982925Y-106560731D01*
X113710959Y-106560387D01*
X113395251Y-106559447D01*
X113075239Y-106558424D01*
X111303476Y-106553127D01*
X111225856Y-106478753D01*
X111156203Y-106381048D01*
X111130298Y-106271807D01*
X111147122Y-106162766D01*
X111205653Y-106065660D01*
X111266222Y-106014081D01*
X111282680Y-106005017D01*
X111304895Y-105997166D01*
X111336582Y-105990408D01*
X111381452Y-105984620D01*
X111443220Y-105979680D01*
X111525598Y-105975465D01*
X111632300Y-105971853D01*
X111767039Y-105968723D01*
X111933528Y-105965952D01*
X112135481Y-105963418D01*
X112376610Y-105960998D01*
X112660628Y-105958571D01*
X112991250Y-105956015D01*
X113042851Y-105955629D01*
X114749703Y-105942917D01*
X114851075Y-105872647D01*
X114928927Y-105804037D01*
X114998723Y-105719146D01*
X115014139Y-105694669D01*
X115043299Y-105637572D01*
X115061616Y-105580394D01*
X115071507Y-105508964D01*
X115075385Y-105409110D01*
X115075832Y-105332706D01*
X115068564Y-105162524D01*
X115057319Y-105102759D01*
X110661220Y-105102759D01*
X110659644Y-105388084D01*
X110657551Y-105636111D01*
X110655473Y-105838401D01*
X110653111Y-106000067D01*
X110650165Y-106126223D01*
X110646334Y-106221982D01*
X110641319Y-106292457D01*
X110634820Y-106342761D01*
X110626538Y-106378008D01*
X110616171Y-106403310D01*
X110603421Y-106423781D01*
X110598506Y-106430527D01*
X110505853Y-106518825D01*
X110397255Y-106561127D01*
X110280055Y-106555622D01*
X110206031Y-106527271D01*
X110150859Y-106492070D01*
X110110585Y-106446709D01*
X110083001Y-106383264D01*
X110065903Y-106293812D01*
X110057083Y-106170429D01*
X110054337Y-106005192D01*
X110054310Y-105982317D01*
X110054310Y-105625099D01*
X106876132Y-105625099D01*
X106876132Y-106368419D01*
X106774147Y-106470404D01*
X106712468Y-106528547D01*
X106665535Y-106557104D01*
X106613766Y-106564005D01*
X106554938Y-106559176D01*
X106451715Y-106533774D01*
X106368694Y-106476667D01*
X106358174Y-106466447D01*
X106278635Y-106386930D01*
X106274353Y-105781481D01*
X103084763Y-105781481D01*
X103084094Y-105965155D01*
X103081460Y-106112127D01*
X103076356Y-106227113D01*
X103068275Y-106314830D01*
X103056714Y-106379994D01*
X103041166Y-106427319D01*
X103021125Y-106461522D01*
X102996086Y-106487319D01*
X102965544Y-106509426D01*
X102949930Y-106519389D01*
X102850115Y-106555488D01*
X102738557Y-106555296D01*
X102635463Y-106520593D01*
X102589937Y-106487674D01*
X102561886Y-106458681D01*
X102538786Y-106426074D01*
X102520209Y-106384975D01*
X102505728Y-106330507D01*
X102494913Y-106257793D01*
X102487337Y-106161954D01*
X102482573Y-106038113D01*
X102480191Y-105881393D01*
X102479764Y-105686915D01*
X102480864Y-105449803D01*
X102482273Y-105260807D01*
X102484617Y-104970568D01*
X102016620Y-104970568D01*
X102016605Y-105150159D01*
X102015394Y-105372472D01*
X102014469Y-105492660D01*
X102007163Y-106383826D01*
X101943600Y-106452188D01*
X101841550Y-106531510D01*
X101730200Y-106564422D01*
X101617081Y-106549497D01*
X101563231Y-106524255D01*
X101520194Y-106497025D01*
X101486039Y-106467901D01*
X101459717Y-106430974D01*
X101440175Y-106380336D01*
X101426364Y-106310079D01*
X101417231Y-106214292D01*
X101411727Y-106087067D01*
X101408799Y-105922496D01*
X101407398Y-105714669D01*
X101407131Y-105646601D01*
X101405831Y-105460466D01*
X101403449Y-105288455D01*
X101400182Y-105137892D01*
X101396224Y-105016102D01*
X101391770Y-104930412D01*
X101387015Y-104888144D01*
X101386947Y-104887895D01*
X101358699Y-104836895D01*
X101326936Y-104816307D01*
X101316582Y-104814460D01*
X101305262Y-104814344D01*
X101289836Y-104817791D01*
X101267168Y-104826633D01*
X101234121Y-104842700D01*
X101187555Y-104867824D01*
X101124335Y-104903837D01*
X101041321Y-104952569D01*
X100935378Y-105015853D01*
X100803366Y-105095520D01*
X100642149Y-105193401D01*
X100448588Y-105311328D01*
X100219547Y-105451131D01*
X99951887Y-105614643D01*
X99795151Y-105710411D01*
X99563490Y-105851689D01*
X99342287Y-105986074D01*
X99135797Y-106111016D01*
X98948272Y-106223964D01*
X98783967Y-106322370D01*
X98647134Y-106403684D01*
X98542027Y-106465356D01*
X98472900Y-106504836D01*
X98447604Y-106518177D01*
X98297224Y-106560772D01*
X98143312Y-106558035D01*
X97995883Y-106513647D01*
X97864955Y-106431288D01*
X97760543Y-106314639D01*
X97725262Y-106252738D01*
X97711440Y-106222225D01*
X97700245Y-106189979D01*
X97691403Y-106150562D01*
X97684635Y-106098540D01*
X97679666Y-106028476D01*
X97676219Y-105934935D01*
X97674018Y-105812482D01*
X97672787Y-105655679D01*
X97672249Y-105459092D01*
X97672128Y-105217284D01*
X97672128Y-104272466D01*
X97758575Y-104186020D01*
X97823283Y-104130148D01*
X97884702Y-104105020D01*
X97960027Y-104099573D01*
X98081042Y-104122707D01*
X98178573Y-104187830D01*
X98244140Y-104288520D01*
X98256027Y-104323680D01*
X98263329Y-104375473D01*
X98269769Y-104471000D01*
X98275110Y-104603148D01*
X98279115Y-104764803D01*
X98281545Y-104948853D01*
X98282196Y-105107121D01*
X98282347Y-105328604D01*
X98283622Y-105503790D01*
X98287407Y-105637233D01*
X98295090Y-105733485D01*
X98308056Y-105797101D01*
X98327693Y-105832633D01*
X98355387Y-105844634D01*
X98392524Y-105837659D01*
X98440491Y-105816261D01*
X98490268Y-105790417D01*
X98536262Y-105764446D01*
X98621203Y-105714502D01*
X98740707Y-105643230D01*
X98890395Y-105553276D01*
X99065882Y-105447284D01*
X99262789Y-105327900D01*
X99476732Y-105197768D01*
X99703330Y-105059533D01*
X99869929Y-104957651D01*
X100101669Y-104816055D01*
X100322956Y-104681360D01*
X100529543Y-104556116D01*
X100717182Y-104442875D01*
X100881626Y-104344187D01*
X101018628Y-104262604D01*
X101123941Y-104200677D01*
X101193318Y-104160956D01*
X101218975Y-104147381D01*
X101336099Y-104112873D01*
X101471946Y-104101442D01*
X101602675Y-104113757D01*
X101673269Y-104134667D01*
X101779371Y-104200813D01*
X101878210Y-104300584D01*
X101954930Y-104417322D01*
X101981550Y-104480391D01*
X101992481Y-104519824D01*
X102001138Y-104568786D01*
X102007700Y-104632809D01*
X102012348Y-104717426D01*
X102015261Y-104828168D01*
X102016620Y-104970568D01*
X102484617Y-104970568D01*
X102490246Y-104273591D01*
X102585218Y-104186582D01*
X102692712Y-104116335D01*
X102804725Y-104094564D01*
X102914727Y-104121474D01*
X102991997Y-104173743D01*
X103075031Y-104247913D01*
X103082228Y-105285167D01*
X103083972Y-105556391D01*
X103084763Y-105781481D01*
X106274353Y-105781481D01*
X106271440Y-105369631D01*
X106270802Y-105269196D01*
X105791748Y-105269196D01*
X105789158Y-105375091D01*
X105746310Y-105480685D01*
X105670612Y-105567962D01*
X105668077Y-105569979D01*
X105648570Y-105584356D01*
X105626844Y-105595988D01*
X105597653Y-105605164D01*
X105555750Y-105612177D01*
X105495888Y-105617316D01*
X105412822Y-105620873D01*
X105301305Y-105623139D01*
X105156089Y-105624404D01*
X104971930Y-105624960D01*
X104743581Y-105625096D01*
X104673805Y-105625099D01*
X103749607Y-105625099D01*
X103669663Y-105553669D01*
X103603692Y-105465141D01*
X103572964Y-105358606D01*
X103579370Y-105250261D01*
X103623446Y-105158004D01*
X103655018Y-105120555D01*
X103688225Y-105090271D01*
X103728564Y-105066393D01*
X103781529Y-105048162D01*
X103852618Y-105034821D01*
X103947326Y-105025609D01*
X104071149Y-105019769D01*
X104229583Y-105016541D01*
X104428124Y-105015168D01*
X104660125Y-105014889D01*
X104862052Y-105015387D01*
X105050760Y-105016799D01*
X105219393Y-105019001D01*
X105361097Y-105021867D01*
X105469019Y-105025274D01*
X105536303Y-105029098D01*
X105552360Y-105031085D01*
X105644821Y-105071670D01*
X105726950Y-105145403D01*
X105781813Y-105235441D01*
X105791748Y-105269196D01*
X106270802Y-105269196D01*
X106269801Y-105111845D01*
X106268983Y-104899901D01*
X106269146Y-104728793D01*
X106270449Y-104593515D01*
X106273051Y-104489062D01*
X106277112Y-104410430D01*
X106282790Y-104352612D01*
X106290246Y-104310603D01*
X106299638Y-104279399D01*
X106306651Y-104262971D01*
X106375637Y-104171534D01*
X106472132Y-104116177D01*
X106584660Y-104100329D01*
X106701745Y-104127418D01*
X106724412Y-104138142D01*
X106780409Y-104174138D01*
X106821066Y-104220849D01*
X106848675Y-104286315D01*
X106865527Y-104378577D01*
X106873915Y-104505675D01*
X106876132Y-104670383D01*
X106876132Y-105014889D01*
X110050647Y-105014889D01*
X110067023Y-104247829D01*
X110150057Y-104173701D01*
X110250493Y-104113932D01*
X110359043Y-104097901D01*
X110464687Y-104122230D01*
X110556409Y-104183542D01*
X110623192Y-104278460D01*
X110640116Y-104323919D01*
X110648257Y-104380358D01*
X110654448Y-104487035D01*
X110658680Y-104643378D01*
X110660941Y-104848811D01*
X110661220Y-105102759D01*
X115057319Y-105102759D01*
X115043909Y-105031498D01*
X114997589Y-104929652D01*
X114925324Y-104847009D01*
X114840839Y-104784747D01*
X114722633Y-104709783D01*
X113081314Y-104709642D01*
X112717081Y-104709191D01*
X112391815Y-104707921D01*
X112107168Y-104705858D01*
X111864790Y-104703026D01*
X111666334Y-104699450D01*
X111513452Y-104695155D01*
X111407793Y-104690167D01*
X111351010Y-104684510D01*
X111345807Y-104683340D01*
X111241880Y-104630773D01*
X111169587Y-104546198D01*
X111133929Y-104440931D01*
X111139907Y-104326283D01*
X111161379Y-104266190D01*
X111175943Y-104234477D01*
X111189791Y-104207024D01*
X111206471Y-104183539D01*
X111229535Y-104163729D01*
X111262533Y-104147301D01*
X111309015Y-104133962D01*
X111372530Y-104123421D01*
X111456630Y-104115384D01*
X111564864Y-104109558D01*
X111700783Y-104105651D01*
X111867936Y-104103370D01*
X112069873Y-104102423D01*
X112310146Y-104102517D01*
X112592304Y-104103359D01*
X112919897Y-104104656D01*
X113111438Y-104105421D01*
X114872428Y-104112286D01*
X115019089Y-104181012D01*
X115200121Y-104293001D01*
X115358181Y-104445035D01*
X115489207Y-104629956D01*
X115589139Y-104840604D01*
X115653914Y-105069820D01*
X115679471Y-105310446D01*
X115679684Y-105345419D01*
X116777013Y-105345419D01*
X116872035Y-105217827D01*
X117005402Y-105039572D01*
X117136653Y-104864966D01*
X117262127Y-104698908D01*
X117378164Y-104546298D01*
X117481103Y-104412034D01*
X117567285Y-104301015D01*
X117633047Y-104218140D01*
X117674730Y-104168307D01*
X117684597Y-104158022D01*
X117822222Y-104065385D01*
X117984996Y-104008297D01*
X118160128Y-103988452D01*
X118334827Y-104007541D01*
X118470126Y-104054069D01*
X118559241Y-104100937D01*
X118639543Y-104150940D01*
X118677724Y-104179866D01*
X118706445Y-104212124D01*
X118761942Y-104280990D01*
X118840876Y-104382095D01*
X118939912Y-104511070D01*
X119055711Y-104663548D01*
X119184937Y-104835159D01*
X119324253Y-105021535D01*
X119449810Y-105190594D01*
X119623481Y-105425463D01*
X119768856Y-105623385D01*
X119888074Y-105788150D01*
X119983270Y-105923551D01*
X120056584Y-106033378D01*
X120110152Y-106121423D01*
X120146111Y-106191477D01*
X120166599Y-106247332D01*
X120173753Y-106292778D01*
X121062996Y-106292778D01*
X120972697Y-106203560D01*
X120837904Y-106013299D01*
X120734993Y-105799589D01*
X120692256Y-105667339D01*
X120667957Y-105527227D01*
X120658562Y-105359940D01*
X120663968Y-105186886D01*
X120684068Y-105029476D01*
X120695644Y-104977807D01*
X120767592Y-104777189D01*
X120873040Y-104585806D01*
X121004027Y-104414146D01*
X121152595Y-104272697D01*
X121305061Y-104174725D01*
X121432188Y-104112286D01*
X124406963Y-104112286D01*
X124534090Y-104174604D01*
X124661720Y-104255501D01*
X124793497Y-104370219D01*
X124915999Y-104504862D01*
X125015801Y-104645530D01*
X125051053Y-104709783D01*
X125131331Y-104912484D01*
X125182680Y-105126517D01*
X125201353Y-105333671D01*
X129631218Y-105333671D01*
X129624363Y-105184358D01*
X129599435Y-105059932D01*
X129552905Y-104954678D01*
X129512648Y-104894091D01*
X129488870Y-104861295D01*
X129467259Y-104832972D01*
X129444109Y-104808767D01*
X129415717Y-104788327D01*
X129378379Y-104771296D01*
X129328389Y-104757321D01*
X129262044Y-104746048D01*
X129175639Y-104737123D01*
X129065470Y-104730190D01*
X128927832Y-104724897D01*
X128759022Y-104720888D01*
X128555334Y-104717810D01*
X128313065Y-104715308D01*
X128028510Y-104713028D01*
X127697965Y-104710617D01*
X127585141Y-104709783D01*
X127239768Y-104707284D01*
X126941612Y-104705062D01*
X126687042Y-104702741D01*
X126472428Y-104699945D01*
X126294140Y-104696300D01*
X126148549Y-104691429D01*
X126032023Y-104684957D01*
X125940933Y-104676509D01*
X125871649Y-104665709D01*
X125820540Y-104652182D01*
X125783976Y-104635551D01*
X125758328Y-104615442D01*
X125739965Y-104591478D01*
X125725256Y-104563286D01*
X125710573Y-104530488D01*
X125703484Y-104515132D01*
X125672817Y-104400995D01*
X125692366Y-104294418D01*
X125761956Y-104196156D01*
X125782360Y-104177132D01*
X125872197Y-104098254D01*
X129441197Y-104112286D01*
X129568324Y-104179947D01*
X129768552Y-104314630D01*
X129937254Y-104486670D01*
X130071409Y-104691312D01*
X130167999Y-104923805D01*
X130224003Y-105179396D01*
X130228719Y-105219460D01*
X130229817Y-105395500D01*
X135110946Y-105395500D01*
X135496077Y-104675744D01*
X135965892Y-103694712D01*
X136391538Y-102693532D01*
X136771944Y-101674528D01*
X137106035Y-100640021D01*
X137392741Y-99592337D01*
X137630987Y-98533797D01*
X137756440Y-97858163D01*
X137858431Y-97215151D01*
X137940906Y-96593134D01*
X138004731Y-95980505D01*
X138050775Y-95365656D01*
X138079904Y-94736978D01*
X138092985Y-94082864D01*
X138090886Y-93391706D01*
X138090767Y-93382756D01*
X138080039Y-92854568D01*
X138061993Y-92364633D01*
X138035639Y-91900750D01*
X137999991Y-91450716D01*
X137954062Y-91002329D01*
X137896864Y-90543389D01*
X137827410Y-90061693D01*
X137816144Y-89988462D01*
X137623735Y-88911122D01*
X137383241Y-87848431D01*
X137095659Y-86801755D01*
X136761988Y-85772460D01*
X136383228Y-84761911D01*
X135960377Y-83771474D01*
X135821614Y-83482905D01*
X124619517Y-83482905D01*
X124616759Y-83691925D01*
X124599617Y-83872795D01*
X124598488Y-83879995D01*
X124516805Y-84235416D01*
X124390640Y-84569842D01*
X124222967Y-84879985D01*
X124016760Y-85162558D01*
X123774994Y-85414271D01*
X123500643Y-85631836D01*
X123196682Y-85811966D01*
X122866086Y-85951371D01*
X122671623Y-86010111D01*
X122332759Y-86072848D01*
X121987778Y-86087375D01*
X121642745Y-86054851D01*
X121303728Y-85976436D01*
X120976791Y-85853289D01*
X120668000Y-85686571D01*
X120544820Y-85603577D01*
X120457886Y-85542642D01*
X120386079Y-85494980D01*
X120339521Y-85467177D01*
X120328301Y-85462736D01*
X120302013Y-85473440D01*
X120234467Y-85504124D01*
X120130195Y-85552647D01*
X119993726Y-85616870D01*
X119829591Y-85694652D01*
X119642320Y-85783852D01*
X119436444Y-85882331D01*
X119216493Y-85987947D01*
X119207881Y-85992090D01*
X118946431Y-86118221D01*
X118727417Y-86224718D01*
X118547213Y-86313491D01*
X118402194Y-86386451D01*
X118288736Y-86445509D01*
X118203213Y-86492574D01*
X118142000Y-86529558D01*
X118101471Y-86558371D01*
X118078001Y-86580924D01*
X118071146Y-86591167D01*
X118054497Y-86632592D01*
X118047254Y-86683290D01*
X118049179Y-86755611D01*
X118060034Y-86861904D01*
X118065126Y-86903286D01*
X118079987Y-87079933D01*
X118085819Y-87289016D01*
X118083194Y-87515592D01*
X118072682Y-87744719D01*
X118054856Y-87961455D01*
X118030287Y-88150857D01*
X118014069Y-88238139D01*
X117902871Y-88649955D01*
X117748815Y-89054703D01*
X117557248Y-89439952D01*
X117363709Y-89750339D01*
X117298014Y-89847413D01*
X117244746Y-89930293D01*
X117209791Y-89989538D01*
X117198855Y-90014725D01*
X117214512Y-90037809D01*
X117259299Y-90096074D01*
X117329936Y-90185511D01*
X117423147Y-90302115D01*
X117535654Y-90441879D01*
X117664178Y-90600796D01*
X117805441Y-90774859D01*
X117956166Y-90960062D01*
X118113074Y-91152398D01*
X118272888Y-91347860D01*
X118432330Y-91542441D01*
X118588121Y-91732136D01*
X118736984Y-91912936D01*
X118875641Y-92080836D01*
X119000814Y-92231829D01*
X119109224Y-92361908D01*
X119197595Y-92467066D01*
X119262647Y-92543297D01*
X119301104Y-92586594D01*
X119309787Y-92594953D01*
X119344121Y-92595706D01*
X119414784Y-92584612D01*
X119509235Y-92563863D01*
X119557230Y-92551677D01*
X119651555Y-92528601D01*
X119739493Y-92512408D01*
X119833415Y-92501985D01*
X119945693Y-92496219D01*
X120088697Y-92493996D01*
X120199055Y-92493911D01*
X120369216Y-92495407D01*
X120500839Y-92499692D01*
X120606209Y-92507905D01*
X120697611Y-92521189D01*
X120787333Y-92540683D01*
X120834691Y-92552924D01*
X121000217Y-92605720D01*
X121183859Y-92678013D01*
X121367704Y-92761762D01*
X121533843Y-92848929D01*
X121640123Y-92914462D01*
X121743454Y-92993523D01*
X121866014Y-93100896D01*
X121995803Y-93224760D01*
X122120821Y-93353296D01*
X122229069Y-93474682D01*
X122299020Y-93563532D01*
X122483591Y-93862931D01*
X122622769Y-94179616D01*
X122716929Y-94508706D01*
X122766442Y-94845324D01*
X122771684Y-95184591D01*
X122733028Y-95521628D01*
X122650848Y-95851557D01*
X122525516Y-96169498D01*
X122357408Y-96470572D01*
X122146896Y-96749902D01*
X122046616Y-96858857D01*
X121773814Y-97103800D01*
X121478272Y-97303502D01*
X121161791Y-97457259D01*
X120826173Y-97564364D01*
X120473218Y-97624114D01*
X120104729Y-97635805D01*
X120064541Y-97634184D01*
X119701828Y-97593054D01*
X119358543Y-97504953D01*
X119035299Y-97370153D01*
X118732704Y-97188925D01*
X118451372Y-96961537D01*
X118370711Y-96883862D01*
X118131832Y-96610234D01*
X117936835Y-96314031D01*
X117786397Y-95999459D01*
X117681197Y-95670723D01*
X117621913Y-95332030D01*
X117609222Y-94987584D01*
X117643802Y-94641591D01*
X117726332Y-94298257D01*
X117857490Y-93961788D01*
X117889129Y-93896659D01*
X117937079Y-93797676D01*
X117962981Y-93732369D01*
X117969764Y-93690117D01*
X117960351Y-93660301D01*
X117956029Y-93653846D01*
X117934541Y-93626782D01*
X117883582Y-93563891D01*
X117805976Y-93468623D01*
X117704546Y-93344430D01*
X117582117Y-93194764D01*
X117441512Y-93023075D01*
X117285554Y-92832815D01*
X117117068Y-92627437D01*
X116938878Y-92410390D01*
X116894671Y-92356567D01*
X116661668Y-92073642D01*
X116459319Y-91829535D01*
X116286715Y-91623191D01*
X116142951Y-91453558D01*
X116027117Y-91319581D01*
X115938308Y-91220206D01*
X115875616Y-91154381D01*
X115838133Y-91121050D01*
X115826803Y-91116328D01*
X115788760Y-91130383D01*
X115714587Y-91159430D01*
X115615196Y-91199147D01*
X115508064Y-91242539D01*
X115359650Y-91298610D01*
X115190932Y-91355522D01*
X115027925Y-91404750D01*
X114948705Y-91425815D01*
X114835287Y-91455923D01*
X114740468Y-91484855D01*
X114675027Y-91509079D01*
X114650345Y-91523621D01*
X114647573Y-91552791D01*
X114645030Y-91628851D01*
X114642714Y-91747842D01*
X114640627Y-91905803D01*
X114638767Y-92098774D01*
X114637134Y-92322796D01*
X114635728Y-92573908D01*
X114634549Y-92848151D01*
X114633596Y-93141565D01*
X114632870Y-93450189D01*
X114632369Y-93770063D01*
X114632093Y-94097228D01*
X114632043Y-94427724D01*
X114632217Y-94757591D01*
X114632616Y-95082868D01*
X114633239Y-95399596D01*
X114634086Y-95703814D01*
X114635156Y-95991564D01*
X114636449Y-96258884D01*
X114637966Y-96501815D01*
X114639705Y-96716397D01*
X114641667Y-96898670D01*
X114643850Y-97044673D01*
X114646255Y-97150448D01*
X114648881Y-97212033D01*
X114650792Y-97226647D01*
X114684457Y-97251334D01*
X114749584Y-97281500D01*
X114796599Y-97298680D01*
X115107992Y-97427983D01*
X115401562Y-97601558D01*
X115671957Y-97814382D01*
X115913825Y-98061429D01*
X116121817Y-98337675D01*
X116290580Y-98638094D01*
X116338923Y-98746900D01*
X116409147Y-98927633D01*
X116459755Y-99089666D01*
X116493572Y-99248215D01*
X116513424Y-99418493D01*
X116522138Y-99615716D01*
X116523207Y-99739113D01*
X116522017Y-99908211D01*
X116517698Y-100038868D01*
X116509132Y-100143453D01*
X116495195Y-100234337D01*
X116474769Y-100323889D01*
X116467860Y-100349944D01*
X116347851Y-100701787D01*
X116187092Y-101027469D01*
X115988330Y-101323925D01*
X115754311Y-101588090D01*
X115487784Y-101816898D01*
X115191494Y-102007285D01*
X114868189Y-102156185D01*
X114839547Y-102166831D01*
X114670139Y-102225030D01*
X114521263Y-102266339D01*
X114377918Y-102293021D01*
X114225101Y-102307340D01*
X114047813Y-102311559D01*
X113893549Y-102309543D01*
X113713364Y-102303543D01*
X113571133Y-102293941D01*
X113454008Y-102279344D01*
X113349142Y-102258358D01*
X113296052Y-102244693D01*
X112954991Y-102125029D01*
X112635382Y-101959639D01*
X112339998Y-101750090D01*
X112193088Y-101620594D01*
X111946688Y-101358187D01*
X111746650Y-101080213D01*
X111589650Y-100780662D01*
X111472364Y-100453524D01*
X111413296Y-100210755D01*
X111393780Y-100097196D01*
X111382509Y-99982392D01*
X111378690Y-99851239D01*
X111381530Y-99688632D01*
X111383286Y-99638683D01*
X111403632Y-99365951D01*
X111445174Y-99123569D01*
X111512022Y-98893989D01*
X111608286Y-98659668D01*
X111617020Y-98640961D01*
X111785235Y-98341298D01*
X111994997Y-98064303D01*
X112240190Y-97815728D01*
X112514699Y-97601328D01*
X112812409Y-97426853D01*
X112993311Y-97346215D01*
X113232488Y-97251551D01*
X113232488Y-94383664D01*
X113232456Y-93939955D01*
X113232331Y-93544325D01*
X113232070Y-93194001D01*
X113231630Y-92886211D01*
X113230970Y-92618183D01*
X113230046Y-92387144D01*
X113228815Y-92190323D01*
X113227236Y-92024947D01*
X113225265Y-91888243D01*
X113222859Y-91777440D01*
X113219976Y-91689765D01*
X113216574Y-91622446D01*
X113212609Y-91572710D01*
X113208039Y-91537786D01*
X113202821Y-91514901D01*
X113196913Y-91501283D01*
X113190272Y-91494160D01*
X113187994Y-91492803D01*
X113134427Y-91473427D01*
X113058616Y-91454747D01*
X113041798Y-91451528D01*
X112932229Y-91426128D01*
X112791211Y-91385258D01*
X112633824Y-91333967D01*
X112475147Y-91277303D01*
X112330260Y-91220312D01*
X112260296Y-91189922D01*
X112161527Y-91146618D01*
X112097184Y-91123890D01*
X112056382Y-91119230D01*
X112028238Y-91130131D01*
X112021904Y-91134994D01*
X112000233Y-91159249D01*
X111949940Y-91218907D01*
X111874388Y-91309840D01*
X111776941Y-91427919D01*
X111660960Y-91569014D01*
X111529810Y-91728999D01*
X111386854Y-91903744D01*
X111235455Y-92089121D01*
X111078975Y-92281001D01*
X110920779Y-92475255D01*
X110764228Y-92667755D01*
X110612688Y-92854373D01*
X110469519Y-93030980D01*
X110338087Y-93193447D01*
X110221754Y-93337646D01*
X110123882Y-93459448D01*
X110047836Y-93554725D01*
X109996978Y-93619348D01*
X109980237Y-93641306D01*
X109925080Y-93715910D01*
X110026162Y-93918002D01*
X110162294Y-94244517D01*
X110250456Y-94579153D01*
X110291978Y-94917556D01*
X110288186Y-95255373D01*
X110240408Y-95588251D01*
X110149974Y-95911837D01*
X110018210Y-96221778D01*
X109846444Y-96513721D01*
X109636006Y-96783312D01*
X109388223Y-97026200D01*
X109104422Y-97238029D01*
X108992382Y-97306606D01*
X108678555Y-97459484D01*
X108348386Y-97566523D01*
X108007443Y-97627774D01*
X107661297Y-97643285D01*
X107315516Y-97613106D01*
X106975670Y-97537285D01*
X106647329Y-97415873D01*
X106392702Y-97283591D01*
X106108639Y-97086475D01*
X105855439Y-96853438D01*
X105635690Y-96589703D01*
X105451976Y-96300491D01*
X105306882Y-95991024D01*
X105202993Y-95666525D01*
X105142896Y-95332216D01*
X105129174Y-94993317D01*
X105147059Y-94767474D01*
X105217780Y-94410018D01*
X105333690Y-94072708D01*
X105492086Y-93758603D01*
X105690262Y-93470762D01*
X105925515Y-93212243D01*
X106195139Y-92986105D01*
X106496432Y-92795407D01*
X106826688Y-92643207D01*
X107105522Y-92552409D01*
X107295094Y-92515080D01*
X107516251Y-92493988D01*
X107752389Y-92489132D01*
X107986905Y-92500514D01*
X108203193Y-92528133D01*
X108316794Y-92552368D01*
X108422572Y-92577505D01*
X108512377Y-92595398D01*
X108573053Y-92603588D01*
X108588620Y-92603219D01*
X108612211Y-92582109D01*
X108664078Y-92525206D01*
X108740933Y-92436571D01*
X108839488Y-92320263D01*
X108956457Y-92180344D01*
X109088553Y-92020872D01*
X109232486Y-91845909D01*
X109384971Y-91659514D01*
X109542720Y-91465748D01*
X109702446Y-91268671D01*
X109860861Y-91072343D01*
X110014678Y-90880825D01*
X110160609Y-90698176D01*
X110295368Y-90528458D01*
X110415667Y-90375729D01*
X110518218Y-90244051D01*
X110599734Y-90137484D01*
X110656928Y-90060088D01*
X110686513Y-90015923D01*
X110689946Y-90007851D01*
X110675530Y-89966504D01*
X110637517Y-89898969D01*
X110583759Y-89819017D01*
X110576925Y-89809651D01*
X110342557Y-89449014D01*
X110148734Y-89061101D01*
X109996830Y-88651061D01*
X109888217Y-88224043D01*
X109824270Y-87785197D01*
X109806360Y-87339670D01*
X109825211Y-86991074D01*
X109838123Y-86845044D01*
X109844237Y-86740566D01*
X109843566Y-86668801D01*
X109836122Y-86620906D01*
X109825779Y-86594723D01*
X109803842Y-86573136D01*
X109753548Y-86539619D01*
X109672393Y-86492865D01*
X109557872Y-86431570D01*
X109407480Y-86354429D01*
X109218714Y-86260136D01*
X108989068Y-86147385D01*
X108716038Y-86014871D01*
X108678262Y-85996625D01*
X107562558Y-85457968D01*
X107388485Y-85587014D01*
X107092391Y-85775926D01*
X106776642Y-85920737D01*
X106446526Y-86021288D01*
X106107329Y-86077420D01*
X105764339Y-86088975D01*
X105422844Y-86055796D01*
X105088132Y-85977724D01*
X104765489Y-85854601D01*
X104460204Y-85686270D01*
X104443111Y-85675096D01*
X104313918Y-85578882D01*
X104168941Y-85453042D01*
X104020856Y-85310092D01*
X103882341Y-85162546D01*
X103766072Y-85022918D01*
X103723465Y-84964672D01*
X103544922Y-84663437D01*
X103411547Y-84345311D01*
X103322983Y-84015313D01*
X103278869Y-83678464D01*
X103278846Y-83339786D01*
X103322556Y-83004299D01*
X103409638Y-82677025D01*
X103539734Y-82362983D01*
X103712484Y-82067194D01*
X103927529Y-81794681D01*
X103952208Y-81767983D01*
X104152833Y-81570516D01*
X104353728Y-81409000D01*
X104571325Y-81271174D01*
X104727684Y-81189373D01*
X105057349Y-81055093D01*
X105393871Y-80968979D01*
X105733006Y-80929577D01*
X106070511Y-80935427D01*
X106402144Y-80985073D01*
X106723662Y-81077058D01*
X107030821Y-81209924D01*
X107319379Y-81382214D01*
X107585093Y-81592471D01*
X107823721Y-81839238D01*
X108031019Y-82121057D01*
X108172271Y-82372440D01*
X108269708Y-82591699D01*
X108341907Y-82807419D01*
X108393393Y-83036416D01*
X108428692Y-83295503D01*
X108433251Y-83342060D01*
X108461961Y-83649512D01*
X109553366Y-84174743D01*
X109807830Y-84296442D01*
X110037908Y-84404953D01*
X110240314Y-84498797D01*
X110411765Y-84576494D01*
X110548975Y-84636565D01*
X110648659Y-84677529D01*
X110707533Y-84697908D01*
X110719458Y-84699974D01*
X110756970Y-84693194D01*
X110803001Y-84669597D01*
X110864080Y-84624297D01*
X110946732Y-84552408D01*
X111057488Y-84449044D01*
X111067659Y-84439363D01*
X111339261Y-84197123D01*
X111607703Y-83993083D01*
X111886584Y-83817432D01*
X112057256Y-83725320D01*
X112479029Y-83537282D01*
X112909463Y-83398218D01*
X113345391Y-83307645D01*
X113783648Y-83265081D01*
X114221068Y-83270043D01*
X114654484Y-83322047D01*
X115080731Y-83420612D01*
X115496642Y-83565254D01*
X115899052Y-83755492D01*
X116284794Y-83990842D01*
X116650703Y-84270822D01*
X116856200Y-84456936D01*
X116948771Y-84542865D01*
X117033317Y-84615549D01*
X117100641Y-84667456D01*
X117141546Y-84691050D01*
X117142198Y-84691224D01*
X117200676Y-84689833D01*
X117281727Y-84668694D01*
X117320176Y-84653766D01*
X117380156Y-84626631D01*
X117476555Y-84581563D01*
X117603562Y-84521378D01*
X117755371Y-84448892D01*
X117926174Y-84366921D01*
X118110163Y-84278282D01*
X118301529Y-84185790D01*
X118494466Y-84092262D01*
X118683165Y-84000513D01*
X118861818Y-83913361D01*
X119024617Y-83833620D01*
X119165755Y-83764108D01*
X119279424Y-83707639D01*
X119359815Y-83667031D01*
X119401122Y-83645100D01*
X119403803Y-83643455D01*
X119433434Y-83618875D01*
X119450885Y-83584819D01*
X119459330Y-83528514D01*
X119461941Y-83437190D01*
X119462052Y-83409047D01*
X119467982Y-83287379D01*
X119483369Y-83143981D01*
X119505130Y-83006404D01*
X119509729Y-82983206D01*
X119605654Y-82640914D01*
X119746141Y-82319155D01*
X119927838Y-82021439D01*
X120147387Y-81751280D01*
X120401436Y-81512189D01*
X120686630Y-81307677D01*
X120999613Y-81141256D01*
X121337031Y-81016438D01*
X121407360Y-80996720D01*
X121517719Y-80969119D01*
X121614458Y-80950141D01*
X121712133Y-80938240D01*
X121825301Y-80931873D01*
X121968518Y-80929492D01*
X122042398Y-80929310D01*
X122203582Y-80930494D01*
X122328374Y-80935051D01*
X122431203Y-80944489D01*
X122526492Y-80960316D01*
X122628670Y-80984040D01*
X122670554Y-80994974D01*
X123021218Y-81113429D01*
X123344841Y-81273684D01*
X123638788Y-81473096D01*
X123900423Y-81709021D01*
X124127110Y-81978814D01*
X124316215Y-82279831D01*
X124465101Y-82609428D01*
X124550784Y-82881435D01*
X124585601Y-83058212D01*
X124608822Y-83265185D01*
X124619517Y-83482905D01*
X135821614Y-83482905D01*
X135494435Y-82802513D01*
X134986399Y-81856396D01*
X134437268Y-80934486D01*
X133848043Y-80038149D01*
X133219720Y-79168751D01*
X132553300Y-78327657D01*
X131849781Y-77516234D01*
X131110161Y-76735845D01*
X130335441Y-75987857D01*
X129526618Y-75273635D01*
X128684691Y-74594545D01*
X127810660Y-73951952D01*
X126905522Y-73347221D01*
X125970278Y-72781718D01*
X125005925Y-72256809D01*
X124750521Y-72127136D01*
X123751087Y-71654876D01*
X122737822Y-71231256D01*
X121710168Y-70856129D01*
X120667564Y-70529345D01*
X119609453Y-70250755D01*
X118535276Y-70020211D01*
X117444473Y-69837565D01*
X116336486Y-69702667D01*
X115342799Y-69623092D01*
X115179741Y-69615335D01*
X114974572Y-69609031D01*
X114736014Y-69604181D01*
X114472784Y-69600784D01*
X114193604Y-69598842D01*
X113907194Y-69598355D01*
X113622272Y-69599323D01*
G36*
X121518820Y-104768965D02*
X121397860Y-104858088D01*
X121312822Y-104979890D01*
X121262352Y-105136836D01*
X121247150Y-105263760D01*
X121247649Y-105443553D01*
X121273827Y-105587767D01*
X121328145Y-105706062D01*
X121375833Y-105769264D01*
X121411098Y-105809296D01*
X121443766Y-105843104D01*
X121478246Y-105871212D01*
X121518947Y-105894140D01*
X121570278Y-105912409D01*
X121636647Y-105926543D01*
X121722463Y-105937062D01*
X121832135Y-105944489D01*
X121970072Y-105949344D01*
X122140682Y-105952151D01*
X122348376Y-105953430D01*
X122597560Y-105953703D01*
X122892645Y-105953493D01*
X122932288Y-105953459D01*
X123202535Y-105952761D01*
X123451829Y-105951185D01*
X123675831Y-105948811D01*
X123870201Y-105945722D01*
X124030600Y-105941998D01*
X124152689Y-105937723D01*
X124232127Y-105932977D01*
X124263432Y-105928425D01*
X124400148Y-105847997D01*
X124502606Y-105731194D01*
X124569416Y-105580442D01*
X124599191Y-105398165D01*
X124600699Y-105339331D01*
X124596878Y-105233489D01*
X124587304Y-105135785D01*
X124574558Y-105069484D01*
X124513109Y-104941898D01*
X124417040Y-104830166D01*
X124317514Y-104760400D01*
X124293458Y-104749049D01*
X124266635Y-104739533D01*
X124232605Y-104731690D01*
X124186924Y-104725360D01*
X124125153Y-104720380D01*
X124042850Y-104716590D01*
X123935573Y-104713827D01*
X123798881Y-104711931D01*
X123628333Y-104710741D01*
X123419487Y-104710093D01*
X123167902Y-104709829D01*
X122924587Y-104709783D01*
X121630877Y-104709783D01*
X121518820Y-104768965D01*
X121518820Y-104768965D01*
G37*
X121518820Y-104768965D02*
X121397860Y-104858088D01*
X121312822Y-104979890D01*
X121262352Y-105136836D01*
X121247150Y-105263760D01*
X121247649Y-105443553D01*
X121273827Y-105587767D01*
X121328145Y-105706062D01*
X121375833Y-105769264D01*
X121411098Y-105809296D01*
X121443766Y-105843104D01*
X121478246Y-105871212D01*
X121518947Y-105894140D01*
X121570278Y-105912409D01*
X121636647Y-105926543D01*
X121722463Y-105937062D01*
X121832135Y-105944489D01*
X121970072Y-105949344D01*
X122140682Y-105952151D01*
X122348376Y-105953430D01*
X122597560Y-105953703D01*
X122892645Y-105953493D01*
X122932288Y-105953459D01*
X123202535Y-105952761D01*
X123451829Y-105951185D01*
X123675831Y-105948811D01*
X123870201Y-105945722D01*
X124030600Y-105941998D01*
X124152689Y-105937723D01*
X124232127Y-105932977D01*
X124263432Y-105928425D01*
X124400148Y-105847997D01*
X124502606Y-105731194D01*
X124569416Y-105580442D01*
X124599191Y-105398165D01*
X124600699Y-105339331D01*
X124596878Y-105233489D01*
X124587304Y-105135785D01*
X124574558Y-105069484D01*
X124513109Y-104941898D01*
X124417040Y-104830166D01*
X124317514Y-104760400D01*
X124293458Y-104749049D01*
X124266635Y-104739533D01*
X124232605Y-104731690D01*
X124186924Y-104725360D01*
X124125153Y-104720380D01*
X124042850Y-104716590D01*
X123935573Y-104713827D01*
X123798881Y-104711931D01*
X123628333Y-104710741D01*
X123419487Y-104710093D01*
X123167902Y-104709829D01*
X122924587Y-104709783D01*
X121630877Y-104709783D01*
X121518820Y-104768965D01*
G36*
X121769761Y-81397893D02*
X121622879Y-81417944D01*
X121329299Y-81499298D01*
X121048636Y-81626344D01*
X120786766Y-81794409D01*
X120549564Y-81998824D01*
X120342907Y-82234918D01*
X120172669Y-82498021D01*
X120111733Y-82619150D01*
X120035606Y-82804132D01*
X119981404Y-82987254D01*
X119945136Y-83185514D01*
X119922813Y-83415910D01*
X119922070Y-83427347D01*
X119907126Y-83597221D01*
X119884766Y-83726731D01*
X119851649Y-83826203D01*
X119804439Y-83905960D01*
X119746581Y-83969950D01*
X119711174Y-83992979D01*
X119635212Y-84034968D01*
X119524165Y-84093258D01*
X119383503Y-84165189D01*
X119218698Y-84248102D01*
X119035220Y-84339339D01*
X118838540Y-84436241D01*
X118634128Y-84536147D01*
X118427455Y-84636399D01*
X118223992Y-84734339D01*
X118029210Y-84827306D01*
X117848579Y-84912643D01*
X117687570Y-84987689D01*
X117551654Y-85049786D01*
X117446301Y-85096274D01*
X117376982Y-85124495D01*
X117358655Y-85130623D01*
X117231114Y-85154295D01*
X117106059Y-85149117D01*
X116973926Y-85118296D01*
X116915052Y-85096955D01*
X116856472Y-85065557D01*
X116790019Y-85018032D01*
X116707529Y-84948308D01*
X116600835Y-84850316D01*
X116554265Y-84806320D01*
X116220278Y-84516771D01*
X115877104Y-84274986D01*
X115519287Y-84078019D01*
X115141371Y-83922922D01*
X114737901Y-83806746D01*
X114680401Y-83793713D01*
X114593683Y-83776848D01*
X114502847Y-83764465D01*
X114398478Y-83756005D01*
X114271158Y-83750908D01*
X114111473Y-83748617D01*
X113918975Y-83748539D01*
X113736068Y-83749518D01*
X113593940Y-83751568D01*
X113482521Y-83755647D01*
X113391739Y-83762715D01*
X113311523Y-83773730D01*
X113231802Y-83789651D01*
X113142505Y-83811437D01*
X113076137Y-83828779D01*
X112715314Y-83939165D01*
X112385114Y-84073609D01*
X112075895Y-84237588D01*
X111778020Y-84436580D01*
X111481848Y-84676060D01*
X111311650Y-84831310D01*
X111175059Y-84955803D01*
X111061667Y-85045813D01*
X110962150Y-85105945D01*
X110867181Y-85140805D01*
X110767434Y-85155000D01*
X110659269Y-85153506D01*
X110620126Y-85149845D01*
X110578842Y-85142662D01*
X110531146Y-85130115D01*
X110472769Y-85110358D01*
X110399440Y-85081549D01*
X110306890Y-85041842D01*
X110190846Y-84989395D01*
X110047041Y-84922364D01*
X109871203Y-84838904D01*
X109659062Y-84737172D01*
X109406347Y-84615323D01*
X109351174Y-84588674D01*
X109089917Y-84461712D01*
X108853546Y-84345342D01*
X108645272Y-84241213D01*
X108468306Y-84150975D01*
X108325857Y-84076277D01*
X108221138Y-84018767D01*
X108157357Y-83980095D01*
X108140012Y-83966552D01*
X108080138Y-83894249D01*
X108036621Y-83818044D01*
X108006107Y-83727011D01*
X107985243Y-83610222D01*
X107970673Y-83456747D01*
X107967112Y-83403277D01*
X107947924Y-83193040D01*
X107919147Y-83014346D01*
X107892241Y-82907481D01*
X107771045Y-82599200D01*
X107607988Y-82317818D01*
X107406102Y-82066347D01*
X107168418Y-81847800D01*
X106897967Y-81665192D01*
X106597782Y-81521534D01*
X106443004Y-81466979D01*
X106361129Y-81443246D01*
X106284063Y-81426686D01*
X106199716Y-81416063D01*
X106096002Y-81410145D01*
X105960831Y-81407697D01*
X105859115Y-81407381D01*
X105699150Y-81408333D01*
X105577926Y-81412012D01*
X105483354Y-81419652D01*
X105403348Y-81432486D01*
X105325818Y-81451749D01*
X105275226Y-81466979D01*
X104968641Y-81585768D01*
X104694256Y-81741015D01*
X104444601Y-81937360D01*
X104317430Y-82062119D01*
X104110325Y-82315240D01*
X103947995Y-82588488D01*
X103830730Y-82877349D01*
X103758824Y-83177312D01*
X103732566Y-83483865D01*
X103752250Y-83792493D01*
X103818166Y-84098686D01*
X103930607Y-84397930D01*
X104089864Y-84685712D01*
X104142824Y-84763537D01*
X104330009Y-84986095D01*
X104555843Y-85185606D01*
X104810915Y-85355642D01*
X105085812Y-85489772D01*
X105321732Y-85569073D01*
X105501675Y-85603415D01*
X105711580Y-85621471D01*
X105933243Y-85623257D01*
X106148461Y-85608793D01*
X106339030Y-85578099D01*
X106380336Y-85567984D01*
X106559930Y-85509734D01*
X106748025Y-85430755D01*
X106927088Y-85339459D01*
X107079589Y-85244259D01*
X107123891Y-85211220D01*
X107242639Y-85122932D01*
X107340384Y-85065809D01*
X107430993Y-85034004D01*
X107528334Y-85021671D01*
X107575331Y-85020897D01*
X107611816Y-85021956D01*
X107648573Y-85025875D01*
X107689896Y-85034486D01*
X107740079Y-85049621D01*
X107803416Y-85073115D01*
X107884200Y-85106800D01*
X107986726Y-85152508D01*
X108115285Y-85212073D01*
X108274174Y-85287328D01*
X108467684Y-85380105D01*
X108700110Y-85492238D01*
X108855734Y-85567492D01*
X109082415Y-85677846D01*
X109297820Y-85784038D01*
X109497050Y-85883561D01*
X109675205Y-85973905D01*
X109827387Y-86052563D01*
X109948696Y-86117027D01*
X110034232Y-86164788D01*
X110079097Y-86193339D01*
X110080529Y-86194504D01*
X110146988Y-86264759D01*
X110212962Y-86357247D01*
X110246544Y-86417068D01*
X110274403Y-86475625D01*
X110292919Y-86524434D01*
X110303209Y-86574952D01*
X110306389Y-86638636D01*
X110303576Y-86726943D01*
X110295885Y-86851330D01*
X110293020Y-86894023D01*
X110276049Y-87278150D01*
X110280721Y-87624345D01*
X110308458Y-87941332D01*
X110360680Y-88237836D01*
X110438809Y-88522582D01*
X110544267Y-88804294D01*
X110637641Y-89009583D01*
X110708536Y-89147579D01*
X110788708Y-89291054D01*
X110867792Y-89422069D01*
X110929115Y-89514009D01*
X110996889Y-89610635D01*
X111057441Y-89701118D01*
X111101436Y-89771337D01*
X111113587Y-89793029D01*
X111144857Y-89893944D01*
X111153900Y-90017601D01*
X111140551Y-90140926D01*
X111116655Y-90217291D01*
X111094988Y-90250012D01*
X111044389Y-90318006D01*
X110968137Y-90417199D01*
X110869515Y-90543518D01*
X110751801Y-90692888D01*
X110618278Y-90861237D01*
X110472226Y-91044492D01*
X110316926Y-91238578D01*
X110155658Y-91439422D01*
X109991703Y-91642951D01*
X109828343Y-91845092D01*
X109668857Y-92041770D01*
X109516526Y-92228913D01*
X109374632Y-92402447D01*
X109246454Y-92558299D01*
X109135275Y-92692394D01*
X109044373Y-92800661D01*
X108977031Y-92879024D01*
X108940026Y-92919845D01*
X108815941Y-93013735D01*
X108711816Y-93055546D01*
X108650262Y-93072151D01*
X108598705Y-93080052D01*
X108544097Y-93078211D01*
X108473393Y-93065593D01*
X108373547Y-93041160D01*
X108304890Y-93023207D01*
X108177225Y-92991558D01*
X108069557Y-92970892D01*
X107963752Y-92959120D01*
X107841676Y-92954153D01*
X107702458Y-92953775D01*
X107468292Y-92962875D01*
X107266345Y-92989485D01*
X107079823Y-93037581D01*
X106891927Y-93111141D01*
X106753289Y-93178517D01*
X106473073Y-93348581D01*
X106231508Y-93550428D01*
X106025344Y-93787342D01*
X105851333Y-94062604D01*
X105821343Y-94120094D01*
X105712313Y-94366683D01*
X105641872Y-94605519D01*
X105605374Y-94855615D01*
X105597628Y-95035409D01*
X105616952Y-95368929D01*
X105682103Y-95680742D01*
X105793672Y-95972364D01*
X105952246Y-96245312D01*
X106158417Y-96501102D01*
X106173639Y-96517340D01*
X106412524Y-96735622D01*
X106671268Y-96909991D01*
X106945370Y-97041170D01*
X107230328Y-97129883D01*
X107521643Y-97176853D01*
X107814813Y-97182804D01*
X108105337Y-97148458D01*
X108388715Y-97074539D01*
X108660446Y-96961772D01*
X108916030Y-96810878D01*
X109150964Y-96622582D01*
X109360749Y-96397607D01*
X109540884Y-96136677D01*
X109633801Y-95961180D01*
X109717837Y-95763714D01*
X109775205Y-95575665D01*
X109808860Y-95381533D01*
X109821758Y-95165821D01*
X109819771Y-94985993D01*
X109807087Y-94771175D01*
X109781670Y-94588644D01*
X109738974Y-94420497D01*
X109674449Y-94248833D01*
X109583547Y-94055750D01*
X109583291Y-94055242D01*
X109514060Y-93896221D01*
X109480968Y-93761246D01*
X109482440Y-93640251D01*
X109504828Y-93553873D01*
X109528449Y-93513190D01*
X109581387Y-93437554D01*
X109660357Y-93331024D01*
X109762071Y-93197658D01*
X109883242Y-93041516D01*
X110020583Y-92866656D01*
X110170807Y-92677135D01*
X110330628Y-92477013D01*
X110496758Y-92270348D01*
X110665911Y-92061198D01*
X110834799Y-91853622D01*
X111000136Y-91651679D01*
X111158634Y-91459426D01*
X111307007Y-91280922D01*
X111441968Y-91120226D01*
X111560230Y-90981397D01*
X111658506Y-90868491D01*
X111733509Y-90785569D01*
X111781952Y-90736689D01*
X111794601Y-90726634D01*
X111874729Y-90690875D01*
X111974240Y-90664179D01*
X112017965Y-90657610D01*
X112078407Y-90653784D01*
X112135177Y-90657833D01*
X112199509Y-90672702D01*
X112282638Y-90701334D01*
X112395799Y-90746673D01*
X112459525Y-90773317D01*
X112616072Y-90834714D01*
X112796064Y-90898346D01*
X112973977Y-90955485D01*
X113086950Y-90987837D01*
X113259745Y-91037746D01*
X113390412Y-91086212D01*
X113487265Y-91138226D01*
X113558620Y-91198782D01*
X113612789Y-91272872D01*
X113636692Y-91317920D01*
X113644829Y-91335216D01*
X113652095Y-91353507D01*
X113658539Y-91375616D01*
X113664212Y-91404370D01*
X113669161Y-91442594D01*
X113673437Y-91493113D01*
X113677089Y-91558752D01*
X113680166Y-91642336D01*
X113682716Y-91746691D01*
X113684791Y-91874642D01*
X113686438Y-92029014D01*
X113687707Y-92212633D01*
X113688648Y-92428323D01*
X113689309Y-92678910D01*
X113689740Y-92967219D01*
X113689989Y-93296075D01*
X113690108Y-93668304D01*
X113690144Y-94086730D01*
X113690146Y-94383388D01*
X113690124Y-94833736D01*
X113690028Y-95236043D01*
X113689812Y-95593118D01*
X113689434Y-95907773D01*
X113688847Y-96182815D01*
X113688007Y-96421056D01*
X113686869Y-96625305D01*
X113685389Y-96798372D01*
X113683522Y-96943067D01*
X113681223Y-97062199D01*
X113678448Y-97158579D01*
X113675151Y-97235016D01*
X113671288Y-97294320D01*
X113666815Y-97339301D01*
X113661686Y-97372768D01*
X113655858Y-97397532D01*
X113649284Y-97416403D01*
X113641921Y-97432189D01*
X113641624Y-97432768D01*
X113562257Y-97550445D01*
X113454786Y-97641804D01*
X113308954Y-97715209D01*
X113283006Y-97725237D01*
X112989246Y-97852250D01*
X112736491Y-97999975D01*
X112517076Y-98174390D01*
X112323336Y-98381475D01*
X112168723Y-98594367D01*
X112017469Y-98871203D01*
X111911875Y-99163807D01*
X111851383Y-99466744D01*
X111835435Y-99774578D01*
X111863473Y-100081874D01*
X111934936Y-100383196D01*
X112049269Y-100673109D01*
X112205910Y-100946177D01*
X112404304Y-101196964D01*
X112440015Y-101234795D01*
X112624000Y-101397019D01*
X112843976Y-101545451D01*
X113085472Y-101672554D01*
X113334015Y-101770792D01*
X113575132Y-101832631D01*
X113594431Y-101835903D01*
X113758563Y-101853281D01*
X113947184Y-101858675D01*
X114138745Y-101852424D01*
X114311696Y-101834867D01*
X114376633Y-101823589D01*
X114682865Y-101736662D01*
X114964718Y-101608603D01*
X115219961Y-101443763D01*
X115446364Y-101246495D01*
X115641696Y-101021149D01*
X115803728Y-100772078D01*
X115930231Y-100503631D01*
X116018972Y-100220162D01*
X116067724Y-99926021D01*
X116074255Y-99625560D01*
X116036335Y-99323129D01*
X115951735Y-99023082D01*
X115889518Y-98871549D01*
X115735037Y-98586120D01*
X115547962Y-98336694D01*
X115325934Y-98121193D01*
X115066598Y-97937534D01*
X114767594Y-97783636D01*
X114567323Y-97704414D01*
X114446236Y-97642764D01*
X114335917Y-97553613D01*
X114249577Y-97449803D01*
X114201723Y-97349039D01*
X114196869Y-97312637D01*
X114192508Y-97239347D01*
X114188630Y-97127863D01*
X114185221Y-96976880D01*
X114182270Y-96785091D01*
X114179764Y-96551190D01*
X114177691Y-96273871D01*
X114176037Y-95951830D01*
X114174792Y-95583759D01*
X114173942Y-95168353D01*
X114173476Y-94704305D01*
X114173371Y-94354462D01*
X114173308Y-93901100D01*
X114173253Y-93495768D01*
X114173337Y-93135644D01*
X114173694Y-92817908D01*
X114174455Y-92539738D01*
X114175751Y-92298313D01*
X114177714Y-92090813D01*
X114180476Y-91914416D01*
X114184170Y-91766301D01*
X114188926Y-91643647D01*
X114194877Y-91543632D01*
X114202155Y-91463437D01*
X114210891Y-91400240D01*
X114221217Y-91351219D01*
X114233265Y-91313555D01*
X114247167Y-91284424D01*
X114263055Y-91261007D01*
X114281060Y-91240483D01*
X114301314Y-91220030D01*
X114320774Y-91200198D01*
X114427444Y-91113402D01*
X114564109Y-91049935D01*
X114729027Y-91007380D01*
X114852453Y-90977963D01*
X115004749Y-90933182D01*
X115168846Y-90878858D01*
X115327675Y-90820813D01*
X115464168Y-90764867D01*
X115527775Y-90734966D01*
X115697094Y-90671799D01*
X115860171Y-90655083D01*
X116011722Y-90684522D01*
X116146467Y-90759819D01*
X116159310Y-90770278D01*
X116189985Y-90802172D01*
X116249293Y-90869487D01*
X116333868Y-90968126D01*
X116440339Y-91093991D01*
X116565339Y-91242987D01*
X116705498Y-91411016D01*
X116857448Y-91593982D01*
X117017820Y-91787787D01*
X117183246Y-91988336D01*
X117350357Y-92191532D01*
X117515784Y-92393277D01*
X117676158Y-92589475D01*
X117828110Y-92776029D01*
X117968273Y-92948842D01*
X118093276Y-93103819D01*
X118199753Y-93236861D01*
X118284333Y-93343873D01*
X118343648Y-93420757D01*
X118374329Y-93463416D01*
X118375731Y-93465706D01*
X118421954Y-93574710D01*
X118434309Y-93693374D01*
X118412026Y-93828998D01*
X118354332Y-93988885D01*
X118310545Y-94083099D01*
X118212795Y-94299815D01*
X118145407Y-94497623D01*
X118104040Y-94694786D01*
X118084352Y-94909565D01*
X118081162Y-95048122D01*
X118099387Y-95371533D01*
X118158031Y-95667816D01*
X118258860Y-95942885D01*
X118403640Y-96202653D01*
X118443225Y-96260690D01*
X118650549Y-96513338D01*
X118886215Y-96727482D01*
X119145464Y-96901915D01*
X119423537Y-97035431D01*
X119715676Y-97126823D01*
X120017123Y-97174883D01*
X120323118Y-97178405D01*
X120628903Y-97136181D01*
X120929720Y-97047005D01*
X121151156Y-96947572D01*
X121436683Y-96771858D01*
X121685374Y-96561136D01*
X121896852Y-96315849D01*
X122070739Y-96036438D01*
X122206658Y-95723345D01*
X122212820Y-95705747D01*
X122244416Y-95612026D01*
X122266713Y-95535135D01*
X122281338Y-95462650D01*
X122289917Y-95382148D01*
X122294076Y-95281207D01*
X122295441Y-95147403D01*
X122295577Y-95073547D01*
X122292902Y-94872607D01*
X122282531Y-94708538D01*
X122261521Y-94567586D01*
X122226930Y-94435993D01*
X122175816Y-94300004D01*
X122105235Y-94145862D01*
X122090805Y-94116285D01*
X121926053Y-93836919D01*
X121723640Y-93589715D01*
X121487465Y-93377535D01*
X121221427Y-93203238D01*
X120929423Y-93069685D01*
X120615353Y-92979737D01*
X120517165Y-92961644D01*
X120329594Y-92943980D01*
X120116491Y-92944243D01*
X119899425Y-92961193D01*
X119699965Y-92993594D01*
X119620948Y-93013095D01*
X119513303Y-93039279D01*
X119408612Y-93057916D01*
X119330227Y-93064939D01*
X119284293Y-93064446D01*
X119242246Y-93061194D01*
X119201452Y-93052523D01*
X119159278Y-93035773D01*
X119113087Y-93008282D01*
X119060247Y-92967391D01*
X118998123Y-92910440D01*
X118924080Y-92834768D01*
X118835484Y-92737714D01*
X118729700Y-92616619D01*
X118604095Y-92468822D01*
X118456034Y-92291662D01*
X118282882Y-92082480D01*
X118082005Y-91838616D01*
X117916138Y-91636914D01*
X117730293Y-91410277D01*
X117553195Y-91193158D01*
X117387642Y-90989058D01*
X117236431Y-90801481D01*
X117102358Y-90633929D01*
X116988221Y-90489904D01*
X116896817Y-90372909D01*
X116830943Y-90286445D01*
X116793396Y-90234017D01*
X116786358Y-90222191D01*
X116748829Y-90089963D01*
X116746597Y-89944388D01*
X116770357Y-89836127D01*
X116797875Y-89779043D01*
X116847558Y-89695166D01*
X116910965Y-89598315D01*
X116947359Y-89546296D01*
X117176699Y-89183772D01*
X117359479Y-88801435D01*
X117495328Y-88400742D01*
X117583877Y-87983147D01*
X117624756Y-87550105D01*
X117617595Y-87103071D01*
X117605265Y-86958946D01*
X117590470Y-86771105D01*
X117590671Y-86622443D01*
X117608270Y-86502870D01*
X117645668Y-86402299D01*
X117705267Y-86310640D01*
X117779253Y-86228055D01*
X117811034Y-86198164D01*
X117849417Y-86167510D01*
X117898546Y-86133892D01*
X117962566Y-86095110D01*
X118045623Y-86048966D01*
X118151861Y-85993258D01*
X118285425Y-85925787D01*
X118450460Y-85844354D01*
X118651110Y-85746758D01*
X118891521Y-85630799D01*
X119029485Y-85564500D01*
X119311575Y-85429052D01*
X119552054Y-85314351D01*
X119755306Y-85219461D01*
X119925716Y-85143448D01*
X120067671Y-85085376D01*
X120185556Y-85044312D01*
X120283755Y-85019320D01*
X120366655Y-85009465D01*
X120438640Y-85013812D01*
X120504095Y-85031427D01*
X120567407Y-85061374D01*
X120632960Y-85102719D01*
X120705140Y-85154526D01*
X120760530Y-85195464D01*
X121045495Y-85374750D01*
X121354671Y-85512222D01*
X121445996Y-85543039D01*
X121526119Y-85566328D01*
X121601489Y-85582712D01*
X121683794Y-85593358D01*
X121784722Y-85599434D01*
X121915961Y-85602105D01*
X122042398Y-85602576D01*
X122204279Y-85601705D01*
X122327018Y-85598314D01*
X122422307Y-85591234D01*
X122501838Y-85579297D01*
X122577301Y-85561337D01*
X122639000Y-85542979D01*
X122947872Y-85421142D01*
X123227910Y-85260639D01*
X123476434Y-85065272D01*
X123690763Y-84838842D01*
X123868215Y-84585152D01*
X124006109Y-84308005D01*
X124101765Y-84011203D01*
X124152502Y-83698547D01*
X124156668Y-83390564D01*
X124113518Y-83066678D01*
X124024378Y-82759887D01*
X123892321Y-82473917D01*
X123720420Y-82212492D01*
X123511746Y-81979339D01*
X123269372Y-81778182D01*
X122996371Y-81612747D01*
X122695814Y-81486759D01*
X122550907Y-81443537D01*
X122380844Y-81411161D01*
X122181037Y-81392405D01*
X121970878Y-81387804D01*
X121769761Y-81397893D01*
X121769761Y-81397893D01*
G37*
X121769761Y-81397893D02*
X121622879Y-81417944D01*
X121329299Y-81499298D01*
X121048636Y-81626344D01*
X120786766Y-81794409D01*
X120549564Y-81998824D01*
X120342907Y-82234918D01*
X120172669Y-82498021D01*
X120111733Y-82619150D01*
X120035606Y-82804132D01*
X119981404Y-82987254D01*
X119945136Y-83185514D01*
X119922813Y-83415910D01*
X119922070Y-83427347D01*
X119907126Y-83597221D01*
X119884766Y-83726731D01*
X119851649Y-83826203D01*
X119804439Y-83905960D01*
X119746581Y-83969950D01*
X119711174Y-83992979D01*
X119635212Y-84034968D01*
X119524165Y-84093258D01*
X119383503Y-84165189D01*
X119218698Y-84248102D01*
X119035220Y-84339339D01*
X118838540Y-84436241D01*
X118634128Y-84536147D01*
X118427455Y-84636399D01*
X118223992Y-84734339D01*
X118029210Y-84827306D01*
X117848579Y-84912643D01*
X117687570Y-84987689D01*
X117551654Y-85049786D01*
X117446301Y-85096274D01*
X117376982Y-85124495D01*
X117358655Y-85130623D01*
X117231114Y-85154295D01*
X117106059Y-85149117D01*
X116973926Y-85118296D01*
X116915052Y-85096955D01*
X116856472Y-85065557D01*
X116790019Y-85018032D01*
X116707529Y-84948308D01*
X116600835Y-84850316D01*
X116554265Y-84806320D01*
X116220278Y-84516771D01*
X115877104Y-84274986D01*
X115519287Y-84078019D01*
X115141371Y-83922922D01*
X114737901Y-83806746D01*
X114680401Y-83793713D01*
X114593683Y-83776848D01*
X114502847Y-83764465D01*
X114398478Y-83756005D01*
X114271158Y-83750908D01*
X114111473Y-83748617D01*
X113918975Y-83748539D01*
X113736068Y-83749518D01*
X113593940Y-83751568D01*
X113482521Y-83755647D01*
X113391739Y-83762715D01*
X113311523Y-83773730D01*
X113231802Y-83789651D01*
X113142505Y-83811437D01*
X113076137Y-83828779D01*
X112715314Y-83939165D01*
X112385114Y-84073609D01*
X112075895Y-84237588D01*
X111778020Y-84436580D01*
X111481848Y-84676060D01*
X111311650Y-84831310D01*
X111175059Y-84955803D01*
X111061667Y-85045813D01*
X110962150Y-85105945D01*
X110867181Y-85140805D01*
X110767434Y-85155000D01*
X110659269Y-85153506D01*
X110620126Y-85149845D01*
X110578842Y-85142662D01*
X110531146Y-85130115D01*
X110472769Y-85110358D01*
X110399440Y-85081549D01*
X110306890Y-85041842D01*
X110190846Y-84989395D01*
X110047041Y-84922364D01*
X109871203Y-84838904D01*
X109659062Y-84737172D01*
X109406347Y-84615323D01*
X109351174Y-84588674D01*
X109089917Y-84461712D01*
X108853546Y-84345342D01*
X108645272Y-84241213D01*
X108468306Y-84150975D01*
X108325857Y-84076277D01*
X108221138Y-84018767D01*
X108157357Y-83980095D01*
X108140012Y-83966552D01*
X108080138Y-83894249D01*
X108036621Y-83818044D01*
X108006107Y-83727011D01*
X107985243Y-83610222D01*
X107970673Y-83456747D01*
X107967112Y-83403277D01*
X107947924Y-83193040D01*
X107919147Y-83014346D01*
X107892241Y-82907481D01*
X107771045Y-82599200D01*
X107607988Y-82317818D01*
X107406102Y-82066347D01*
X107168418Y-81847800D01*
X106897967Y-81665192D01*
X106597782Y-81521534D01*
X106443004Y-81466979D01*
X106361129Y-81443246D01*
X106284063Y-81426686D01*
X106199716Y-81416063D01*
X106096002Y-81410145D01*
X105960831Y-81407697D01*
X105859115Y-81407381D01*
X105699150Y-81408333D01*
X105577926Y-81412012D01*
X105483354Y-81419652D01*
X105403348Y-81432486D01*
X105325818Y-81451749D01*
X105275226Y-81466979D01*
X104968641Y-81585768D01*
X104694256Y-81741015D01*
X104444601Y-81937360D01*
X104317430Y-82062119D01*
X104110325Y-82315240D01*
X103947995Y-82588488D01*
X103830730Y-82877349D01*
X103758824Y-83177312D01*
X103732566Y-83483865D01*
X103752250Y-83792493D01*
X103818166Y-84098686D01*
X103930607Y-84397930D01*
X104089864Y-84685712D01*
X104142824Y-84763537D01*
X104330009Y-84986095D01*
X104555843Y-85185606D01*
X104810915Y-85355642D01*
X105085812Y-85489772D01*
X105321732Y-85569073D01*
X105501675Y-85603415D01*
X105711580Y-85621471D01*
X105933243Y-85623257D01*
X106148461Y-85608793D01*
X106339030Y-85578099D01*
X106380336Y-85567984D01*
X106559930Y-85509734D01*
X106748025Y-85430755D01*
X106927088Y-85339459D01*
X107079589Y-85244259D01*
X107123891Y-85211220D01*
X107242639Y-85122932D01*
X107340384Y-85065809D01*
X107430993Y-85034004D01*
X107528334Y-85021671D01*
X107575331Y-85020897D01*
X107611816Y-85021956D01*
X107648573Y-85025875D01*
X107689896Y-85034486D01*
X107740079Y-85049621D01*
X107803416Y-85073115D01*
X107884200Y-85106800D01*
X107986726Y-85152508D01*
X108115285Y-85212073D01*
X108274174Y-85287328D01*
X108467684Y-85380105D01*
X108700110Y-85492238D01*
X108855734Y-85567492D01*
X109082415Y-85677846D01*
X109297820Y-85784038D01*
X109497050Y-85883561D01*
X109675205Y-85973905D01*
X109827387Y-86052563D01*
X109948696Y-86117027D01*
X110034232Y-86164788D01*
X110079097Y-86193339D01*
X110080529Y-86194504D01*
X110146988Y-86264759D01*
X110212962Y-86357247D01*
X110246544Y-86417068D01*
X110274403Y-86475625D01*
X110292919Y-86524434D01*
X110303209Y-86574952D01*
X110306389Y-86638636D01*
X110303576Y-86726943D01*
X110295885Y-86851330D01*
X110293020Y-86894023D01*
X110276049Y-87278150D01*
X110280721Y-87624345D01*
X110308458Y-87941332D01*
X110360680Y-88237836D01*
X110438809Y-88522582D01*
X110544267Y-88804294D01*
X110637641Y-89009583D01*
X110708536Y-89147579D01*
X110788708Y-89291054D01*
X110867792Y-89422069D01*
X110929115Y-89514009D01*
X110996889Y-89610635D01*
X111057441Y-89701118D01*
X111101436Y-89771337D01*
X111113587Y-89793029D01*
X111144857Y-89893944D01*
X111153900Y-90017601D01*
X111140551Y-90140926D01*
X111116655Y-90217291D01*
X111094988Y-90250012D01*
X111044389Y-90318006D01*
X110968137Y-90417199D01*
X110869515Y-90543518D01*
X110751801Y-90692888D01*
X110618278Y-90861237D01*
X110472226Y-91044492D01*
X110316926Y-91238578D01*
X110155658Y-91439422D01*
X109991703Y-91642951D01*
X109828343Y-91845092D01*
X109668857Y-92041770D01*
X109516526Y-92228913D01*
X109374632Y-92402447D01*
X109246454Y-92558299D01*
X109135275Y-92692394D01*
X109044373Y-92800661D01*
X108977031Y-92879024D01*
X108940026Y-92919845D01*
X108815941Y-93013735D01*
X108711816Y-93055546D01*
X108650262Y-93072151D01*
X108598705Y-93080052D01*
X108544097Y-93078211D01*
X108473393Y-93065593D01*
X108373547Y-93041160D01*
X108304890Y-93023207D01*
X108177225Y-92991558D01*
X108069557Y-92970892D01*
X107963752Y-92959120D01*
X107841676Y-92954153D01*
X107702458Y-92953775D01*
X107468292Y-92962875D01*
X107266345Y-92989485D01*
X107079823Y-93037581D01*
X106891927Y-93111141D01*
X106753289Y-93178517D01*
X106473073Y-93348581D01*
X106231508Y-93550428D01*
X106025344Y-93787342D01*
X105851333Y-94062604D01*
X105821343Y-94120094D01*
X105712313Y-94366683D01*
X105641872Y-94605519D01*
X105605374Y-94855615D01*
X105597628Y-95035409D01*
X105616952Y-95368929D01*
X105682103Y-95680742D01*
X105793672Y-95972364D01*
X105952246Y-96245312D01*
X106158417Y-96501102D01*
X106173639Y-96517340D01*
X106412524Y-96735622D01*
X106671268Y-96909991D01*
X106945370Y-97041170D01*
X107230328Y-97129883D01*
X107521643Y-97176853D01*
X107814813Y-97182804D01*
X108105337Y-97148458D01*
X108388715Y-97074539D01*
X108660446Y-96961772D01*
X108916030Y-96810878D01*
X109150964Y-96622582D01*
X109360749Y-96397607D01*
X109540884Y-96136677D01*
X109633801Y-95961180D01*
X109717837Y-95763714D01*
X109775205Y-95575665D01*
X109808860Y-95381533D01*
X109821758Y-95165821D01*
X109819771Y-94985993D01*
X109807087Y-94771175D01*
X109781670Y-94588644D01*
X109738974Y-94420497D01*
X109674449Y-94248833D01*
X109583547Y-94055750D01*
X109583291Y-94055242D01*
X109514060Y-93896221D01*
X109480968Y-93761246D01*
X109482440Y-93640251D01*
X109504828Y-93553873D01*
X109528449Y-93513190D01*
X109581387Y-93437554D01*
X109660357Y-93331024D01*
X109762071Y-93197658D01*
X109883242Y-93041516D01*
X110020583Y-92866656D01*
X110170807Y-92677135D01*
X110330628Y-92477013D01*
X110496758Y-92270348D01*
X110665911Y-92061198D01*
X110834799Y-91853622D01*
X111000136Y-91651679D01*
X111158634Y-91459426D01*
X111307007Y-91280922D01*
X111441968Y-91120226D01*
X111560230Y-90981397D01*
X111658506Y-90868491D01*
X111733509Y-90785569D01*
X111781952Y-90736689D01*
X111794601Y-90726634D01*
X111874729Y-90690875D01*
X111974240Y-90664179D01*
X112017965Y-90657610D01*
X112078407Y-90653784D01*
X112135177Y-90657833D01*
X112199509Y-90672702D01*
X112282638Y-90701334D01*
X112395799Y-90746673D01*
X112459525Y-90773317D01*
X112616072Y-90834714D01*
X112796064Y-90898346D01*
X112973977Y-90955485D01*
X113086950Y-90987837D01*
X113259745Y-91037746D01*
X113390412Y-91086212D01*
X113487265Y-91138226D01*
X113558620Y-91198782D01*
X113612789Y-91272872D01*
X113636692Y-91317920D01*
X113644829Y-91335216D01*
X113652095Y-91353507D01*
X113658539Y-91375616D01*
X113664212Y-91404370D01*
X113669161Y-91442594D01*
X113673437Y-91493113D01*
X113677089Y-91558752D01*
X113680166Y-91642336D01*
X113682716Y-91746691D01*
X113684791Y-91874642D01*
X113686438Y-92029014D01*
X113687707Y-92212633D01*
X113688648Y-92428323D01*
X113689309Y-92678910D01*
X113689740Y-92967219D01*
X113689989Y-93296075D01*
X113690108Y-93668304D01*
X113690144Y-94086730D01*
X113690146Y-94383388D01*
X113690124Y-94833736D01*
X113690028Y-95236043D01*
X113689812Y-95593118D01*
X113689434Y-95907773D01*
X113688847Y-96182815D01*
X113688007Y-96421056D01*
X113686869Y-96625305D01*
X113685389Y-96798372D01*
X113683522Y-96943067D01*
X113681223Y-97062199D01*
X113678448Y-97158579D01*
X113675151Y-97235016D01*
X113671288Y-97294320D01*
X113666815Y-97339301D01*
X113661686Y-97372768D01*
X113655858Y-97397532D01*
X113649284Y-97416403D01*
X113641921Y-97432189D01*
X113641624Y-97432768D01*
X113562257Y-97550445D01*
X113454786Y-97641804D01*
X113308954Y-97715209D01*
X113283006Y-97725237D01*
X112989246Y-97852250D01*
X112736491Y-97999975D01*
X112517076Y-98174390D01*
X112323336Y-98381475D01*
X112168723Y-98594367D01*
X112017469Y-98871203D01*
X111911875Y-99163807D01*
X111851383Y-99466744D01*
X111835435Y-99774578D01*
X111863473Y-100081874D01*
X111934936Y-100383196D01*
X112049269Y-100673109D01*
X112205910Y-100946177D01*
X112404304Y-101196964D01*
X112440015Y-101234795D01*
X112624000Y-101397019D01*
X112843976Y-101545451D01*
X113085472Y-101672554D01*
X113334015Y-101770792D01*
X113575132Y-101832631D01*
X113594431Y-101835903D01*
X113758563Y-101853281D01*
X113947184Y-101858675D01*
X114138745Y-101852424D01*
X114311696Y-101834867D01*
X114376633Y-101823589D01*
X114682865Y-101736662D01*
X114964718Y-101608603D01*
X115219961Y-101443763D01*
X115446364Y-101246495D01*
X115641696Y-101021149D01*
X115803728Y-100772078D01*
X115930231Y-100503631D01*
X116018972Y-100220162D01*
X116067724Y-99926021D01*
X116074255Y-99625560D01*
X116036335Y-99323129D01*
X115951735Y-99023082D01*
X115889518Y-98871549D01*
X115735037Y-98586120D01*
X115547962Y-98336694D01*
X115325934Y-98121193D01*
X115066598Y-97937534D01*
X114767594Y-97783636D01*
X114567323Y-97704414D01*
X114446236Y-97642764D01*
X114335917Y-97553613D01*
X114249577Y-97449803D01*
X114201723Y-97349039D01*
X114196869Y-97312637D01*
X114192508Y-97239347D01*
X114188630Y-97127863D01*
X114185221Y-96976880D01*
X114182270Y-96785091D01*
X114179764Y-96551190D01*
X114177691Y-96273871D01*
X114176037Y-95951830D01*
X114174792Y-95583759D01*
X114173942Y-95168353D01*
X114173476Y-94704305D01*
X114173371Y-94354462D01*
X114173308Y-93901100D01*
X114173253Y-93495768D01*
X114173337Y-93135644D01*
X114173694Y-92817908D01*
X114174455Y-92539738D01*
X114175751Y-92298313D01*
X114177714Y-92090813D01*
X114180476Y-91914416D01*
X114184170Y-91766301D01*
X114188926Y-91643647D01*
X114194877Y-91543632D01*
X114202155Y-91463437D01*
X114210891Y-91400240D01*
X114221217Y-91351219D01*
X114233265Y-91313555D01*
X114247167Y-91284424D01*
X114263055Y-91261007D01*
X114281060Y-91240483D01*
X114301314Y-91220030D01*
X114320774Y-91200198D01*
X114427444Y-91113402D01*
X114564109Y-91049935D01*
X114729027Y-91007380D01*
X114852453Y-90977963D01*
X115004749Y-90933182D01*
X115168846Y-90878858D01*
X115327675Y-90820813D01*
X115464168Y-90764867D01*
X115527775Y-90734966D01*
X115697094Y-90671799D01*
X115860171Y-90655083D01*
X116011722Y-90684522D01*
X116146467Y-90759819D01*
X116159310Y-90770278D01*
X116189985Y-90802172D01*
X116249293Y-90869487D01*
X116333868Y-90968126D01*
X116440339Y-91093991D01*
X116565339Y-91242987D01*
X116705498Y-91411016D01*
X116857448Y-91593982D01*
X117017820Y-91787787D01*
X117183246Y-91988336D01*
X117350357Y-92191532D01*
X117515784Y-92393277D01*
X117676158Y-92589475D01*
X117828110Y-92776029D01*
X117968273Y-92948842D01*
X118093276Y-93103819D01*
X118199753Y-93236861D01*
X118284333Y-93343873D01*
X118343648Y-93420757D01*
X118374329Y-93463416D01*
X118375731Y-93465706D01*
X118421954Y-93574710D01*
X118434309Y-93693374D01*
X118412026Y-93828998D01*
X118354332Y-93988885D01*
X118310545Y-94083099D01*
X118212795Y-94299815D01*
X118145407Y-94497623D01*
X118104040Y-94694786D01*
X118084352Y-94909565D01*
X118081162Y-95048122D01*
X118099387Y-95371533D01*
X118158031Y-95667816D01*
X118258860Y-95942885D01*
X118403640Y-96202653D01*
X118443225Y-96260690D01*
X118650549Y-96513338D01*
X118886215Y-96727482D01*
X119145464Y-96901915D01*
X119423537Y-97035431D01*
X119715676Y-97126823D01*
X120017123Y-97174883D01*
X120323118Y-97178405D01*
X120628903Y-97136181D01*
X120929720Y-97047005D01*
X121151156Y-96947572D01*
X121436683Y-96771858D01*
X121685374Y-96561136D01*
X121896852Y-96315849D01*
X122070739Y-96036438D01*
X122206658Y-95723345D01*
X122212820Y-95705747D01*
X122244416Y-95612026D01*
X122266713Y-95535135D01*
X122281338Y-95462650D01*
X122289917Y-95382148D01*
X122294076Y-95281207D01*
X122295441Y-95147403D01*
X122295577Y-95073547D01*
X122292902Y-94872607D01*
X122282531Y-94708538D01*
X122261521Y-94567586D01*
X122226930Y-94435993D01*
X122175816Y-94300004D01*
X122105235Y-94145862D01*
X122090805Y-94116285D01*
X121926053Y-93836919D01*
X121723640Y-93589715D01*
X121487465Y-93377535D01*
X121221427Y-93203238D01*
X120929423Y-93069685D01*
X120615353Y-92979737D01*
X120517165Y-92961644D01*
X120329594Y-92943980D01*
X120116491Y-92944243D01*
X119899425Y-92961193D01*
X119699965Y-92993594D01*
X119620948Y-93013095D01*
X119513303Y-93039279D01*
X119408612Y-93057916D01*
X119330227Y-93064939D01*
X119284293Y-93064446D01*
X119242246Y-93061194D01*
X119201452Y-93052523D01*
X119159278Y-93035773D01*
X119113087Y-93008282D01*
X119060247Y-92967391D01*
X118998123Y-92910440D01*
X118924080Y-92834768D01*
X118835484Y-92737714D01*
X118729700Y-92616619D01*
X118604095Y-92468822D01*
X118456034Y-92291662D01*
X118282882Y-92082480D01*
X118082005Y-91838616D01*
X117916138Y-91636914D01*
X117730293Y-91410277D01*
X117553195Y-91193158D01*
X117387642Y-90989058D01*
X117236431Y-90801481D01*
X117102358Y-90633929D01*
X116988221Y-90489904D01*
X116896817Y-90372909D01*
X116830943Y-90286445D01*
X116793396Y-90234017D01*
X116786358Y-90222191D01*
X116748829Y-90089963D01*
X116746597Y-89944388D01*
X116770357Y-89836127D01*
X116797875Y-89779043D01*
X116847558Y-89695166D01*
X116910965Y-89598315D01*
X116947359Y-89546296D01*
X117176699Y-89183772D01*
X117359479Y-88801435D01*
X117495328Y-88400742D01*
X117583877Y-87983147D01*
X117624756Y-87550105D01*
X117617595Y-87103071D01*
X117605265Y-86958946D01*
X117590470Y-86771105D01*
X117590671Y-86622443D01*
X117608270Y-86502870D01*
X117645668Y-86402299D01*
X117705267Y-86310640D01*
X117779253Y-86228055D01*
X117811034Y-86198164D01*
X117849417Y-86167510D01*
X117898546Y-86133892D01*
X117962566Y-86095110D01*
X118045623Y-86048966D01*
X118151861Y-85993258D01*
X118285425Y-85925787D01*
X118450460Y-85844354D01*
X118651110Y-85746758D01*
X118891521Y-85630799D01*
X119029485Y-85564500D01*
X119311575Y-85429052D01*
X119552054Y-85314351D01*
X119755306Y-85219461D01*
X119925716Y-85143448D01*
X120067671Y-85085376D01*
X120185556Y-85044312D01*
X120283755Y-85019320D01*
X120366655Y-85009465D01*
X120438640Y-85013812D01*
X120504095Y-85031427D01*
X120567407Y-85061374D01*
X120632960Y-85102719D01*
X120705140Y-85154526D01*
X120760530Y-85195464D01*
X121045495Y-85374750D01*
X121354671Y-85512222D01*
X121445996Y-85543039D01*
X121526119Y-85566328D01*
X121601489Y-85582712D01*
X121683794Y-85593358D01*
X121784722Y-85599434D01*
X121915961Y-85602105D01*
X122042398Y-85602576D01*
X122204279Y-85601705D01*
X122327018Y-85598314D01*
X122422307Y-85591234D01*
X122501838Y-85579297D01*
X122577301Y-85561337D01*
X122639000Y-85542979D01*
X122947872Y-85421142D01*
X123227910Y-85260639D01*
X123476434Y-85065272D01*
X123690763Y-84838842D01*
X123868215Y-84585152D01*
X124006109Y-84308005D01*
X124101765Y-84011203D01*
X124152502Y-83698547D01*
X124156668Y-83390564D01*
X124113518Y-83066678D01*
X124024378Y-82759887D01*
X123892321Y-82473917D01*
X123720420Y-82212492D01*
X123511746Y-81979339D01*
X123269372Y-81778182D01*
X122996371Y-81612747D01*
X122695814Y-81486759D01*
X122550907Y-81443537D01*
X122380844Y-81411161D01*
X122181037Y-81392405D01*
X121970878Y-81387804D01*
X121769761Y-81397893D01*
D12*
X113223524Y-93302667D02*
X114130667Y-93302667D01*
X114312095Y-93242191D01*
X114433048Y-93121239D01*
X114493524Y-92939810D01*
X114493524Y-92818858D01*
X113646857Y-94451715D02*
X114493524Y-94451715D01*
X113163048Y-94149334D02*
X114070190Y-93846953D01*
X114070190Y-94633143D01*
%LPC*%
D13*
X106490000Y-75933300D03*
D14*
X106490000Y-78473300D03*
X106490000Y-81013300D03*
X106490000Y-83553300D03*
X106490000Y-86093300D03*
X106490000Y-88633300D03*
X106490000Y-91173300D03*
X106490000Y-93713300D03*
X106490000Y-96253300D03*
X106490000Y-98793300D03*
X106490000Y-101333300D03*
X106490000Y-103873300D03*
X106490000Y-106413300D03*
X106490000Y-108953300D03*
X106490000Y-111493300D03*
D13*
X121272000Y-75895200D03*
D14*
X121272000Y-78435200D03*
X121272000Y-80975200D03*
X121272000Y-83515200D03*
X121272000Y-86055200D03*
X121272000Y-88595200D03*
X121272000Y-91135200D03*
X121272000Y-93675200D03*
X121272000Y-96215200D03*
X121272000Y-98755200D03*
X121272000Y-101295200D03*
X121272000Y-103835200D03*
X121272000Y-106375200D03*
X121272000Y-108915200D03*
X121272000Y-111455200D03*
D13*
X97561400Y-92494100D03*
D14*
X97561400Y-95034100D03*
D15*
X113919000Y-88476000D03*
D16*
X115719000Y-90226000D03*
X112119000Y-90226000D03*
X115719000Y-90726000D03*
X112119000Y-90726000D03*
X115719000Y-91226000D03*
X112119000Y-91226000D03*
X115719000Y-91726000D03*
X112119000Y-91726000D03*
X115719000Y-92226000D03*
X112119000Y-92226000D03*
X115719000Y-92726000D03*
X112119000Y-92726000D03*
X115719000Y-93226000D03*
X112119000Y-93226000D03*
X115719000Y-93726000D03*
X112119000Y-93726000D03*
X115719000Y-94226000D03*
X112119000Y-94226000D03*
X115719000Y-94726000D03*
X112119000Y-94726000D03*
X115719000Y-95226000D03*
X112119000Y-95226000D03*
X115719000Y-95726000D03*
X112119000Y-95726000D03*
X115719000Y-96226000D03*
X112119000Y-96226000D03*
X115719000Y-96726000D03*
X112119000Y-96726000D03*
X115719000Y-97226000D03*
X112119000Y-97226000D03*
D15*
X113919000Y-98976000D03*
D17*
X115469000Y-98276000D03*
X115419000Y-89176000D03*
M02*
