M48
;DRILL file {KiCad 4.0.7} date 06/27/18 01:28:08
;FORMAT={3:3/ absolute / metric / suppress leading zeros}
FMAT,2
METRIC,TZ
T1C0.400
T2C0.650
T3C1.000
%
G90
G05
M71
T1
X111523Y-97876
X114419Y-90209
T2
X115419Y-89176
X115469Y-98276
T3
X97561Y-92494
X97561Y-95034
X106490Y-75933
X106490Y-78473
X106490Y-81013
X106490Y-83553
X106490Y-86093
X106490Y-88633
X106490Y-91173
X106490Y-93713
X106490Y-96253
X106490Y-98793
X106490Y-101333
X106490Y-103873
X106490Y-106413
X106490Y-108953
X106490Y-111493
X121272Y-75895
X121272Y-78435
X121272Y-80975
X121272Y-83515
X121272Y-86055
X121272Y-88595
X121272Y-91135
X121272Y-93675
X121272Y-96215
X121272Y-98755
X121272Y-101295
X121272Y-103835
X121272Y-106375
X121272Y-108915
X121272Y-111455
T0
M30
