G04 #@! TF.FileFunction,Copper,L1,Top,Signal*
%FSLAX46Y46*%
G04 Gerber Fmt 4.6, Leading zero omitted, Abs format (unit mm)*
G04 Created by KiCad (PCBNEW 4.0.7) date 06/27/18 01:28:05*
%MOMM*%
%LPD*%
G01*
G04 APERTURE LIST*
%ADD10C,0.100000*%
%ADD11R,1.700000X1.700000*%
%ADD12O,1.700000X1.700000*%
%ADD13C,0.650000*%
%ADD14C,0.600000*%
%ADD15C,0.400000*%
%ADD16C,0.254000*%
G04 APERTURE END LIST*
D10*
D11*
X106490000Y-75933300D03*
D12*
X106490000Y-78473300D03*
X106490000Y-81013300D03*
X106490000Y-83553300D03*
X106490000Y-86093300D03*
X106490000Y-88633300D03*
X106490000Y-91173300D03*
X106490000Y-93713300D03*
X106490000Y-96253300D03*
X106490000Y-98793300D03*
X106490000Y-101333300D03*
X106490000Y-103873300D03*
X106490000Y-106413300D03*
X106490000Y-108953300D03*
X106490000Y-111493300D03*
D11*
X121272000Y-75895200D03*
D12*
X121272000Y-78435200D03*
X121272000Y-80975200D03*
X121272000Y-83515200D03*
X121272000Y-86055200D03*
X121272000Y-88595200D03*
X121272000Y-91135200D03*
X121272000Y-93675200D03*
X121272000Y-96215200D03*
X121272000Y-98755200D03*
X121272000Y-101295200D03*
X121272000Y-103835200D03*
X121272000Y-106375200D03*
X121272000Y-108915200D03*
X121272000Y-111455200D03*
D11*
X97561400Y-92494100D03*
D12*
X97561400Y-95034100D03*
D13*
X115469000Y-98276000D03*
X115419000Y-89176000D03*
D14*
X111522500Y-97876100D03*
X114418900Y-90209000D03*
D15*
X107826400Y-100760400D02*
X107623300Y-100476600D01*
X107840100Y-100793500D02*
X107826400Y-100760400D01*
X107840100Y-108413500D02*
X107840100Y-100793500D01*
X107840100Y-109493100D02*
X107840100Y-108413500D01*
X107826400Y-109526200D02*
X107840100Y-109493100D01*
X106490000Y-111493300D02*
X107826400Y-109526200D01*
X114893400Y-88958300D02*
X114418900Y-90209000D01*
X119935600Y-77862300D02*
X114893400Y-88958300D01*
X120622000Y-76828000D02*
X119935600Y-77862300D01*
X120622000Y-76745200D02*
X120622000Y-76828000D01*
X120622000Y-76545200D02*
X120622000Y-76745200D01*
X121272000Y-75895200D02*
X120622000Y-76545200D01*
X107017600Y-100064800D02*
X107623300Y-100476600D01*
X107013900Y-100063300D02*
X107017600Y-100064800D01*
X105966100Y-100063300D02*
X107013900Y-100063300D01*
X105962400Y-100061800D02*
X105966100Y-100063300D01*
X97561400Y-95034100D02*
X105962400Y-100061800D01*
X114418900Y-90209000D02*
X111522500Y-97876100D01*
X111522500Y-97876100D02*
X107623300Y-100476600D01*
D16*
G36*
X122866364Y-72152849D02*
X130430295Y-77206905D01*
X135484351Y-84770836D01*
X137259100Y-93693100D01*
X135484351Y-102615364D01*
X130430295Y-110179295D01*
X122866364Y-115233351D01*
X113944100Y-117008100D01*
X105021836Y-115233351D01*
X97457905Y-110179295D01*
X96464862Y-108693100D01*
X97159100Y-108693100D01*
X97294975Y-109376190D01*
X97681914Y-109955286D01*
X98261010Y-110342225D01*
X98944100Y-110478100D01*
X99627190Y-110342225D01*
X100206286Y-109955286D01*
X100593225Y-109376190D01*
X100729100Y-108693100D01*
X100593225Y-108010010D01*
X100206286Y-107430914D01*
X99627190Y-107043975D01*
X98944100Y-106908100D01*
X98261010Y-107043975D01*
X97681914Y-107430914D01*
X97294975Y-108010010D01*
X97159100Y-108693100D01*
X96464862Y-108693100D01*
X92403849Y-102615364D01*
X90895842Y-95034100D01*
X96047307Y-95034100D01*
X96160346Y-95602385D01*
X96482253Y-96084154D01*
X96964022Y-96406061D01*
X97532307Y-96519100D01*
X97590493Y-96519100D01*
X98158778Y-96406061D01*
X98191416Y-96384253D01*
X105209627Y-100584402D01*
X105088946Y-100765015D01*
X104975907Y-101333300D01*
X105088946Y-101901585D01*
X105410853Y-102383354D01*
X105740026Y-102603300D01*
X105410853Y-102823246D01*
X105088946Y-103305015D01*
X104975907Y-103873300D01*
X105088946Y-104441585D01*
X105410853Y-104923354D01*
X105740026Y-105143300D01*
X105410853Y-105363246D01*
X105088946Y-105845015D01*
X104975907Y-106413300D01*
X105088946Y-106981585D01*
X105410853Y-107463354D01*
X105740026Y-107683300D01*
X105410853Y-107903246D01*
X105088946Y-108385015D01*
X104975907Y-108953300D01*
X105088946Y-109521585D01*
X105410853Y-110003354D01*
X105740026Y-110223300D01*
X105410853Y-110443246D01*
X105088946Y-110925015D01*
X104975907Y-111493300D01*
X105088946Y-112061585D01*
X105410853Y-112543354D01*
X105892622Y-112865261D01*
X106460907Y-112978300D01*
X106519093Y-112978300D01*
X107087378Y-112865261D01*
X107569147Y-112543354D01*
X107891054Y-112061585D01*
X107940681Y-111812090D01*
X119830524Y-111812090D01*
X120000355Y-112222124D01*
X120390642Y-112650383D01*
X120915108Y-112896686D01*
X121145000Y-112776019D01*
X121145000Y-111582200D01*
X121399000Y-111582200D01*
X121399000Y-112776019D01*
X121628892Y-112896686D01*
X122153358Y-112650383D01*
X122543645Y-112222124D01*
X122713476Y-111812090D01*
X122592155Y-111582200D01*
X121399000Y-111582200D01*
X121145000Y-111582200D01*
X119951845Y-111582200D01*
X119830524Y-111812090D01*
X107940681Y-111812090D01*
X108004093Y-111493300D01*
X107891054Y-110925015D01*
X107888324Y-110920930D01*
X108517084Y-109995434D01*
X108550424Y-109916665D01*
X108597926Y-109845532D01*
X108611626Y-109812433D01*
X108626732Y-109736380D01*
X108644077Y-109695402D01*
X108644448Y-109647197D01*
X108675100Y-109493100D01*
X108675100Y-100793500D01*
X108672517Y-100780512D01*
X111625325Y-98811190D01*
X111707667Y-98811262D01*
X112051443Y-98669217D01*
X112254896Y-98466118D01*
X114508833Y-98466118D01*
X114654677Y-98819086D01*
X114924493Y-99089374D01*
X115277206Y-99235833D01*
X115659118Y-99236167D01*
X116012086Y-99090323D01*
X116282374Y-98820507D01*
X116428833Y-98467794D01*
X116429167Y-98085882D01*
X116283323Y-97732914D01*
X116013507Y-97462626D01*
X115660794Y-97316167D01*
X115278882Y-97315833D01*
X114925914Y-97461677D01*
X114655626Y-97731493D01*
X114509167Y-98084206D01*
X114508833Y-98466118D01*
X112254896Y-98466118D01*
X112314692Y-98406427D01*
X112457338Y-98062899D01*
X112457599Y-97763588D01*
X115050649Y-90899491D01*
X115211092Y-90739327D01*
X115353738Y-90395799D01*
X115353964Y-90135944D01*
X115609118Y-90136167D01*
X115962086Y-89990323D01*
X116232374Y-89720507D01*
X116378833Y-89367794D01*
X116379167Y-88985882D01*
X116233323Y-88632914D01*
X116044420Y-88443680D01*
X120146676Y-79416145D01*
X120192853Y-79485254D01*
X120522026Y-79705200D01*
X120192853Y-79925146D01*
X119870946Y-80406915D01*
X119757907Y-80975200D01*
X119870946Y-81543485D01*
X120192853Y-82025254D01*
X120522026Y-82245200D01*
X120192853Y-82465146D01*
X119870946Y-82946915D01*
X119757907Y-83515200D01*
X119870946Y-84083485D01*
X120192853Y-84565254D01*
X120522026Y-84785200D01*
X120192853Y-85005146D01*
X119870946Y-85486915D01*
X119757907Y-86055200D01*
X119870946Y-86623485D01*
X120192853Y-87105254D01*
X120522026Y-87325200D01*
X120192853Y-87545146D01*
X119870946Y-88026915D01*
X119757907Y-88595200D01*
X119870946Y-89163485D01*
X120192853Y-89645254D01*
X120522026Y-89865200D01*
X120192853Y-90085146D01*
X119870946Y-90566915D01*
X119757907Y-91135200D01*
X119870946Y-91703485D01*
X120192853Y-92185254D01*
X120522026Y-92405200D01*
X120192853Y-92625146D01*
X119870946Y-93106915D01*
X119757907Y-93675200D01*
X119870946Y-94243485D01*
X120192853Y-94725254D01*
X120522026Y-94945200D01*
X120192853Y-95165146D01*
X119870946Y-95646915D01*
X119757907Y-96215200D01*
X119870946Y-96783485D01*
X120192853Y-97265254D01*
X120522026Y-97485200D01*
X120192853Y-97705146D01*
X119870946Y-98186915D01*
X119757907Y-98755200D01*
X119870946Y-99323485D01*
X120192853Y-99805254D01*
X120522026Y-100025200D01*
X120192853Y-100245146D01*
X119870946Y-100726915D01*
X119757907Y-101295200D01*
X119870946Y-101863485D01*
X120192853Y-102345254D01*
X120522026Y-102565200D01*
X120192853Y-102785146D01*
X119870946Y-103266915D01*
X119757907Y-103835200D01*
X119870946Y-104403485D01*
X120192853Y-104885254D01*
X120522026Y-105105200D01*
X120192853Y-105325146D01*
X119870946Y-105806915D01*
X119757907Y-106375200D01*
X119870946Y-106943485D01*
X120192853Y-107425254D01*
X120522026Y-107645200D01*
X120192853Y-107865146D01*
X119870946Y-108346915D01*
X119757907Y-108915200D01*
X119870946Y-109483485D01*
X120192853Y-109965254D01*
X120533553Y-110192902D01*
X120390642Y-110260017D01*
X120000355Y-110688276D01*
X119830524Y-111098310D01*
X119951845Y-111328200D01*
X121145000Y-111328200D01*
X121145000Y-111308200D01*
X121399000Y-111308200D01*
X121399000Y-111328200D01*
X122592155Y-111328200D01*
X122713476Y-111098310D01*
X122543645Y-110688276D01*
X122153358Y-110260017D01*
X122010447Y-110192902D01*
X122351147Y-109965254D01*
X122673054Y-109483485D01*
X122786093Y-108915200D01*
X122741915Y-108693100D01*
X127159100Y-108693100D01*
X127294975Y-109376190D01*
X127681914Y-109955286D01*
X128261010Y-110342225D01*
X128944100Y-110478100D01*
X129627190Y-110342225D01*
X130206286Y-109955286D01*
X130593225Y-109376190D01*
X130729100Y-108693100D01*
X130593225Y-108010010D01*
X130206286Y-107430914D01*
X129627190Y-107043975D01*
X128944100Y-106908100D01*
X128261010Y-107043975D01*
X127681914Y-107430914D01*
X127294975Y-108010010D01*
X127159100Y-108693100D01*
X122741915Y-108693100D01*
X122673054Y-108346915D01*
X122351147Y-107865146D01*
X122021974Y-107645200D01*
X122351147Y-107425254D01*
X122673054Y-106943485D01*
X122786093Y-106375200D01*
X122673054Y-105806915D01*
X122351147Y-105325146D01*
X122021974Y-105105200D01*
X122351147Y-104885254D01*
X122673054Y-104403485D01*
X122786093Y-103835200D01*
X122673054Y-103266915D01*
X122351147Y-102785146D01*
X122021974Y-102565200D01*
X122351147Y-102345254D01*
X122673054Y-101863485D01*
X122786093Y-101295200D01*
X122673054Y-100726915D01*
X122351147Y-100245146D01*
X122021974Y-100025200D01*
X122351147Y-99805254D01*
X122673054Y-99323485D01*
X122786093Y-98755200D01*
X122673054Y-98186915D01*
X122351147Y-97705146D01*
X122021974Y-97485200D01*
X122351147Y-97265254D01*
X122673054Y-96783485D01*
X122786093Y-96215200D01*
X122673054Y-95646915D01*
X122351147Y-95165146D01*
X122021974Y-94945200D01*
X122351147Y-94725254D01*
X122673054Y-94243485D01*
X122786093Y-93675200D01*
X122673054Y-93106915D01*
X122351147Y-92625146D01*
X122021974Y-92405200D01*
X122351147Y-92185254D01*
X122673054Y-91703485D01*
X122786093Y-91135200D01*
X122673054Y-90566915D01*
X122351147Y-90085146D01*
X122021974Y-89865200D01*
X122351147Y-89645254D01*
X122673054Y-89163485D01*
X122786093Y-88595200D01*
X122673054Y-88026915D01*
X122351147Y-87545146D01*
X122021974Y-87325200D01*
X122351147Y-87105254D01*
X122673054Y-86623485D01*
X122786093Y-86055200D01*
X122673054Y-85486915D01*
X122351147Y-85005146D01*
X122021974Y-84785200D01*
X122351147Y-84565254D01*
X122673054Y-84083485D01*
X122786093Y-83515200D01*
X122673054Y-82946915D01*
X122351147Y-82465146D01*
X122021974Y-82245200D01*
X122351147Y-82025254D01*
X122673054Y-81543485D01*
X122786093Y-80975200D01*
X122673054Y-80406915D01*
X122351147Y-79925146D01*
X122021974Y-79705200D01*
X122351147Y-79485254D01*
X122673054Y-79003485D01*
X122734793Y-78693100D01*
X127159100Y-78693100D01*
X127294975Y-79376190D01*
X127681914Y-79955286D01*
X128261010Y-80342225D01*
X128944100Y-80478100D01*
X129627190Y-80342225D01*
X130206286Y-79955286D01*
X130593225Y-79376190D01*
X130729100Y-78693100D01*
X130593225Y-78010010D01*
X130206286Y-77430914D01*
X129627190Y-77043975D01*
X128944100Y-76908100D01*
X128261010Y-77043975D01*
X127681914Y-77430914D01*
X127294975Y-78010010D01*
X127159100Y-78693100D01*
X122734793Y-78693100D01*
X122786093Y-78435200D01*
X122673054Y-77866915D01*
X122351147Y-77385146D01*
X122309548Y-77357350D01*
X122357317Y-77348362D01*
X122573441Y-77209290D01*
X122718431Y-76997090D01*
X122769440Y-76745200D01*
X122769440Y-75045200D01*
X122725162Y-74809883D01*
X122586090Y-74593759D01*
X122373890Y-74448769D01*
X122122000Y-74397760D01*
X120422000Y-74397760D01*
X120186683Y-74442038D01*
X119970559Y-74581110D01*
X119825569Y-74793310D01*
X119774560Y-75045200D01*
X119774560Y-76594885D01*
X119239867Y-77400586D01*
X119214451Y-77462496D01*
X119175407Y-77516856D01*
X114133207Y-88612856D01*
X114127038Y-88639185D01*
X114112697Y-88662111D01*
X113788180Y-89517483D01*
X113626708Y-89678673D01*
X113484062Y-90022201D01*
X113483801Y-90321513D01*
X110890752Y-97185609D01*
X110730308Y-97345773D01*
X110698724Y-97421834D01*
X107906471Y-99284076D01*
X108004093Y-98793300D01*
X107891054Y-98225015D01*
X107569147Y-97743246D01*
X107239974Y-97523300D01*
X107569147Y-97303354D01*
X107891054Y-96821585D01*
X108004093Y-96253300D01*
X107891054Y-95685015D01*
X107569147Y-95203246D01*
X107239974Y-94983300D01*
X107569147Y-94763354D01*
X107891054Y-94281585D01*
X108004093Y-93713300D01*
X107891054Y-93145015D01*
X107569147Y-92663246D01*
X107239974Y-92443300D01*
X107569147Y-92223354D01*
X107891054Y-91741585D01*
X108004093Y-91173300D01*
X107891054Y-90605015D01*
X107569147Y-90123246D01*
X107239974Y-89903300D01*
X107569147Y-89683354D01*
X107891054Y-89201585D01*
X108004093Y-88633300D01*
X107891054Y-88065015D01*
X107569147Y-87583246D01*
X107239974Y-87363300D01*
X107569147Y-87143354D01*
X107891054Y-86661585D01*
X108004093Y-86093300D01*
X107891054Y-85525015D01*
X107569147Y-85043246D01*
X107239974Y-84823300D01*
X107569147Y-84603354D01*
X107891054Y-84121585D01*
X108004093Y-83553300D01*
X107891054Y-82985015D01*
X107569147Y-82503246D01*
X107239974Y-82283300D01*
X107569147Y-82063354D01*
X107891054Y-81581585D01*
X108004093Y-81013300D01*
X107891054Y-80445015D01*
X107569147Y-79963246D01*
X107239974Y-79743300D01*
X107569147Y-79523354D01*
X107891054Y-79041585D01*
X108004093Y-78473300D01*
X107891054Y-77905015D01*
X107569147Y-77423246D01*
X107525223Y-77393897D01*
X107699698Y-77321627D01*
X107878327Y-77142999D01*
X107975000Y-76909610D01*
X107975000Y-76219050D01*
X107816250Y-76060300D01*
X106617000Y-76060300D01*
X106617000Y-76080300D01*
X106363000Y-76080300D01*
X106363000Y-76060300D01*
X105163750Y-76060300D01*
X105005000Y-76219050D01*
X105005000Y-76909610D01*
X105101673Y-77142999D01*
X105280302Y-77321627D01*
X105454777Y-77393897D01*
X105410853Y-77423246D01*
X105088946Y-77905015D01*
X104975907Y-78473300D01*
X105088946Y-79041585D01*
X105410853Y-79523354D01*
X105740026Y-79743300D01*
X105410853Y-79963246D01*
X105088946Y-80445015D01*
X104975907Y-81013300D01*
X105088946Y-81581585D01*
X105410853Y-82063354D01*
X105740026Y-82283300D01*
X105410853Y-82503246D01*
X105088946Y-82985015D01*
X104975907Y-83553300D01*
X105088946Y-84121585D01*
X105410853Y-84603354D01*
X105740026Y-84823300D01*
X105410853Y-85043246D01*
X105088946Y-85525015D01*
X104975907Y-86093300D01*
X105088946Y-86661585D01*
X105410853Y-87143354D01*
X105740026Y-87363300D01*
X105410853Y-87583246D01*
X105088946Y-88065015D01*
X104975907Y-88633300D01*
X105088946Y-89201585D01*
X105410853Y-89683354D01*
X105740026Y-89903300D01*
X105410853Y-90123246D01*
X105088946Y-90605015D01*
X104975907Y-91173300D01*
X105088946Y-91741585D01*
X105410853Y-92223354D01*
X105740026Y-92443300D01*
X105410853Y-92663246D01*
X105088946Y-93145015D01*
X104975907Y-93713300D01*
X105088946Y-94281585D01*
X105410853Y-94763354D01*
X105740026Y-94983300D01*
X105410853Y-95203246D01*
X105088946Y-95685015D01*
X104975907Y-96253300D01*
X105088946Y-96821585D01*
X105410853Y-97303354D01*
X105740026Y-97523300D01*
X105410853Y-97743246D01*
X105088946Y-98225015D01*
X105028342Y-98529690D01*
X99060370Y-94958070D01*
X98962454Y-94465815D01*
X98640547Y-93984046D01*
X98596623Y-93954697D01*
X98771098Y-93882427D01*
X98949727Y-93703799D01*
X99046400Y-93470410D01*
X99046400Y-92779850D01*
X98887650Y-92621100D01*
X97688400Y-92621100D01*
X97688400Y-92641100D01*
X97434400Y-92641100D01*
X97434400Y-92621100D01*
X96235150Y-92621100D01*
X96076400Y-92779850D01*
X96076400Y-93470410D01*
X96173073Y-93703799D01*
X96351702Y-93882427D01*
X96526177Y-93954697D01*
X96482253Y-93984046D01*
X96160346Y-94465815D01*
X96047307Y-95034100D01*
X90895842Y-95034100D01*
X90629100Y-93693100D01*
X91061796Y-91517790D01*
X96076400Y-91517790D01*
X96076400Y-92208350D01*
X96235150Y-92367100D01*
X97434400Y-92367100D01*
X97434400Y-91167850D01*
X97688400Y-91167850D01*
X97688400Y-92367100D01*
X98887650Y-92367100D01*
X99046400Y-92208350D01*
X99046400Y-91517790D01*
X98949727Y-91284401D01*
X98771098Y-91105773D01*
X98537709Y-91009100D01*
X97847150Y-91009100D01*
X97688400Y-91167850D01*
X97434400Y-91167850D01*
X97275650Y-91009100D01*
X96585091Y-91009100D01*
X96351702Y-91105773D01*
X96173073Y-91284401D01*
X96076400Y-91517790D01*
X91061796Y-91517790D01*
X92403849Y-84770836D01*
X96464861Y-78693100D01*
X97159100Y-78693100D01*
X97294975Y-79376190D01*
X97681914Y-79955286D01*
X98261010Y-80342225D01*
X98944100Y-80478100D01*
X99627190Y-80342225D01*
X100206286Y-79955286D01*
X100593225Y-79376190D01*
X100729100Y-78693100D01*
X100593225Y-78010010D01*
X100206286Y-77430914D01*
X99627190Y-77043975D01*
X98944100Y-76908100D01*
X98261010Y-77043975D01*
X97681914Y-77430914D01*
X97294975Y-78010010D01*
X97159100Y-78693100D01*
X96464861Y-78693100D01*
X97457905Y-77206905D01*
X100825141Y-74956990D01*
X105005000Y-74956990D01*
X105005000Y-75647550D01*
X105163750Y-75806300D01*
X106363000Y-75806300D01*
X106363000Y-74607050D01*
X106617000Y-74607050D01*
X106617000Y-75806300D01*
X107816250Y-75806300D01*
X107975000Y-75647550D01*
X107975000Y-74956990D01*
X107878327Y-74723601D01*
X107699698Y-74544973D01*
X107466309Y-74448300D01*
X106775750Y-74448300D01*
X106617000Y-74607050D01*
X106363000Y-74607050D01*
X106204250Y-74448300D01*
X105513691Y-74448300D01*
X105280302Y-74544973D01*
X105101673Y-74723601D01*
X105005000Y-74956990D01*
X100825141Y-74956990D01*
X105021836Y-72152849D01*
X113944100Y-70378100D01*
X122866364Y-72152849D01*
X122866364Y-72152849D01*
G37*
X122866364Y-72152849D02*
X130430295Y-77206905D01*
X135484351Y-84770836D01*
X137259100Y-93693100D01*
X135484351Y-102615364D01*
X130430295Y-110179295D01*
X122866364Y-115233351D01*
X113944100Y-117008100D01*
X105021836Y-115233351D01*
X97457905Y-110179295D01*
X96464862Y-108693100D01*
X97159100Y-108693100D01*
X97294975Y-109376190D01*
X97681914Y-109955286D01*
X98261010Y-110342225D01*
X98944100Y-110478100D01*
X99627190Y-110342225D01*
X100206286Y-109955286D01*
X100593225Y-109376190D01*
X100729100Y-108693100D01*
X100593225Y-108010010D01*
X100206286Y-107430914D01*
X99627190Y-107043975D01*
X98944100Y-106908100D01*
X98261010Y-107043975D01*
X97681914Y-107430914D01*
X97294975Y-108010010D01*
X97159100Y-108693100D01*
X96464862Y-108693100D01*
X92403849Y-102615364D01*
X90895842Y-95034100D01*
X96047307Y-95034100D01*
X96160346Y-95602385D01*
X96482253Y-96084154D01*
X96964022Y-96406061D01*
X97532307Y-96519100D01*
X97590493Y-96519100D01*
X98158778Y-96406061D01*
X98191416Y-96384253D01*
X105209627Y-100584402D01*
X105088946Y-100765015D01*
X104975907Y-101333300D01*
X105088946Y-101901585D01*
X105410853Y-102383354D01*
X105740026Y-102603300D01*
X105410853Y-102823246D01*
X105088946Y-103305015D01*
X104975907Y-103873300D01*
X105088946Y-104441585D01*
X105410853Y-104923354D01*
X105740026Y-105143300D01*
X105410853Y-105363246D01*
X105088946Y-105845015D01*
X104975907Y-106413300D01*
X105088946Y-106981585D01*
X105410853Y-107463354D01*
X105740026Y-107683300D01*
X105410853Y-107903246D01*
X105088946Y-108385015D01*
X104975907Y-108953300D01*
X105088946Y-109521585D01*
X105410853Y-110003354D01*
X105740026Y-110223300D01*
X105410853Y-110443246D01*
X105088946Y-110925015D01*
X104975907Y-111493300D01*
X105088946Y-112061585D01*
X105410853Y-112543354D01*
X105892622Y-112865261D01*
X106460907Y-112978300D01*
X106519093Y-112978300D01*
X107087378Y-112865261D01*
X107569147Y-112543354D01*
X107891054Y-112061585D01*
X107940681Y-111812090D01*
X119830524Y-111812090D01*
X120000355Y-112222124D01*
X120390642Y-112650383D01*
X120915108Y-112896686D01*
X121145000Y-112776019D01*
X121145000Y-111582200D01*
X121399000Y-111582200D01*
X121399000Y-112776019D01*
X121628892Y-112896686D01*
X122153358Y-112650383D01*
X122543645Y-112222124D01*
X122713476Y-111812090D01*
X122592155Y-111582200D01*
X121399000Y-111582200D01*
X121145000Y-111582200D01*
X119951845Y-111582200D01*
X119830524Y-111812090D01*
X107940681Y-111812090D01*
X108004093Y-111493300D01*
X107891054Y-110925015D01*
X107888324Y-110920930D01*
X108517084Y-109995434D01*
X108550424Y-109916665D01*
X108597926Y-109845532D01*
X108611626Y-109812433D01*
X108626732Y-109736380D01*
X108644077Y-109695402D01*
X108644448Y-109647197D01*
X108675100Y-109493100D01*
X108675100Y-100793500D01*
X108672517Y-100780512D01*
X111625325Y-98811190D01*
X111707667Y-98811262D01*
X112051443Y-98669217D01*
X112254896Y-98466118D01*
X114508833Y-98466118D01*
X114654677Y-98819086D01*
X114924493Y-99089374D01*
X115277206Y-99235833D01*
X115659118Y-99236167D01*
X116012086Y-99090323D01*
X116282374Y-98820507D01*
X116428833Y-98467794D01*
X116429167Y-98085882D01*
X116283323Y-97732914D01*
X116013507Y-97462626D01*
X115660794Y-97316167D01*
X115278882Y-97315833D01*
X114925914Y-97461677D01*
X114655626Y-97731493D01*
X114509167Y-98084206D01*
X114508833Y-98466118D01*
X112254896Y-98466118D01*
X112314692Y-98406427D01*
X112457338Y-98062899D01*
X112457599Y-97763588D01*
X115050649Y-90899491D01*
X115211092Y-90739327D01*
X115353738Y-90395799D01*
X115353964Y-90135944D01*
X115609118Y-90136167D01*
X115962086Y-89990323D01*
X116232374Y-89720507D01*
X116378833Y-89367794D01*
X116379167Y-88985882D01*
X116233323Y-88632914D01*
X116044420Y-88443680D01*
X120146676Y-79416145D01*
X120192853Y-79485254D01*
X120522026Y-79705200D01*
X120192853Y-79925146D01*
X119870946Y-80406915D01*
X119757907Y-80975200D01*
X119870946Y-81543485D01*
X120192853Y-82025254D01*
X120522026Y-82245200D01*
X120192853Y-82465146D01*
X119870946Y-82946915D01*
X119757907Y-83515200D01*
X119870946Y-84083485D01*
X120192853Y-84565254D01*
X120522026Y-84785200D01*
X120192853Y-85005146D01*
X119870946Y-85486915D01*
X119757907Y-86055200D01*
X119870946Y-86623485D01*
X120192853Y-87105254D01*
X120522026Y-87325200D01*
X120192853Y-87545146D01*
X119870946Y-88026915D01*
X119757907Y-88595200D01*
X119870946Y-89163485D01*
X120192853Y-89645254D01*
X120522026Y-89865200D01*
X120192853Y-90085146D01*
X119870946Y-90566915D01*
X119757907Y-91135200D01*
X119870946Y-91703485D01*
X120192853Y-92185254D01*
X120522026Y-92405200D01*
X120192853Y-92625146D01*
X119870946Y-93106915D01*
X119757907Y-93675200D01*
X119870946Y-94243485D01*
X120192853Y-94725254D01*
X120522026Y-94945200D01*
X120192853Y-95165146D01*
X119870946Y-95646915D01*
X119757907Y-96215200D01*
X119870946Y-96783485D01*
X120192853Y-97265254D01*
X120522026Y-97485200D01*
X120192853Y-97705146D01*
X119870946Y-98186915D01*
X119757907Y-98755200D01*
X119870946Y-99323485D01*
X120192853Y-99805254D01*
X120522026Y-100025200D01*
X120192853Y-100245146D01*
X119870946Y-100726915D01*
X119757907Y-101295200D01*
X119870946Y-101863485D01*
X120192853Y-102345254D01*
X120522026Y-102565200D01*
X120192853Y-102785146D01*
X119870946Y-103266915D01*
X119757907Y-103835200D01*
X119870946Y-104403485D01*
X120192853Y-104885254D01*
X120522026Y-105105200D01*
X120192853Y-105325146D01*
X119870946Y-105806915D01*
X119757907Y-106375200D01*
X119870946Y-106943485D01*
X120192853Y-107425254D01*
X120522026Y-107645200D01*
X120192853Y-107865146D01*
X119870946Y-108346915D01*
X119757907Y-108915200D01*
X119870946Y-109483485D01*
X120192853Y-109965254D01*
X120533553Y-110192902D01*
X120390642Y-110260017D01*
X120000355Y-110688276D01*
X119830524Y-111098310D01*
X119951845Y-111328200D01*
X121145000Y-111328200D01*
X121145000Y-111308200D01*
X121399000Y-111308200D01*
X121399000Y-111328200D01*
X122592155Y-111328200D01*
X122713476Y-111098310D01*
X122543645Y-110688276D01*
X122153358Y-110260017D01*
X122010447Y-110192902D01*
X122351147Y-109965254D01*
X122673054Y-109483485D01*
X122786093Y-108915200D01*
X122741915Y-108693100D01*
X127159100Y-108693100D01*
X127294975Y-109376190D01*
X127681914Y-109955286D01*
X128261010Y-110342225D01*
X128944100Y-110478100D01*
X129627190Y-110342225D01*
X130206286Y-109955286D01*
X130593225Y-109376190D01*
X130729100Y-108693100D01*
X130593225Y-108010010D01*
X130206286Y-107430914D01*
X129627190Y-107043975D01*
X128944100Y-106908100D01*
X128261010Y-107043975D01*
X127681914Y-107430914D01*
X127294975Y-108010010D01*
X127159100Y-108693100D01*
X122741915Y-108693100D01*
X122673054Y-108346915D01*
X122351147Y-107865146D01*
X122021974Y-107645200D01*
X122351147Y-107425254D01*
X122673054Y-106943485D01*
X122786093Y-106375200D01*
X122673054Y-105806915D01*
X122351147Y-105325146D01*
X122021974Y-105105200D01*
X122351147Y-104885254D01*
X122673054Y-104403485D01*
X122786093Y-103835200D01*
X122673054Y-103266915D01*
X122351147Y-102785146D01*
X122021974Y-102565200D01*
X122351147Y-102345254D01*
X122673054Y-101863485D01*
X122786093Y-101295200D01*
X122673054Y-100726915D01*
X122351147Y-100245146D01*
X122021974Y-100025200D01*
X122351147Y-99805254D01*
X122673054Y-99323485D01*
X122786093Y-98755200D01*
X122673054Y-98186915D01*
X122351147Y-97705146D01*
X122021974Y-97485200D01*
X122351147Y-97265254D01*
X122673054Y-96783485D01*
X122786093Y-96215200D01*
X122673054Y-95646915D01*
X122351147Y-95165146D01*
X122021974Y-94945200D01*
X122351147Y-94725254D01*
X122673054Y-94243485D01*
X122786093Y-93675200D01*
X122673054Y-93106915D01*
X122351147Y-92625146D01*
X122021974Y-92405200D01*
X122351147Y-92185254D01*
X122673054Y-91703485D01*
X122786093Y-91135200D01*
X122673054Y-90566915D01*
X122351147Y-90085146D01*
X122021974Y-89865200D01*
X122351147Y-89645254D01*
X122673054Y-89163485D01*
X122786093Y-88595200D01*
X122673054Y-88026915D01*
X122351147Y-87545146D01*
X122021974Y-87325200D01*
X122351147Y-87105254D01*
X122673054Y-86623485D01*
X122786093Y-86055200D01*
X122673054Y-85486915D01*
X122351147Y-85005146D01*
X122021974Y-84785200D01*
X122351147Y-84565254D01*
X122673054Y-84083485D01*
X122786093Y-83515200D01*
X122673054Y-82946915D01*
X122351147Y-82465146D01*
X122021974Y-82245200D01*
X122351147Y-82025254D01*
X122673054Y-81543485D01*
X122786093Y-80975200D01*
X122673054Y-80406915D01*
X122351147Y-79925146D01*
X122021974Y-79705200D01*
X122351147Y-79485254D01*
X122673054Y-79003485D01*
X122734793Y-78693100D01*
X127159100Y-78693100D01*
X127294975Y-79376190D01*
X127681914Y-79955286D01*
X128261010Y-80342225D01*
X128944100Y-80478100D01*
X129627190Y-80342225D01*
X130206286Y-79955286D01*
X130593225Y-79376190D01*
X130729100Y-78693100D01*
X130593225Y-78010010D01*
X130206286Y-77430914D01*
X129627190Y-77043975D01*
X128944100Y-76908100D01*
X128261010Y-77043975D01*
X127681914Y-77430914D01*
X127294975Y-78010010D01*
X127159100Y-78693100D01*
X122734793Y-78693100D01*
X122786093Y-78435200D01*
X122673054Y-77866915D01*
X122351147Y-77385146D01*
X122309548Y-77357350D01*
X122357317Y-77348362D01*
X122573441Y-77209290D01*
X122718431Y-76997090D01*
X122769440Y-76745200D01*
X122769440Y-75045200D01*
X122725162Y-74809883D01*
X122586090Y-74593759D01*
X122373890Y-74448769D01*
X122122000Y-74397760D01*
X120422000Y-74397760D01*
X120186683Y-74442038D01*
X119970559Y-74581110D01*
X119825569Y-74793310D01*
X119774560Y-75045200D01*
X119774560Y-76594885D01*
X119239867Y-77400586D01*
X119214451Y-77462496D01*
X119175407Y-77516856D01*
X114133207Y-88612856D01*
X114127038Y-88639185D01*
X114112697Y-88662111D01*
X113788180Y-89517483D01*
X113626708Y-89678673D01*
X113484062Y-90022201D01*
X113483801Y-90321513D01*
X110890752Y-97185609D01*
X110730308Y-97345773D01*
X110698724Y-97421834D01*
X107906471Y-99284076D01*
X108004093Y-98793300D01*
X107891054Y-98225015D01*
X107569147Y-97743246D01*
X107239974Y-97523300D01*
X107569147Y-97303354D01*
X107891054Y-96821585D01*
X108004093Y-96253300D01*
X107891054Y-95685015D01*
X107569147Y-95203246D01*
X107239974Y-94983300D01*
X107569147Y-94763354D01*
X107891054Y-94281585D01*
X108004093Y-93713300D01*
X107891054Y-93145015D01*
X107569147Y-92663246D01*
X107239974Y-92443300D01*
X107569147Y-92223354D01*
X107891054Y-91741585D01*
X108004093Y-91173300D01*
X107891054Y-90605015D01*
X107569147Y-90123246D01*
X107239974Y-89903300D01*
X107569147Y-89683354D01*
X107891054Y-89201585D01*
X108004093Y-88633300D01*
X107891054Y-88065015D01*
X107569147Y-87583246D01*
X107239974Y-87363300D01*
X107569147Y-87143354D01*
X107891054Y-86661585D01*
X108004093Y-86093300D01*
X107891054Y-85525015D01*
X107569147Y-85043246D01*
X107239974Y-84823300D01*
X107569147Y-84603354D01*
X107891054Y-84121585D01*
X108004093Y-83553300D01*
X107891054Y-82985015D01*
X107569147Y-82503246D01*
X107239974Y-82283300D01*
X107569147Y-82063354D01*
X107891054Y-81581585D01*
X108004093Y-81013300D01*
X107891054Y-80445015D01*
X107569147Y-79963246D01*
X107239974Y-79743300D01*
X107569147Y-79523354D01*
X107891054Y-79041585D01*
X108004093Y-78473300D01*
X107891054Y-77905015D01*
X107569147Y-77423246D01*
X107525223Y-77393897D01*
X107699698Y-77321627D01*
X107878327Y-77142999D01*
X107975000Y-76909610D01*
X107975000Y-76219050D01*
X107816250Y-76060300D01*
X106617000Y-76060300D01*
X106617000Y-76080300D01*
X106363000Y-76080300D01*
X106363000Y-76060300D01*
X105163750Y-76060300D01*
X105005000Y-76219050D01*
X105005000Y-76909610D01*
X105101673Y-77142999D01*
X105280302Y-77321627D01*
X105454777Y-77393897D01*
X105410853Y-77423246D01*
X105088946Y-77905015D01*
X104975907Y-78473300D01*
X105088946Y-79041585D01*
X105410853Y-79523354D01*
X105740026Y-79743300D01*
X105410853Y-79963246D01*
X105088946Y-80445015D01*
X104975907Y-81013300D01*
X105088946Y-81581585D01*
X105410853Y-82063354D01*
X105740026Y-82283300D01*
X105410853Y-82503246D01*
X105088946Y-82985015D01*
X104975907Y-83553300D01*
X105088946Y-84121585D01*
X105410853Y-84603354D01*
X105740026Y-84823300D01*
X105410853Y-85043246D01*
X105088946Y-85525015D01*
X104975907Y-86093300D01*
X105088946Y-86661585D01*
X105410853Y-87143354D01*
X105740026Y-87363300D01*
X105410853Y-87583246D01*
X105088946Y-88065015D01*
X104975907Y-88633300D01*
X105088946Y-89201585D01*
X105410853Y-89683354D01*
X105740026Y-89903300D01*
X105410853Y-90123246D01*
X105088946Y-90605015D01*
X104975907Y-91173300D01*
X105088946Y-91741585D01*
X105410853Y-92223354D01*
X105740026Y-92443300D01*
X105410853Y-92663246D01*
X105088946Y-93145015D01*
X104975907Y-93713300D01*
X105088946Y-94281585D01*
X105410853Y-94763354D01*
X105740026Y-94983300D01*
X105410853Y-95203246D01*
X105088946Y-95685015D01*
X104975907Y-96253300D01*
X105088946Y-96821585D01*
X105410853Y-97303354D01*
X105740026Y-97523300D01*
X105410853Y-97743246D01*
X105088946Y-98225015D01*
X105028342Y-98529690D01*
X99060370Y-94958070D01*
X98962454Y-94465815D01*
X98640547Y-93984046D01*
X98596623Y-93954697D01*
X98771098Y-93882427D01*
X98949727Y-93703799D01*
X99046400Y-93470410D01*
X99046400Y-92779850D01*
X98887650Y-92621100D01*
X97688400Y-92621100D01*
X97688400Y-92641100D01*
X97434400Y-92641100D01*
X97434400Y-92621100D01*
X96235150Y-92621100D01*
X96076400Y-92779850D01*
X96076400Y-93470410D01*
X96173073Y-93703799D01*
X96351702Y-93882427D01*
X96526177Y-93954697D01*
X96482253Y-93984046D01*
X96160346Y-94465815D01*
X96047307Y-95034100D01*
X90895842Y-95034100D01*
X90629100Y-93693100D01*
X91061796Y-91517790D01*
X96076400Y-91517790D01*
X96076400Y-92208350D01*
X96235150Y-92367100D01*
X97434400Y-92367100D01*
X97434400Y-91167850D01*
X97688400Y-91167850D01*
X97688400Y-92367100D01*
X98887650Y-92367100D01*
X99046400Y-92208350D01*
X99046400Y-91517790D01*
X98949727Y-91284401D01*
X98771098Y-91105773D01*
X98537709Y-91009100D01*
X97847150Y-91009100D01*
X97688400Y-91167850D01*
X97434400Y-91167850D01*
X97275650Y-91009100D01*
X96585091Y-91009100D01*
X96351702Y-91105773D01*
X96173073Y-91284401D01*
X96076400Y-91517790D01*
X91061796Y-91517790D01*
X92403849Y-84770836D01*
X96464861Y-78693100D01*
X97159100Y-78693100D01*
X97294975Y-79376190D01*
X97681914Y-79955286D01*
X98261010Y-80342225D01*
X98944100Y-80478100D01*
X99627190Y-80342225D01*
X100206286Y-79955286D01*
X100593225Y-79376190D01*
X100729100Y-78693100D01*
X100593225Y-78010010D01*
X100206286Y-77430914D01*
X99627190Y-77043975D01*
X98944100Y-76908100D01*
X98261010Y-77043975D01*
X97681914Y-77430914D01*
X97294975Y-78010010D01*
X97159100Y-78693100D01*
X96464861Y-78693100D01*
X97457905Y-77206905D01*
X100825141Y-74956990D01*
X105005000Y-74956990D01*
X105005000Y-75647550D01*
X105163750Y-75806300D01*
X106363000Y-75806300D01*
X106363000Y-74607050D01*
X106617000Y-74607050D01*
X106617000Y-75806300D01*
X107816250Y-75806300D01*
X107975000Y-75647550D01*
X107975000Y-74956990D01*
X107878327Y-74723601D01*
X107699698Y-74544973D01*
X107466309Y-74448300D01*
X106775750Y-74448300D01*
X106617000Y-74607050D01*
X106363000Y-74607050D01*
X106204250Y-74448300D01*
X105513691Y-74448300D01*
X105280302Y-74544973D01*
X105101673Y-74723601D01*
X105005000Y-74956990D01*
X100825141Y-74956990D01*
X105021836Y-72152849D01*
X113944100Y-70378100D01*
X122866364Y-72152849D01*
M02*
